<?xml version="1.0" encoding="UTF-8" standalone="no"?>
<!-- Created with Inkscape (http://www.inkscape.org/) -->

<svg
   width="52.916668mm"
   height="66.145828mm"
   viewBox="0 0 52.916668 66.145828"
   version="1.1"
   id="svg1"
   inkscape:export-filename="png.svg"
   inkscape:export-xdpi="96"
   inkscape:export-ydpi="96"
   xmlns:inkscape="http://www.inkscape.org/namespaces/inkscape"
   xmlns:sodipodi="http://sodipodi.sourceforge.net/DTD/sodipodi-0.dtd"
   xmlns="http://www.w3.org/2000/svg"
   xmlns:svg="http://www.w3.org/2000/svg">
  <sodipodi:namedview
     id="namedview1"
     pagecolor="#ffffff"
     bordercolor="#000000"
     borderopacity="0.25"
     inkscape:showpageshadow="2"
     inkscape:pageopacity="0.0"
     inkscape:pagecheckerboard="true"
     inkscape:deskcolor="#d1d1d1"
     inkscape:document-units="mm">
    <inkscape:page
       x="0"
       y="0"
       width="52.916668"
       height="66.145828"
       id="page2"
       margin="0"
       bleed="0" />
  </sodipodi:namedview>
  <defs
     id="defs1">
    <linearGradient
       id="SVGID_27_"
       gradientUnits="userSpaceOnUse"
       x1="1237.9648"
       y1="615"
       x2="1237.9648"
       y2="365">
				<stop
   offset="0"
   style="stop-color:#DCDDDE"
   id="stop93" />

				<stop
   offset="0.199"
   style="stop-color:#E3E4E5"
   id="stop94" />

				<stop
   offset="0.6062"
   style="stop-color:#EEEEEF"
   id="stop95" />

				<stop
   offset="1"
   style="stop-color:#F1F2F2"
   id="stop96" />

			</linearGradient>
    <linearGradient
       id="SVGID_28_"
       gradientUnits="userSpaceOnUse"
       x1="1237.9648"
       y1="445"
       x2="1237.9648"
       y2="365">
				<stop
   offset="0"
   style="stop-color:#7FB539"
   id="stop97" />

				<stop
   offset="1"
   style="stop-color:#BFD730"
   id="stop98" />

			</linearGradient>
  </defs>
  <g
     inkscape:label="Шар 1"
     inkscape:groupmode="layer"
     id="layer1">
    <g
       id="g100"
       transform="matrix(0.26458333,0,0,0.26458333,-301.09583,-96.572914)">
		<g
   id="g99">
			<linearGradient
   id="linearGradient4-8"
   gradientUnits="userSpaceOnUse"
   x1="1237.9648"
   y1="615"
   x2="1237.9648"
   y2="365">
				<stop
   offset="0"
   style="stop-color:#DCDDDE"
   id="stop1-6" />

				<stop
   offset="0.199"
   style="stop-color:#E3E4E5"
   id="stop2-8" />

				<stop
   offset="0.6062"
   style="stop-color:#EEEEEF"
   id="stop3-8" />

				<stop
   offset="1"
   style="stop-color:#F1F2F2"
   id="stop4-4" />

			</linearGradient>

			<polygon
   class="st36"
   points="1138,365 1278,365 1338,425 1338,615 1138,615 "
   id="polygon96"
   style="fill:url(#SVGID_27_)" />

			<linearGradient
   id="linearGradient6-3"
   gradientUnits="userSpaceOnUse"
   x1="1237.9648"
   y1="445"
   x2="1237.9648"
   y2="365">
				<stop
   offset="0"
   style="stop-color:#7FB539"
   id="stop5-1" />

				<stop
   offset="1"
   style="stop-color:#BFD730"
   id="stop6-4" />

			</linearGradient>

			<polygon
   class="st37"
   points="1138,445 1338,445 1338,425 1278,365 1138,365 "
   id="polygon98"
   style="fill:url(#SVGID_28_)" />

			<polygon
   class="st4"
   points="1278,425 1338,425 1278,365 "
   id="polygon99"
   style="opacity:0.3;fill:#ffffff" />

			<text
   transform="translate(1149.9604,425.0005)"
   class="st5 st6 st7 st8"
   id="text99"
   style="font-size:50px;font-family:Myriad-Bold;letter-spacing:2;fill:#ffffff">GIF</text>

		</g>

		<path
   class="st2"
   d="m 1246.2,555 v 11.1 h 40 v -40 h -21.1 c 0.1,0.9 0.1,1.8 0.1,2.7 0,12.3 -8,22.6 -19,26.2 z m -34.5,-17 c 0.1,0 0.1,0 0.2,0 -1,-2.8 -1.6,-5.9 -1.6,-9.1 0,-12.5 8.4,-23 19.8,-26.4 -4.1,-5.8 -10.8,-9.5 -18.4,-9.5 -12.4,0 -22.5,10.1 -22.5,22.5 0,12.4 10,22.5 22.5,22.5 z m -41.3,-63.4 v 110.3 h 134.8 V 474.6 Z m 124.8,100.3 h -114.8 v -90.3 h 114.8 z m -79.9,-46 c 0,12.4 10.1,22.5 22.5,22.5 12.4,0 22.5,-10.1 22.5,-22.5 0,-12.4 -10.1,-22.5 -22.5,-22.5 -12.5,0 -22.5,10 -22.5,22.5 z m 12.5,-10.8 c 0,-3.1 2.2,-4.4 4.9,-2.8 l 18.6,10.7 c 2.7,1.6 2.7,4.1 0,5.7 l -18.6,10.7 c -2.7,1.6 -4.9,0.3 -4.9,-2.8 z"
   id="path99"
   style="opacity:0.15" />

	</g>
  </g>
</svg>
