<?xml version="1.0" encoding="UTF-8" standalone="no"?>
<!-- Created with Inkscape (http://www.inkscape.org/) -->

<svg
   width="52.916664mm"
   height="66.145828mm"
   viewBox="0 0 52.916664 66.145828"
   version="1.1"
   id="svg1"
   inkscape:export-filename="jpeg.svg"
   inkscape:export-xdpi="96"
   inkscape:export-ydpi="96"
   xmlns:inkscape="http://www.inkscape.org/namespaces/inkscape"
   xmlns:sodipodi="http://sodipodi.sourceforge.net/DTD/sodipodi-0.dtd"
   xmlns="http://www.w3.org/2000/svg"
   xmlns:svg="http://www.w3.org/2000/svg">
  <sodipodi:namedview
     id="namedview1"
     pagecolor="#ffffff"
     bordercolor="#000000"
     borderopacity="0.25"
     inkscape:showpageshadow="2"
     inkscape:pageopacity="0.0"
     inkscape:pagecheckerboard="true"
     inkscape:deskcolor="#d1d1d1"
     inkscape:document-units="mm">
    <inkscape:page
       x="0"
       y="0"
       width="52.916664"
       height="66.145828"
       id="page2"
       margin="0"
       bleed="0" />
  </sodipodi:namedview>
  <defs
     id="defs1">
    <linearGradient
       id="SVGID_5_"
       gradientUnits="userSpaceOnUse"
       x1="700"
       y1="615"
       x2="700"
       y2="365">
				<stop
   offset="0"
   style="stop-color:#DCDDDE"
   id="stop13" />

				<stop
   offset="0.199"
   style="stop-color:#E3E4E5"
   id="stop14" />

				<stop
   offset="0.6062"
   style="stop-color:#EEEEEF"
   id="stop15" />

				<stop
   offset="1"
   style="stop-color:#F1F2F2"
   id="stop16" />

			</linearGradient>
    <linearGradient
       id="SVGID_6_"
       gradientUnits="userSpaceOnUse"
       x1="700"
       y1="445"
       x2="700"
       y2="365">
				<stop
   offset="0"
   style="stop-color:#39BB9D"
   id="stop17" />

				<stop
   offset="1"
   style="stop-color:#B0DFDB"
   id="stop18" />

			</linearGradient>
  </defs>
  <g
     inkscape:label="Шар 1"
     inkscape:groupmode="layer"
     id="layer1">
    <g
       id="g20"
       transform="matrix(0.26458333,0,0,0.26458333,-158.75,-96.572914)">
		<g
   id="g19">
			<linearGradient
   id="linearGradient4"
   gradientUnits="userSpaceOnUse"
   x1="700"
   y1="615"
   x2="700"
   y2="365">
				<stop
   offset="0"
   style="stop-color:#DCDDDE"
   id="stop1" />

				<stop
   offset="0.199"
   style="stop-color:#E3E4E5"
   id="stop2" />

				<stop
   offset="0.6062"
   style="stop-color:#EEEEEF"
   id="stop3" />

				<stop
   offset="1"
   style="stop-color:#F1F2F2"
   id="stop4" />

			</linearGradient>

			<polygon
   class="st11"
   points="600,615 600,365 740,365 800,425 800,615 "
   id="polygon16"
   style="fill:url(#SVGID_5_)" />

			<linearGradient
   id="linearGradient6"
   gradientUnits="userSpaceOnUse"
   x1="700"
   y1="445"
   x2="700"
   y2="365">
				<stop
   offset="0"
   style="stop-color:#39BB9D"
   id="stop5" />

				<stop
   offset="1"
   style="stop-color:#B0DFDB"
   id="stop6" />

			</linearGradient>

			<polygon
   class="st12"
   points="600,365 600,445 800,445 800,425 740,365 "
   id="polygon18"
   style="fill:url(#SVGID_6_)" />

			<polygon
   class="st4"
   points="740,365 740,425 800,425 "
   id="polygon19"
   style="opacity:0.3;fill:#ffffff" />

			<text
   class="st5 st6 st7 st8"
   id="text19"
   style="font-size:50px;font-family:Myriad-Bold;letter-spacing:2;display:none;fill:#ffffff"
   transform="translate(611.9956,425.0005)">HTM</text>
<text
   class="st5 st6 st7 st8"
   id="text19-9"
   style="font-size:43.7805px;font-family:Myriad-Bold;letter-spacing:1.75121;fill:#ffffff;stroke-width:0.875609"
   transform="scale(0.87560939,1.1420618)"
   x="700.229"
   y="372.13443">HTML</text>

		</g>

		<path
   class="st2"
   d="m 705.2,480.2 c -0.8,0 -1.7,-0.1 -2.5,-0.1 -24.4,0 -44.7,17 -49.9,39.8 3,-3.8 6.4,-7.5 9.9,-11.1 12.4,-12.4 28,-22.2 42.5,-28.6 z m -53.8,97.4 c -9.4,-9.5 4.1,-38.3 30.3,-64.5 26.2,-26.2 55,-39.7 64.5,-30.3 3.6,3.6 3.8,10 1.4,18 0.5,0.8 1,1.6 1.5,2.4 3.6,-11 3.1,-20.4 -2.6,-26.1 -9.7,-9.7 -54.1,4.9 -82.4,33.2 -28.3,28.3 -35.3,59.6 -25.7,69.2 6.7,6.7 23.2,6.2 37.7,0.3 -1.1,-0.6 -2.1,-1.3 -3.1,-2 -9.7,3.7 -17.5,3.9 -21.6,-0.2 z m 103,-38.8 c 0.2,-1.9 0.3,-3.8 0.3,-5.8 0,-5.7 -1,-11.2 -2.7,-16.4 -2.5,-8.2 -7,-15.4 -12.9,-21.3 -4.2,-4.3 -9.2,-7.8 -14.7,-10.4 -12.2,5 -27.3,15.7 -41.2,29.6 -13.2,13.2 -22.4,26.1 -27.6,36.9 0.5,1.2 1,2.4 1.6,3.5 8.2,17.3 25.9,29.4 46.3,29.4 22.5,0 41.6,-14.5 48.5,-34.6 l -0.8,-1.7 h -27.7 c -3.8,7 -11.2,11.8 -19.8,11.8 -6.2,0 -11.9,-2.5 -15.9,-6.6 -1.3,-1.4 -2.5,-3 -3.5,-4.8 -0.5,-0.9 -0.9,-1.9 -1.3,-2.9 -0.6,-2.1 -1,-4.2 -1,-6.5 v -0.1 h 72.4 z M 703.5,505 c 8.1,0 15.2,4.5 18.9,11.1 1,2.3 1.7,4.8 1.8,7.5 h -42.1 c 1.4,-10.4 10.4,-18.6 21.4,-18.6 z"
   id="path19"
   style="opacity:0.15" />

	</g>
  </g>
</svg>
