<?xml version="1.0" encoding="UTF-8" standalone="no"?>
<!-- Created with Inkscape (http://www.inkscape.org/) -->

<svg
   width="52.916668mm"
   height="66.145828mm"
   viewBox="0 0 52.916668 66.145828"
   version="1.1"
   id="svg1"
   inkscape:export-filename="gif.svg"
   inkscape:export-xdpi="96"
   inkscape:export-ydpi="96"
   xmlns:inkscape="http://www.inkscape.org/namespaces/inkscape"
   xmlns:sodipodi="http://sodipodi.sourceforge.net/DTD/sodipodi-0.dtd"
   xmlns="http://www.w3.org/2000/svg"
   xmlns:svg="http://www.w3.org/2000/svg">
  <sodipodi:namedview
     id="namedview1"
     pagecolor="#ffffff"
     bordercolor="#000000"
     borderopacity="0.25"
     inkscape:showpageshadow="2"
     inkscape:pageopacity="0.0"
     inkscape:pagecheckerboard="true"
     inkscape:deskcolor="#d1d1d1"
     inkscape:document-units="mm">
    <inkscape:page
       x="0"
       y="0"
       width="52.916668"
       height="66.145828"
       id="page2"
       margin="0"
       bleed="0" />
  </sodipodi:namedview>
  <defs
     id="defs1">
    <linearGradient
       id="SVGID_23_"
       gradientUnits="userSpaceOnUse"
       x1="1237.9648"
       y1="924.22412"
       x2="1237.9648"
       y2="674.22412">
				<stop
   offset="0"
   style="stop-color:#DCDDDE"
   id="stop78" />

				<stop
   offset="0.199"
   style="stop-color:#E3E4E5"
   id="stop79" />

				<stop
   offset="0.6062"
   style="stop-color:#EEEEEF"
   id="stop80" />

				<stop
   offset="1"
   style="stop-color:#F1F2F2"
   id="stop81" />

			</linearGradient>
    <linearGradient
       id="SVGID_24_"
       gradientUnits="userSpaceOnUse"
       x1="1237.9648"
       y1="754.22412"
       x2="1237.9648"
       y2="674.22412">
				<stop
   offset="0"
   style="stop-color:#F15B40"
   id="stop82" />

				<stop
   offset="1"
   style="stop-color:#F9AA8F"
   id="stop83" />

			</linearGradient>
  </defs>
  <g
     inkscape:label="Шар 1"
     inkscape:groupmode="layer"
     id="layer1">
    <g
       id="g85"
       transform="matrix(0.26458333,0,0,0.26458333,-301.09583,-178.38208)">
		<g
   id="g84">
			<linearGradient
   id="linearGradient4"
   gradientUnits="userSpaceOnUse"
   x1="1237.9648"
   y1="924.22412"
   x2="1237.9648"
   y2="674.22412">
				<stop
   offset="0"
   style="stop-color:#DCDDDE"
   id="stop1" />

				<stop
   offset="0.199"
   style="stop-color:#E3E4E5"
   id="stop2" />

				<stop
   offset="0.6062"
   style="stop-color:#EEEEEF"
   id="stop3" />

				<stop
   offset="1"
   style="stop-color:#F1F2F2"
   id="stop4" />

			</linearGradient>

			<polygon
   class="st32"
   points="1138,924.2 1138,674.2 1278,674.2 1338,734.2 1338,924.2 "
   id="polygon81"
   style="fill:url(#SVGID_23_)" />

			<linearGradient
   id="linearGradient6"
   gradientUnits="userSpaceOnUse"
   x1="1237.9648"
   y1="754.22412"
   x2="1237.9648"
   y2="674.22412">
				<stop
   offset="0"
   style="stop-color:#F15B40"
   id="stop5" />

				<stop
   offset="1"
   style="stop-color:#F9AA8F"
   id="stop6" />

			</linearGradient>

			<polygon
   class="st33"
   points="1138,674.2 1138,754.2 1338,754.2 1338,734.2 1278,674.2 "
   id="polygon83"
   style="fill:url(#SVGID_24_)" />

			<polygon
   class="st4"
   points="1278,674.2 1278,734.2 1338,734.2 "
   id="polygon84"
   style="opacity:0.3;fill:#ffffff" />

			<text
   transform="translate(1149.9604,734.2246)"
   class="st5 st6 st7 st8"
   id="text84"
   style="font-size:50px;font-family:Myriad-Bold;letter-spacing:2;fill:#ffffff">JPG</text>

		</g>

		<path
   class="st2"
   d="M 1170.1,783.4 V 893.7 H 1305 V 783.4 Z M 1295,883.7 H 1180.2 V 793.4 H 1295 Z m -9,-48.7 h -40 v 40 h 40 z m -74.5,11.8 c 12.4,0 22.5,-10.1 22.5,-22.5 0,-12.4 -10.1,-22.5 -22.5,-22.5 -12.4,0 -22.5,10.1 -22.5,22.5 0,12.4 10,22.5 22.5,22.5 z"
   id="path84"
   style="opacity:0.15" />

	</g>
  </g>
</svg>
