<?xml version="1.0" encoding="UTF-8" standalone="no"?>
<!-- Created with Inkscape (http://www.inkscape.org/) -->

<svg
   width="52.916668mm"
   height="66.145828mm"
   viewBox="0 0 52.916668 66.145828"
   version="1.1"
   id="svg1"
   inkscape:export-filename="zip.svg"
   inkscape:export-xdpi="96"
   inkscape:export-ydpi="96"
   xmlns:inkscape="http://www.inkscape.org/namespaces/inkscape"
   xmlns:sodipodi="http://sodipodi.sourceforge.net/DTD/sodipodi-0.dtd"
   xmlns="http://www.w3.org/2000/svg"
   xmlns:svg="http://www.w3.org/2000/svg">
  <sodipodi:namedview
     id="namedview1"
     pagecolor="#ffffff"
     bordercolor="#000000"
     borderopacity="0.25"
     inkscape:showpageshadow="2"
     inkscape:pageopacity="0.0"
     inkscape:pagecheckerboard="true"
     inkscape:deskcolor="#d1d1d1"
     inkscape:document-units="mm">
    <inkscape:page
       x="0"
       y="0"
       width="52.916668"
       height="66.145828"
       id="page2"
       margin="0"
       bleed="0" />
  </sodipodi:namedview>
  <defs
     id="defs1">
    <linearGradient
       id="SVGID_3_"
       gradientUnits="userSpaceOnUse"
       x1="431.01761"
       y1="615"
       x2="431.01761"
       y2="365">
			<stop
   offset="0"
   style="stop-color:#DCDDDE"
   id="stop7" />

			<stop
   offset="0.199"
   style="stop-color:#E3E4E5"
   id="stop8" />

			<stop
   offset="0.6062"
   style="stop-color:#EEEEEF"
   id="stop9" />

			<stop
   offset="1"
   style="stop-color:#F1F2F2"
   id="stop10" />

		</linearGradient>
    <linearGradient
       id="SVGID_4_"
       gradientUnits="userSpaceOnUse"
       x1="431.01761"
       y1="445"
       x2="431.01761"
       y2="365">
			<stop
   offset="0"
   style="stop-color:#EC008C"
   id="stop11" />

			<stop
   offset="1"
   style="stop-color:#F173AC"
   id="stop12" />

		</linearGradient>
  </defs>
  <g
     inkscape:label="Шар 1"
     inkscape:groupmode="layer"
     id="layer1">
    <g
       id="g13"
       transform="matrix(0.26458333,0,0,0.26458333,-87.577083,-96.572914)">
		<linearGradient
   id="linearGradient4"
   gradientUnits="userSpaceOnUse"
   x1="431.01761"
   y1="615"
   x2="431.01761"
   y2="365">
			<stop
   offset="0"
   style="stop-color:#DCDDDE"
   id="stop1-2" />

			<stop
   offset="0.199"
   style="stop-color:#E3E4E5"
   id="stop2-2" />

			<stop
   offset="0.6062"
   style="stop-color:#EEEEEF"
   id="stop3-6" />

			<stop
   offset="1"
   style="stop-color:#F1F2F2"
   id="stop4-1" />

		</linearGradient>

		<polygon
   class="st9"
   points="331,615 331,365 471,365 531,425 531,615 "
   id="polygon10"
   style="fill:url(#SVGID_3_)" />

		<path
   class="st2"
   d="m 390.8,520.9 h 6.7 l 1.2,3.6 h 4.8 v -12.2 h -4.8 l -1.2,3.6 h -6.7 v -3.6 l -19.8,2.5 v 7.2 l 19.8,2.5 z m 0,-19.1 h 6.7 l 1.2,3.6 h 4.8 v -12.2 h -4.8 l -1.2,3.6 h -6.7 v -3.6 l -19.8,2.5 v 7.2 l 19.8,2.5 z m 0,38.2 h 6.7 l 1.2,3.6 h 4.8 v -12.2 h -4.8 l -1.2,3.6 h -6.7 v -3.6 L 371,534 v 7.2 l 19.8,2.5 z m 0,19.2 h 6.7 l 1.2,3.6 h 4.8 v -12.2 h -4.8 l -1.2,3.6 h -6.7 v -3.6 l -19.8,2.5 v 7.2 l 19.8,2.5 z m 0,-76.5 h 6.7 l 1.2,3.6 h 4.8 v -12.2 h -4.8 l -1.2,3.6 h -6.7 v -3.6 l -19.8,2.5 v 7.2 l 19.8,2.5 z m 0,114.7 h 6.7 l 1.2,3.6 h 4.8 v -12.2 h -4.8 l -1.2,3.6 h -6.7 v -3.6 l -19.8,2.5 v 7.2 l 19.8,2.5 z m 0,-191.2 h 6.7 l 1.2,3.6 h 4.8 v -12.2 h -4.8 l -1.2,3.6 h -6.7 v -3.6 l -19.8,2.5 v 7.2 l 19.8,2.5 z m 0,-19.1 h 6.7 l 1.2,3.6 h 4.8 v -12.2 h -4.8 l -1.2,3.6 h -6.7 v -3.6 L 371,381 v 7.2 l 19.8,2.5 z m 0,-19.1 h 6.7 l 1.2,3.6 h 4.8 V 365 H 371 v 4.1 l 19.8,2.5 z m 0,95.6 h 6.7 l 1.2,3.6 h 4.8 V 455 h -4.8 l -1.2,3.6 h -6.7 V 455 l -19.8,2.5 v 7.2 l 19.8,2.5 z m 6.7,148 h -6.7 V 608 l -19.8,2.5 v 4.5 h 32.6 v -7 h -4.8 z m -6.7,-167.1 h 6.7 l 1.2,3.6 h 4.8 v -12.2 h -4.8 l -1.2,3.6 h -6.7 v -3.6 l -19.8,2.5 v 7.2 l 19.8,2.5 z m 0,-19.2 h 6.7 l 1.2,3.6 h 4.8 v -12.2 h -4.8 l -1.2,3.6 h -6.7 v -3.6 l -19.8,2.5 v 7.2 l 19.8,2.5 z m 0,153 h 6.7 l 1.2,3.6 h 4.8 v -12.2 h -4.8 l -1.2,3.6 h -6.7 v -3.6 l -19.8,2.5 v 7.2 l 19.8,2.5 z m 13.8,-110 h -6.7 l -1.3,-3.6 h -4.8 v 12.2 h 4.8 l 1.3,-3.6 h 6.7 v 3.6 l 19.8,-2.5 v -7.2 l -19.8,-2.5 z m 0,-38.3 h -6.7 l -1.3,-3.6 h -4.8 v 12.2 h 4.8 l 1.3,-3.6 h 6.7 v 3.6 l 19.8,-2.5 v -7.2 l -19.8,-2.5 z m 0,172.1 h -6.7 l -1.3,-3.6 h -4.8 v 12.2 h 4.8 l 1.3,-3.6 h 6.7 v 3.6 l 19.8,-2.5 V 601 l -19.8,-2.5 z m 0,-191.2 h -6.7 l -1.3,-3.6 h -4.8 v 12.2 h 4.8 l 1.3,-3.6 h 6.7 v 3.6 l 19.8,-2.5 v -7.2 l -19.8,-2.5 z m 0,-41.9 v 3.6 h -6.7 l -1.3,-3.6 h -4.8 v 12.2 h 4.8 l 1.3,-3.6 h 6.7 v 3.6 l 19.8,-2.5 v -7.2 z m 0,22.8 h -6.7 l -1.3,-3.6 h -4.8 v 12.2 h 4.8 l 1.3,-3.6 h 6.7 v 3.6 l 19.8,-2.5 v -7.2 l -19.8,-2.5 z m 0,57.3 h -6.7 l -1.3,-3.6 h -4.8 v 12.2 h 4.8 l 1.3,-3.6 h 6.7 v 3.6 l 19.8,-2.5 V 448 l -19.8,-2.5 z m 0,95.6 h -6.7 l -1.3,-3.6 h -4.8 v 12.2 h 4.8 l 1.3,-3.6 h 6.7 v 3.6 l 19.8,-2.5 v -7.2 l -19.8,-2.5 z m 0,19.2 h -6.7 l -1.3,-3.6 h -4.8 v 12.2 h 4.8 l 1.3,-3.6 h 6.7 v 3.6 l 19.8,-2.5 v -7.2 l -19.8,-2.5 z m 0,19.1 h -6.7 l -1.3,-3.6 h -4.8 v 12.2 h 4.8 l 1.3,-3.6 h 6.7 v 3.6 l 19.8,-2.5 v -7.2 l -19.8,-2.5 z m 0,-57.4 h -6.7 l -1.3,-3.6 h -4.8 v 12.2 h 4.8 l 1.3,-3.6 h 6.7 v 3.6 l 19.8,-2.5 v -7.2 L 404.6,522 Z m 0,-38.2 h -6.7 l -1.3,-3.6 h -4.8 V 496 h 4.8 l 1.3,-3.6 h 6.7 v 3.6 l 19.8,-2.5 v -7.2 l -19.8,-2.5 z m 0,19.1 h -6.7 l -1.3,-3.6 h -4.8 V 515 h 4.8 l 1.3,-3.6 h 6.7 v 3.6 l 19.8,-2.5 v -7.2 l -19.8,-2.5 z"
   id="path10"
   style="opacity:0.15" />

		<linearGradient
   id="linearGradient6"
   gradientUnits="userSpaceOnUse"
   x1="431.01761"
   y1="445"
   x2="431.01761"
   y2="365">
			<stop
   offset="0"
   style="stop-color:#EC008C"
   id="stop5-0" />

			<stop
   offset="1"
   style="stop-color:#F173AC"
   id="stop6-6" />

		</linearGradient>

		<polygon
   class="st10"
   points="331,365 331,445 531,445 531,425 471,365 "
   id="polygon12"
   style="fill:url(#SVGID_4_)" />

		<polygon
   class="st4"
   points="471,365 471,425 531,425 "
   id="polygon13"
   style="opacity:0.3;fill:#ffffff" />

		<text
   transform="translate(343.0132,425.0005)"
   class="st5 st6 st7 st8"
   id="text13"
   style="font-size:50px;font-family:Myriad-Bold;letter-spacing:2;fill:#ffffff">OC</text>

	</g>
  </g>
</svg>
