<?xml version="1.0" encoding="UTF-8" standalone="no"?>
<!-- Created with Inkscape (http://www.inkscape.org/) -->

<svg
   width="52.916668mm"
   height="66.145828mm"
   viewBox="0 0 52.916668 66.145828"
   version="1.1"
   id="svg1"
   inkscape:export-filename="txt.svg"
   inkscape:export-xdpi="96"
   inkscape:export-ydpi="96"
   xmlns:inkscape="http://www.inkscape.org/namespaces/inkscape"
   xmlns:sodipodi="http://sodipodi.sourceforge.net/DTD/sodipodi-0.dtd"
   xmlns="http://www.w3.org/2000/svg"
   xmlns:svg="http://www.w3.org/2000/svg">
  <sodipodi:namedview
     id="namedview1"
     pagecolor="#ffffff"
     bordercolor="#000000"
     borderopacity="0.25"
     inkscape:showpageshadow="2"
     inkscape:pageopacity="0.0"
     inkscape:pagecheckerboard="true"
     inkscape:deskcolor="#d1d1d1"
     inkscape:document-units="mm">
    <inkscape:page
       x="0"
       y="0"
       width="52.916668"
       height="66.145828"
       id="page2"
       margin="0"
       bleed="0" />
  </sodipodi:namedview>
  <defs
     id="defs1">
    <linearGradient
       id="SVGID_29_"
       gradientUnits="userSpaceOnUse"
       x1="968.98242"
       y1="305.77591"
       x2="968.98242"
       y2="55.775902">
				<stop
   offset="0"
   style="stop-color:#DCDDDE"
   id="stop100" />

				<stop
   offset="0.199"
   style="stop-color:#E3E4E5"
   id="stop101" />

				<stop
   offset="0.6062"
   style="stop-color:#EEEEEF"
   id="stop102" />

				<stop
   offset="1"
   style="stop-color:#F1F2F2"
   id="stop103" />

			</linearGradient>
    <linearGradient
       id="SVGID_30_"
       gradientUnits="userSpaceOnUse"
       x1="968.98242"
       y1="135.77589"
       x2="968.98242"
       y2="55.775902">
				<stop
   offset="0"
   style="stop-color:#C4161C"
   id="stop104" />

				<stop
   offset="1"
   style="stop-color:#ED1C24"
   id="stop105" />

			</linearGradient>
  </defs>
  <g
     inkscape:label="Шар 1"
     inkscape:groupmode="layer"
     id="layer1">
    <g
       id="g107"
       inkscape:export-filename="/files/Documents/PaperPlacer/static/filetypes/pdf.svg"
       inkscape:export-xdpi="96"
       inkscape:export-ydpi="96"
       transform="matrix(0.26458333,0,0,0.26458333,-229.92291,-14.763748)">
		<g
   id="g106">
			<linearGradient
   id="linearGradient4"
   gradientUnits="userSpaceOnUse"
   x1="968.98242"
   y1="305.77591"
   x2="968.98242"
   y2="55.775902">
				<stop
   offset="0"
   style="stop-color:#DCDDDE"
   id="stop1" />

				<stop
   offset="0.199"
   style="stop-color:#E3E4E5"
   id="stop2" />

				<stop
   offset="0.6062"
   style="stop-color:#EEEEEF"
   id="stop3" />

				<stop
   offset="1"
   style="stop-color:#F1F2F2"
   id="stop4" />

			</linearGradient>

			<polygon
   class="st38"
   points="869,305.8 869,55.8 1009,55.8 1069,115.8 1069,305.8 "
   id="polygon103"
   style="fill:url(#SVGID_29_)" />

			<linearGradient
   id="linearGradient6"
   gradientUnits="userSpaceOnUse"
   x1="968.98242"
   y1="135.77589"
   x2="968.98242"
   y2="55.775902">
				<stop
   offset="0"
   style="stop-color:#C4161C"
   id="stop5" />

				<stop
   offset="1"
   style="stop-color:#ED1C24"
   id="stop6" />

			</linearGradient>

			<polygon
   class="st39"
   points="869,55.8 869,135.8 1069,135.8 1069,115.8 1009,55.8 "
   id="polygon105"
   style="fill:url(#SVGID_30_)" />

			<polygon
   class="st4"
   points="1009,55.8 1009,115.8 1069,115.8 "
   id="polygon106"
   style="opacity:0.3;fill:#ffffff" />

			<text
   transform="translate(880.978,115.7764)"
   class="st5 st6 st7 st8"
   id="text106"
   style="font-size:50px;font-family:Myriad-Bold;letter-spacing:2;fill:#ffffff">PDF</text>

		</g>

		<path
   class="st40"
   d="m 1030.6,246.6 c 4,-8.5 -13.1,-11.4 -36.3,-8.7 -4.1,-2.3 -8,-4.9 -11.6,-7.8 -8.9,-7.3 -15.5,-19.6 -19.6,-32 1.9,-10.3 1.7,-19.1 1.9,-28.6 -0.9,4.3 -1.5,11.5 -3.9,21.8 -3.1,-12 -3.8,-23.2 -1.9,-28.8 0.4,-1.2 1.4,-2.7 1.9,-3 1.7,0.9 3.9,3 4.3,7.5 1.6,-8.3 -2.5,-8 -3.6,-8 h -2.6 c -1.4,0 -2.7,1.1 -3.3,3.4 -2.1,7.8 -1.1,21.9 3.3,36.1 -2.7,9.5 -6.9,21 -13.7,34.6 -16.6,33.4 -29.1,50.6 -37.9,50.7 -0.8,-4.2 8,-16.7 20.1,-25.8 -20.3,10.8 -24.5,23.1 -22.6,25.4 l 3.2,1.6 c 5.9,3 16,-5 31.9,-32.5 14.9,-5.4 34.8,-9.3 52.2,-11.1 17.1,9.2 36.7,12.3 37.7,6.4 -4.4,2.1 -17.1,-0.8 -30,-7 17.6,-1 30.9,0.6 30.5,5.8 z m -90.2,5.8 c 2.8,-4.8 5.7,-10.2 8.8,-16.2 6.3,-12.2 10.1,-22.1 12.3,-30.8 4.1,10.5 10,20.6 18,27.5 2.5,2.1 5.2,4.1 8.1,5.9 -15.1,2.3 -32,6.8 -47.2,13.6 z"
   id="path106"
   style="clip-rule:evenodd;opacity:0.15;fill-rule:evenodd" />

	</g>
  </g>
</svg>
