<?xml version="1.0" encoding="UTF-8" standalone="no"?>
<!-- Created with Inkscape (http://www.inkscape.org/) -->

<svg
   width="52.916668mm"
   height="66.145828mm"
   viewBox="0 0 52.916668 66.145828"
   version="1.1"
   id="svg1"
   inkscape:export-filename="pdf.svg"
   inkscape:export-xdpi="96"
   inkscape:export-ydpi="96"
   sodipodi:docname="png.svg"
   xmlns:inkscape="http://www.inkscape.org/namespaces/inkscape"
   xmlns:sodipodi="http://sodipodi.sourceforge.net/DTD/sodipodi-0.dtd"
   xmlns="http://www.w3.org/2000/svg"
   xmlns:svg="http://www.w3.org/2000/svg">
  <sodipodi:namedview
     id="namedview1"
     pagecolor="#ffffff"
     bordercolor="#000000"
     borderopacity="0.25"
     inkscape:showpageshadow="2"
     inkscape:pageopacity="0.0"
     inkscape:pagecheckerboard="true"
     inkscape:deskcolor="#d1d1d1"
     inkscape:document-units="mm">
    <inkscape:page
       x="0"
       y="0"
       width="52.916668"
       height="66.145828"
       id="page1"
       margin="0"
       bleed="0" />
  </sodipodi:namedview>
  <defs
     id="defs1">
    <linearGradient
       id="SVGID_21_"
       gradientUnits="userSpaceOnUse"
       x1="968.98242"
       y1="924.22412"
       x2="968.98242"
       y2="674.22412">
      <stop
         offset="0"
         style="stop-color:#DCDDDE"
         id="stop71" />
      <stop
         offset="0.199"
         style="stop-color:#E3E4E5"
         id="stop72" />
      <stop
         offset="0.6062"
         style="stop-color:#EEEEEF"
         id="stop73" />
      <stop
         offset="1"
         style="stop-color:#F1F2F2"
         id="stop74" />
    </linearGradient>
    <linearGradient
       id="SVGID_22_"
       gradientUnits="userSpaceOnUse"
       x1="968.98242"
       y1="754.22412"
       x2="968.98242"
       y2="674.22412">
      <stop
         offset="0"
         style="stop-color:#f06a6a;stop-opacity:1;"
         id="stop75" />
      <stop
         offset="1"
         style="stop-color:#e7a0ab;stop-opacity:1;"
         id="stop76" />
    </linearGradient>
  </defs>
  <g
     inkscape:label="Шар 1"
     inkscape:groupmode="layer"
     id="layer1">
    <g
       id="g78"
       transform="matrix(0.26458333,0,0,0.26458333,-229.92291,-178.38208)">
      <g
         id="g77">
        <linearGradient
           id="linearGradient4"
           gradientUnits="userSpaceOnUse"
           x1="968.98242"
           y1="924.22412"
           x2="968.98242"
           y2="674.22412">
          <stop
             offset="0"
             style="stop-color:#DCDDDE"
             id="stop1" />
          <stop
             offset="0.199"
             style="stop-color:#E3E4E5"
             id="stop2" />
          <stop
             offset="0.6062"
             style="stop-color:#EEEEEF"
             id="stop3" />
          <stop
             offset="1"
             style="stop-color:#F1F2F2"
             id="stop4" />
        </linearGradient>
        <polygon
           class="st30"
           points="1069,924.2 869,924.2 869,674.2 1009,674.2 1069,734.2 "
           id="polygon74"
           style="fill:url(#SVGID_21_)" />
        <linearGradient
           id="linearGradient6"
           gradientUnits="userSpaceOnUse"
           x1="968.98242"
           y1="754.22412"
           x2="968.98242"
           y2="674.22412">
          <stop
             offset="0"
             style="stop-color:#F49AC1"
             id="stop5" />
          <stop
             offset="1"
             style="stop-color:#F8C1D9"
             id="stop6" />
        </linearGradient>
        <polygon
           class="st31"
           points="1009,674.2 869,674.2 869,754.2 1069,754.2 1069,734.2 "
           id="polygon76"
           style="fill:url(#SVGID_22_)" />
        <polygon
           class="st4"
           points="1009,734.2 1069,734.2 1009,674.2 "
           id="polygon77"
           style="opacity:0.3;fill:#ffffff" />
        <text
           transform="translate(880.978,734.2246)"
           class="st5 st6 st7 st8"
           id="text77"
           style="font-size:50px;font-family:Myriad-Bold;letter-spacing:2;fill:#ffffff">SVG</text>
      </g>
      <path
         class="st2"
         d="m 999.6,893.7 h 12.3 v -12.3 h -12.3 z m -24.5,0 h 12.3 v -12.3 h -12.3 z m 0,-61.3 v -12.3 h -12.3 v 12.3 z m -36.8,12.3 V 857 h 12.3 v -12.3 z m 98.1,0 v -12.3 h -12.3 v 12.3 z m 0,-24.5 v -12.3 h -12.3 v 12.3 z m 0,49 V 857 h -12.3 v 12.3 h 12.3 z m 0,24.5 v -12.3 h -12.3 v 12.3 z m -73.5,-49 V 857 h 12.3 v -12.3 z m -61.3,49 h 12.3 V 881.4 H 901.6 Z M 938.3,783.4 H 926 v 12.3 h 12.3 z m 24.6,0 h -12.3 v 12.3 h 12.3 z m 24.5,0 h -12.3 v 12.3 h 12.3 z M 901.6,857 v 12.3 h 12.3 V 857 Z m 0,-73.6 v 12.3 h 12.3 v -12.3 z m 0,49 v 12.3 h 12.3 v -12.3 z m 110.3,-49 h -12.3 v 12.3 h 12.3 z m -85.8,110.3 h 12.3 v -12.3 h -12.3 z m 49,-49 h 12.3 v -12.3 h -12.3 z m -24.5,-12.3 v 12.3 h 12.3 v -12.3 z m -49,-24.5 v 12.3 h 12.3 v -12.3 z m 49,85.8 h 12.3 v -12.3 h -12.3 z m 0,-73.5 h -12.3 v 12.3 h 12.3 z m -36.8,49 v 12.3 h 12.3 v -12.3 z m 12.3,-24.5 H 913.8 V 857 h 12.3 z m 12.2,24.5 v 12.3 h 12.3 v -12.3 z m -12.2,-49 h -12.3 v 12.3 h 12.3 z m 0,-24.5 H 913.8 V 808 h 12.3 z m 61.3,61.3 h 12.3 v -12.3 h -12.3 z m 24.5,24.5 h 12.3 v -12.3 h -12.3 z m 0,-85.8 V 808 h 12.3 v -12.3 z m 0,36.7 h 12.3 v -12.3 h -12.3 z m 24.5,-49 h -12.3 v 12.3 h 12.3 z m -24.5,73.6 h 12.3 v -12.3 h -12.3 z m -61.3,-49.1 v -12.3 h -12.3 v 12.3 z m 36.8,61.3 v 12.3 h 12.3 v -12.3 z m -24.5,0 v 12.3 h 12.3 v -12.3 z m 12.2,-61.3 v -12.3 h -12.3 v 12.3 z m -12.2,12.3 v -12.3 h -12.3 v 12.3 z m -24.6,12.2 H 926 v 12.3 h 12.3 z m 49.1,-12.2 v -12.3 h -12.3 v 12.3 z M 926.1,857 v 12.3 h 12.3 V 857 Z m 61.3,-24.6 h 12.3 V 820.1 H 987.4 Z M 938.3,807.9 H 926 v 12.3 h 12.3 z m 61.3,12.3 h 12.3 v -12.3 h -12.3 z m 0,-12.3 v -12.3 h -12.3 v 12.3 z m 0,36.8 h 12.3 v -12.3 h -12.3 z m 0,24.5 h 12.3 V 857 h -12.3 z m -49,-12.2 v 12.3 h 12.3 V 857 Z m 24.5,0 v 12.3 h 12.3 V 857 Z"
         id="path77"
         style="display:none;opacity:0.15" />
      <path
         clip-rule="evenodd"
         d="m 1018.7987,780.42332 c -2.0691,0 -4.0886,0.61081 -5.8055,1.76089 l -27.95388,18.62681 a 103.16009,103.16009 0 0 0 -19.10006,16.43673 55.247627,55.247627 0 0 1 26.49575,26.49575 103.16559,103.16559 0 0 0 16.43669,-19.10556 l 18.6323,-27.94848 a 10.466234,10.466234 0 0 0 -8.7053,-16.26614 z m -45.67284,77.1761 a 103.23163,103.23163 0 0 0 10.43322,-6.64183 44.165087,44.165087 0 0 0 -24.83392,-24.83391 103.17659,103.17659 0 0 0 -6.64183,10.4277 l -1.52975,2.75139 a 28.944475,28.944475 0 0 1 19.81539,19.82091 l 2.76239,-1.52977 z M 942.5911,846.45635 a 20.63532,20.63532 0 0 0 -20.63533,20.63532 8.2541278,8.2541278 0 0 1 -8.8099,8.23762 4.1270638,4.1270638 0 0 0 -3.85193,6.17958 28.889446,28.889446 0 0 0 53.92697,-14.4172 20.63532,20.63532 0 0 0 -20.63532,-20.63532 z"
         fill-rule="evenodd"
         id="path1"
         style="fill:#000000;fill-opacity:0.2;stroke-width:5.50275" />
    </g>
  </g>
</svg>
