<?xml version="1.0" encoding="UTF-8" standalone="no"?>
<!-- Created with Inkscape (http://www.inkscape.org/) -->

<svg
   width="52.916668mm"
   height="66.145828mm"
   viewBox="0 0 52.916668 66.145828"
   version="1.1"
   id="svg1"
   inkscape:export-filename="css.svg"
   inkscape:export-xdpi="96"
   inkscape:export-ydpi="96"
   xmlns:inkscape="http://www.inkscape.org/namespaces/inkscape"
   xmlns:sodipodi="http://sodipodi.sourceforge.net/DTD/sodipodi-0.dtd"
   xmlns="http://www.w3.org/2000/svg"
   xmlns:svg="http://www.w3.org/2000/svg">
  <sodipodi:namedview
     id="namedview1"
     pagecolor="#ffffff"
     bordercolor="#000000"
     borderopacity="0.25"
     inkscape:showpageshadow="2"
     inkscape:pageopacity="0.0"
     inkscape:pagecheckerboard="true"
     inkscape:deskcolor="#d1d1d1"
     inkscape:document-units="mm">
    <inkscape:page
       x="0"
       y="0"
       width="52.916668"
       height="66.145828"
       id="page2"
       margin="0"
       bleed="0" />
  </sodipodi:namedview>
  <defs
     id="defs1">
    <linearGradient
       id="SVGID_1_"
       gradientUnits="userSpaceOnUse"
       x1="162.0352"
       y1="615"
       x2="162.0352"
       y2="365">
			<stop
   offset="0"
   style="stop-color:#DCDDDE"
   id="stop1" />

			<stop
   offset="0.199"
   style="stop-color:#E3E4E5"
   id="stop2" />

			<stop
   offset="0.6062"
   style="stop-color:#EEEEEF"
   id="stop3" />

			<stop
   offset="1"
   style="stop-color:#F1F2F2"
   id="stop4" />

		</linearGradient>
    <linearGradient
       id="SVGID_2_"
       gradientUnits="userSpaceOnUse"
       x1="162.0352"
       y1="445"
       x2="162.0352"
       y2="365">
			<stop
   offset="0"
   style="stop-color:#92278F"
   id="stop5" />

			<stop
   offset="1"
   style="stop-color:#A967AA"
   id="stop6" />

		</linearGradient>
  </defs>
  <g
     inkscape:label="Шар 1"
     inkscape:groupmode="layer"
     id="layer1">
    <g
       id="g7"
       transform="matrix(0.26458333,0,0,0.26458333,-16.404167,-96.572914)">
		<linearGradient
   id="linearGradient10"
   gradientUnits="userSpaceOnUse"
   x1="162.0352"
   y1="615"
   x2="162.0352"
   y2="365">
			<stop
   offset="0"
   style="stop-color:#DCDDDE"
   id="stop7" />

			<stop
   offset="0.199"
   style="stop-color:#E3E4E5"
   id="stop8" />

			<stop
   offset="0.6062"
   style="stop-color:#EEEEEF"
   id="stop9" />

			<stop
   offset="1"
   style="stop-color:#F1F2F2"
   id="stop10" />

		</linearGradient>

		<polygon
   class="st1"
   points="62,615 62,365 202,365 262,425 262,615 "
   id="polygon4"
   style="fill:url(#SVGID_1_)" />

		<path
   class="st2"
   d="m 104.5,469.6 h 12.9 c 1.4,0 2.5,-1.1 2.5,-2.5 0,-1.7 1.4,-3.2 3.1,-3.2 1.7,0 3.1,1.4 3.1,3.2 0,1.4 1.1,2.5 2.5,2.5 1.4,0 2.5,-1.1 2.5,-2.5 v -10.8 c 0,-1.4 -1.1,-2.5 -2.5,-2.5 -1.4,0 -2.5,1.1 -2.5,2.5 0,1.7 -1.4,3.1 -3.1,3.1 -1.7,0 -3.1,-1.4 -3.1,-3.1 0,-1.4 -1.1,-2.5 -2.5,-2.5 h -12.9 c -1.4,0 -2.5,1.1 -2.5,2.5 v 10.8 c 0,1.4 1.1,2.5 2.5,2.5 z m 0,115.5 h 12.9 c 1.4,0 2.5,-1.1 2.5,-2.5 0,-1.7 1.4,-3.1 3.1,-3.1 1.7,0 3.1,1.4 3.1,3.1 0,1.4 1.1,2.5 2.5,2.5 1.4,0 2.5,-1.1 2.5,-2.5 v -10.8 c 0,-1.4 -1.1,-2.5 -2.5,-2.5 -1.4,0 -2.5,1.1 -2.5,2.5 0,1.7 -1.4,3.1 -3.1,3.1 -1.7,0 -3.1,-1.4 -3.1,-3.1 0,-1.4 -1.1,-2.5 -2.5,-2.5 h -12.9 c -1.4,0 -2.5,1.1 -2.5,2.5 v 10.8 c 0,1.4 1.1,2.5 2.5,2.5 z m 0,-138.6 h 12.9 c 1.4,0 2.5,-1.1 2.5,-2.5 0,-1.7 1.4,-3.1 3.1,-3.1 1.7,0 3.1,1.4 3.1,3.1 0,1.4 1.1,2.5 2.5,2.5 1.4,0 2.5,-1.1 2.5,-2.5 v -10.8 c 0,-1.4 -1.1,-2.5 -2.5,-2.5 -1.4,0 -2.5,1.1 -2.5,2.5 0,1.7 -1.4,3.1 -3.1,3.1 -1.7,0 -3.1,-1.4 -3.1,-3.1 0,-1.4 -1.1,-2.5 -2.5,-2.5 h -12.9 c -1.4,0 -2.5,1.1 -2.5,2.5 V 444 c 0,1.4 1.1,2.5 2.5,2.5 z m 0,92.4 h 12.9 c 1.4,0 2.5,-1.1 2.5,-2.5 0,-1.7 1.4,-3.1 3.1,-3.1 1.7,0 3.1,1.4 3.1,3.1 0,1.4 1.1,2.5 2.5,2.5 1.4,0 2.5,-1.1 2.5,-2.5 v -10.8 c 0,-1.4 -1.1,-2.5 -2.5,-2.5 -1.4,0 -2.5,1.1 -2.5,2.5 0,1.7 -1.4,3.1 -3.1,3.1 -1.7,0 -3.1,-1.4 -3.1,-3.1 0,-1.4 -1.1,-2.5 -2.5,-2.5 h -12.9 c -1.4,0 -2.5,1.1 -2.5,2.5 v 10.8 c 0,1.4 1.1,2.5 2.5,2.5 z m 0,-23.1 h 12.9 c 1.4,0 2.5,-1.1 2.5,-2.5 0,-1.7 1.4,-3.2 3.1,-3.2 1.7,0 3.1,1.4 3.1,3.2 0,1.4 1.1,2.5 2.5,2.5 1.4,0 2.5,-1.1 2.5,-2.5 v -10.8 c 0,-1.4 -1.1,-2.5 -2.5,-2.5 -1.4,0 -2.5,1.1 -2.5,2.5 0,1.7 -1.4,3.1 -3.1,3.1 -1.7,0 -3.1,-1.4 -3.1,-3.1 0,-1.4 -1.1,-2.5 -2.5,-2.5 h -12.9 c -1.4,0 -2.5,1.1 -2.5,2.5 v 10.8 c 0,1.4 1.1,2.5 2.5,2.5 z m 0,-23.1 h 12.9 c 1.4,0 2.5,-1.1 2.5,-2.5 0,-1.7 1.4,-3.1 3.1,-3.1 1.7,0 3.1,1.4 3.1,3.1 0,1.4 1.1,2.5 2.5,2.5 1.4,0 2.5,-1.1 2.5,-2.5 v -10.8 c 0,-1.4 -1.1,-2.5 -2.5,-2.5 -1.4,0 -2.5,1.1 -2.5,2.5 0,1.7 -1.4,3.1 -3.1,3.1 -1.7,0 -3.1,-1.4 -3.1,-3.1 0,-1.4 -1.1,-2.5 -2.5,-2.5 h -12.9 c -1.4,0 -2.5,1.1 -2.5,2.5 v 10.8 c 0,1.4 1.1,2.5 2.5,2.5 z m 42.6,-127 c 0.7,0 1.2,-0.3 1.7,-0.7 h -16.2 c 0.4,0.4 1,0.7 1.7,0.7 z M 124.6,365 h -3.4 c 0.4,0.4 1,0.7 1.7,0.7 0.7,0 1.3,-0.3 1.7,-0.7 z m -20.1,58.4 h 12.9 c 1.4,0 2.5,-1.1 2.5,-2.5 0,-1.7 1.4,-3.1 3.1,-3.1 1.7,0 3.1,1.4 3.1,3.1 0,1.4 1.1,2.5 2.5,2.5 1.4,0 2.5,-1.1 2.5,-2.5 v -10.8 c 0,-1.4 -1.1,-2.5 -2.5,-2.5 -1.4,0 -2.5,1.1 -2.5,2.5 0,1.7 -1.4,3.2 -3.1,3.2 -1.7,0 -3.1,-1.4 -3.1,-3.2 0,-1.4 -1.1,-2.5 -2.5,-2.5 h -12.9 c -1.4,0 -2.5,1.1 -2.5,2.5 v 10.8 c 0,1.4 1.1,2.5 2.5,2.5 z m 0,-46.2 h 12.9 c 1.4,0 2.5,-1.1 2.5,-2.5 0,-1.7 1.4,-3.1 3.1,-3.1 1.7,0 3.1,1.4 3.1,3.1 0,1.4 1.1,2.5 2.5,2.5 1.4,0 2.5,-1.1 2.5,-2.5 V 365 H 126 c -0.4,1.2 -1.6,2.1 -3,2.1 -1.4,0 -2.5,-0.9 -3,-2.1 h -18 v 9.7 c 0,1.4 1.1,2.5 2.5,2.5 z m 0,23.1 h 12.9 c 1.4,0 2.5,-1.1 2.5,-2.5 0,-1.7 1.4,-3.1 3.1,-3.1 1.7,0 3.1,1.4 3.1,3.1 0,1.4 1.1,2.5 2.5,2.5 1.4,0 2.5,-1.1 2.5,-2.5 V 387 c 0,-1.4 -1.1,-2.5 -2.5,-2.5 -1.4,0 -2.5,1.1 -2.5,2.5 0,1.7 -1.4,3.1 -3.1,3.1 -1.7,0 -3.1,-1.4 -3.1,-3.1 0,-1.4 -1.1,-2.5 -2.5,-2.5 h -12.9 c -1.4,0 -2.5,1.1 -2.5,2.5 v 10.8 c 0,1.4 1.1,2.5 2.5,2.5 z m 0,161.7 h 12.9 c 1.4,0 2.5,-1.1 2.5,-2.5 0,-1.7 1.4,-3.2 3.1,-3.2 1.7,0 3.1,1.4 3.1,3.2 0,1.4 1.1,2.5 2.5,2.5 1.4,0 2.5,-1.1 2.5,-2.5 v -10.8 c 0,-1.4 -1.1,-2.5 -2.5,-2.5 -1.4,0 -2.5,1.1 -2.5,2.5 0,1.7 -1.4,3.1 -3.1,3.1 -1.7,0 -3.1,-1.4 -3.1,-3.1 0,-1.4 -1.1,-2.5 -2.5,-2.5 h -12.9 c -1.4,0 -2.5,1.1 -2.5,2.5 v 10.8 c 0,1.4 1.1,2.5 2.5,2.5 z m 42.6,-119.7 h -12.9 c -1.4,0 -2.5,1.1 -2.5,2.5 0,1.7 -1.4,3.1 -3.1,3.1 -1.7,0 -3.2,-1.4 -3.2,-3.1 0,-1.4 -1.1,-2.5 -2.5,-2.5 -1.4,0 -2.5,1.1 -2.5,2.5 v 10.8 c 0,1.4 1.1,2.5 2.5,2.5 1.4,0 2.5,-1.1 2.5,-2.5 0,-1.7 1.4,-3.1 3.2,-3.1 1.7,0 3.1,1.4 3.1,3.1 0,1.4 1.1,2.5 2.5,2.5 h 12.9 c 1.4,0 2.5,-1.1 2.5,-2.5 v -10.8 c 0,-1.4 -1.2,-2.5 -2.5,-2.5 z M 123,602.6 c 1.7,0 3.1,1.4 3.1,3.1 0,1.4 1.1,2.5 2.5,2.5 1.4,0 2.5,-1.1 2.5,-2.5 v -10.8 c 0,-1.4 -1.1,-2.5 -2.5,-2.5 -1.4,0 -2.5,1.1 -2.5,2.5 0,1.7 -1.4,3.1 -3.1,3.1 -1.7,0 -3.1,-1.4 -3.1,-3.1 0,-1.4 -1.1,-2.5 -2.5,-2.5 h -12.9 c -1.4,0 -2.5,1.1 -2.5,2.5 v 10.8 c 0,1.4 1.1,2.5 2.5,2.5 h 12.9 c 1.4,0 2.5,-1.1 2.5,-2.5 0,-1.7 1.4,-3.1 3.1,-3.1 z m 24.1,-137.2 h -12.9 c -1.4,0 -2.5,1.1 -2.5,2.5 0,1.7 -1.4,3.1 -3.1,3.1 -1.7,0 -3.2,-1.4 -3.2,-3.1 0,-1.4 -1.1,-2.5 -2.5,-2.5 -1.4,0 -2.5,1.1 -2.5,2.5 v 10.8 c 0,1.4 1.1,2.5 2.5,2.5 1.4,0 2.5,-1.1 2.5,-2.5 0,-1.7 1.4,-3.1 3.2,-3.1 1.7,0 3.1,1.4 3.1,3.1 0,1.4 1.1,2.5 2.5,2.5 h 12.9 c 1.4,0 2.5,-1.1 2.5,-2.5 v -10.8 c 0,-1.4 -1.2,-2.5 -2.5,-2.5 z m 0,23.1 h -12.9 c -1.4,0 -2.5,1.1 -2.5,2.5 0,1.7 -1.4,3.2 -3.1,3.2 -1.7,0 -3.2,-1.4 -3.2,-3.2 0,-1.4 -1.1,-2.5 -2.5,-2.5 -1.4,0 -2.5,1.1 -2.5,2.5 v 10.8 c 0,1.4 1.1,2.5 2.5,2.5 1.4,0 2.5,-1.1 2.5,-2.5 0,-1.7 1.4,-3.1 3.2,-3.1 1.7,0 3.1,1.4 3.1,3.1 0,1.4 1.1,2.5 2.5,2.5 h 12.9 c 1.4,0 2.5,-1.1 2.5,-2.5 V 491 c 0,-1.4 -1.2,-2.5 -2.5,-2.5 z m 0,-115.5 h -12.9 c -1.4,0 -2.5,1.1 -2.5,2.5 0,1.7 -1.4,3.1 -3.1,3.1 -1.7,0 -3.2,-1.4 -3.2,-3.1 0,-1.4 -1.1,-2.5 -2.5,-2.5 -1.4,0 -2.5,1.1 -2.5,2.5 v 10.8 c 0,1.4 1.1,2.5 2.5,2.5 1.4,0 2.5,-1.1 2.5,-2.5 0,-1.7 1.4,-3.2 3.2,-3.2 1.7,0 3.1,1.4 3.1,3.2 0,1.4 1.1,2.5 2.5,2.5 h 12.9 c 1.4,0 2.5,-1.1 2.5,-2.5 v -10.8 c 0,-1.4 -1.2,-2.5 -2.5,-2.5 z m 0,23.1 h -12.9 c -1.4,0 -2.5,1.1 -2.5,2.5 0,1.7 -1.4,3.1 -3.1,3.1 -1.7,0 -3.2,-1.4 -3.2,-3.1 0,-1.4 -1.1,-2.5 -2.5,-2.5 -1.4,0 -2.5,1.1 -2.5,2.5 v 10.8 c 0,1.4 1.1,2.5 2.5,2.5 1.4,0 2.5,-1.1 2.5,-2.5 0,-1.7 1.4,-3.1 3.2,-3.1 1.7,0 3.1,1.4 3.1,3.1 0,1.4 1.1,2.5 2.5,2.5 h 12.9 c 1.4,0 2.5,-1.1 2.5,-2.5 v -10.8 c 0,-1.4 -1.2,-2.5 -2.5,-2.5 z m 0,23.1 h -12.9 c -1.4,0 -2.5,1.1 -2.5,2.5 0,1.7 -1.4,3.1 -3.1,3.1 -1.7,0 -3.2,-1.4 -3.2,-3.1 0,-1.4 -1.1,-2.5 -2.5,-2.5 -1.4,0 -2.5,1.1 -2.5,2.5 v 10.8 c 0,1.4 1.1,2.5 2.5,2.5 1.4,0 2.5,-1.1 2.5,-2.5 0,-1.7 1.4,-3.1 3.2,-3.1 1.7,0 3.1,1.4 3.1,3.1 0,1.4 1.1,2.5 2.5,2.5 h 12.9 c 1.4,0 2.5,-1.1 2.5,-2.5 v -10.8 c 0,-1.4 -1.2,-2.5 -2.5,-2.5 z m 0,184.8 h -12.9 c -1.4,0 -2.5,1.1 -2.5,2.5 0,1.7 -1.4,3.1 -3.1,3.1 -1.7,0 -3.2,-1.4 -3.2,-3.1 0,-1.4 -1.1,-2.5 -2.5,-2.5 -1.4,0 -2.5,1.1 -2.5,2.5 v 8.5 h 6 c 0.6,-0.5 1.3,-0.9 2.1,-0.9 0.8,0 1.6,0.3 2.1,0.9 h 18.8 v -8.5 c 0.2,-1.4 -1,-2.5 -2.3,-2.5 z m 0,-23.1 h -12.9 c -1.4,0 -2.5,1.1 -2.5,2.5 0,1.7 -1.4,3.2 -3.1,3.2 -1.7,0 -3.2,-1.4 -3.2,-3.2 0,-1.4 -1.1,-2.5 -2.5,-2.5 -1.4,0 -2.5,1.1 -2.5,2.5 v 10.8 c 0,1.4 1.1,2.5 2.5,2.5 1.4,0 2.5,-1.1 2.5,-2.5 0,-1.7 1.4,-3.1 3.2,-3.1 1.7,0 3.1,1.4 3.1,3.1 0,1.4 1.1,2.5 2.5,2.5 h 12.9 c 1.4,0 2.5,-1.1 2.5,-2.5 v -10.8 c 0,-1.4 -1.2,-2.5 -2.5,-2.5 z m 0,-23.1 h -12.9 c -1.4,0 -2.5,1.1 -2.5,2.5 0,1.7 -1.4,3.1 -3.1,3.1 -1.7,0 -3.2,-1.4 -3.2,-3.1 0,-1.4 -1.1,-2.5 -2.5,-2.5 -1.4,0 -2.5,1.1 -2.5,2.5 v 10.8 c 0,1.4 1.1,2.5 2.5,2.5 1.4,0 2.5,-1.1 2.5,-2.5 0,-1.7 1.4,-3.1 3.2,-3.1 1.7,0 3.1,1.4 3.1,3.1 0,1.4 1.1,2.5 2.5,2.5 h 12.9 c 1.4,0 2.5,-1.1 2.5,-2.5 v -10.8 c 0,-1.4 -1.2,-2.5 -2.5,-2.5 z m 0,-46.2 h -12.9 c -1.4,0 -2.5,1.1 -2.5,2.5 0,1.7 -1.4,3.1 -3.1,3.1 -1.7,0 -3.2,-1.4 -3.2,-3.1 0,-1.4 -1.1,-2.5 -2.5,-2.5 -1.4,0 -2.5,1.1 -2.5,2.5 v 10.8 c 0,1.4 1.1,2.5 2.5,2.5 1.4,0 2.5,-1.1 2.5,-2.5 0,-1.7 1.4,-3.1 3.2,-3.1 1.7,0 3.1,1.4 3.1,3.1 0,1.4 1.1,2.5 2.5,2.5 h 12.9 c 1.4,0 2.5,-1.1 2.5,-2.5 v -10.8 c 0,-1.4 -1.2,-2.5 -2.5,-2.5 z m 0,23.1 h -12.9 c -1.4,0 -2.5,1.1 -2.5,2.5 0,1.7 -1.4,3.2 -3.1,3.2 -1.7,0 -3.2,-1.4 -3.2,-3.2 0,-1.4 -1.1,-2.5 -2.5,-2.5 -1.4,0 -2.5,1.1 -2.5,2.5 V 548 c 0,1.4 1.1,2.5 2.5,2.5 1.4,0 2.5,-1.1 2.5,-2.5 0,-1.7 1.4,-3.1 3.2,-3.1 1.7,0 3.1,1.4 3.1,3.1 0,1.4 1.1,2.5 2.5,2.5 h 12.9 c 1.4,0 2.5,-1.1 2.5,-2.5 v -10.8 c 0,-1.4 -1.2,-2.5 -2.5,-2.5 z"
   id="path4"
   style="opacity:0.15" />

		<linearGradient
   id="linearGradient12"
   gradientUnits="userSpaceOnUse"
   x1="162.0352"
   y1="445"
   x2="162.0352"
   y2="365">
			<stop
   offset="0"
   style="stop-color:#92278F"
   id="stop11" />

			<stop
   offset="1"
   style="stop-color:#A967AA"
   id="stop12" />

		</linearGradient>

		<polygon
   class="st3"
   points="62,365 62,445 262,445 262,425 202,365 "
   id="polygon6"
   style="fill:url(#SVGID_2_)" />

		<polygon
   class="st4"
   points="202,365 202,425 262,425 "
   id="polygon7"
   style="opacity:0.3;fill:#ffffff" />

		<text
   transform="translate(74.0308,425.0005)"
   class="st5 st6 st7 st8"
   id="text7"
   style="font-size:50px;font-family:Myriad-Bold;letter-spacing:2;fill:#ffffff">ZIP</text>

	</g>
  </g>
</svg>
