<?xml version="1.0" encoding="UTF-8" standalone="no"?>
<!-- Created with Inkscape (http://www.inkscape.org/) -->

<svg
   width="325.99997"
   height="230.5"
   viewBox="0 0 86.254156 60.986458"
   version="1.1"
   id="svg1"
   xmlns="http://www.w3.org/2000/svg"
   xmlns:svg="http://www.w3.org/2000/svg">
  <defs
     id="defs1" />
  <g
     id="layer1"
     transform="translate(-10.451041,-9.2604157)">
    <rect
       style="fill:#fa9f1c;fill-opacity:1;stroke:#ac6108;stroke-width:0.264583;stroke-linejoin:round;stroke-dasharray:none;stroke-dashoffset:26;stroke-opacity:1;paint-order:markers fill stroke"
       id="rect1"
       width="85.989578"
       height="54.239582"
       x="10.583333"
       y="15.874999"
       ry="6.0266204" />
    <path
       clip-rule="evenodd"
       d="m 14.552083,23.55264 c 0,-0.587375 0.476249,-1.063057 1.063071,-1.063057 h 9.780129 c 0.5868,0 1.06305,0.476249 1.06305,1.063057 v 7.228796 c 0,0.586808 -0.47625,1.063058 -1.06305,1.063058 h -9.780129 a 1.0630581,1.0630581 0 0 1 -1.063071,-1.063058 z m 11.055814,2.126116 a 0.21261161,0.21261161 0 0 0 -0.212571,-0.212613 h -4.252243 a 0.21261161,0.21261161 0 0 0 -0.212572,0.212613 v 0.850447 c 0,0.117364 0.09514,0.212615 0.212572,0.212615 h 4.252243 a 0.21261161,0.21261161 0 0 0 0.212571,-0.212615 z m 0,2.126116 a 0.21261161,0.21261161 0 0 0 -0.212571,-0.212615 h -4.252243 a 0.21261161,0.21261161 0 0 0 -0.212572,0.212615 v 0.850446 c 0,0.117364 0.09514,0.212615 0.212572,0.212615 h 4.252243 a 0.21261161,0.21261161 0 0 0 0.212571,-0.212615 z m 0,2.126116 a 0.21261161,0.21261161 0 0 0 -0.212571,-0.212613 h -4.252243 a 0.21261161,0.21261161 0 0 0 -0.212572,0.212613 v 0.850448 c 0,0.117364 0.09514,0.212614 0.212572,0.212614 h 4.252243 a 0.21261161,0.21261161 0 0 0 0.212571,-0.212614 z m -5.740521,1.063059 a 0.21261161,0.21261161 0 0 0 0.212572,-0.212614 v -0.850446 a 0.21261161,0.21261161 0 0 0 -0.212572,-0.212615 h -4.252222 a 0.21261161,0.21261161 0 0 0 -0.212571,0.212615 v 0.850446 c 0,0.117365 0.09514,0.212614 0.212571,0.212614 z m -4.252222,-2.126116 h 4.252222 a 0.21261161,0.21261161 0 0 0 0.212572,-0.212615 V 27.80487 a 0.21261161,0.21261161 0 0 0 -0.212572,-0.212614 h -4.252222 a 0.21261161,0.21261161 0 0 0 -0.212571,0.212614 v 0.850446 c 0,0.117364 0.09514,0.212615 0.212571,0.212615 z m 0,-2.126116 h 4.252222 a 0.21261161,0.21261161 0 0 0 0.212572,-0.212614 V 25.678755 A 0.21261161,0.21261161 0 0 0 19.867376,25.46614 h -4.252222 a 0.21261161,0.21261161 0 0 0 -0.212571,0.212615 v 0.850446 c 0,0.117364 0.09514,0.212614 0.212571,0.212614 z"
       fill-rule="evenodd"
       id="path1-0-1"
       style="fill:#fff4dd;fill-opacity:1;stroke-width:0.566963" />
    <path
       clip-rule="evenodd"
       d="m 14.552083,40.750557 c 0,-0.587375 0.476249,-1.063057 1.063071,-1.063057 h 9.780129 c 0.5868,0 1.06305,0.476249 1.06305,1.063057 v 7.228796 c 0,0.586808 -0.47625,1.063058 -1.06305,1.063058 h -9.780129 a 1.0630581,1.0630581 0 0 1 -1.063071,-1.063058 z m 11.055814,2.126116 A 0.21261162,0.21261162 0 0 0 25.395326,42.66406 h -4.252243 a 0.21261162,0.21261162 0 0 0 -0.212572,0.212613 v 0.850447 c 0,0.117364 0.09514,0.212615 0.212572,0.212615 h 4.252243 a 0.21261162,0.21261162 0 0 0 0.212571,-0.212615 z m 0,2.126116 a 0.21261162,0.21261162 0 0 0 -0.212571,-0.212615 h -4.252243 a 0.21261162,0.21261162 0 0 0 -0.212572,0.212615 v 0.850446 c 0,0.117364 0.09514,0.212615 0.212572,0.212615 h 4.252243 a 0.21261162,0.21261162 0 0 0 0.212571,-0.212615 z m 0,2.126116 a 0.21261162,0.21261162 0 0 0 -0.212571,-0.212613 h -4.252243 a 0.21261162,0.21261162 0 0 0 -0.212572,0.212613 v 0.850448 c 0,0.117364 0.09514,0.212614 0.212572,0.212614 h 4.252243 a 0.21261162,0.21261162 0 0 0 0.212571,-0.212614 z m -5.740521,1.063059 a 0.21261162,0.21261162 0 0 0 0.212572,-0.212614 v -0.850446 a 0.21261162,0.21261162 0 0 0 -0.212572,-0.212615 h -4.252222 a 0.21261162,0.21261162 0 0 0 -0.212571,0.212615 v 0.850446 c 0,0.117365 0.09514,0.212614 0.212571,0.212614 z m -4.252222,-2.126116 h 4.252222 a 0.21261162,0.21261162 0 0 0 0.212572,-0.212615 v -0.850446 a 0.21261162,0.21261162 0 0 0 -0.212572,-0.212614 h -4.252222 a 0.21261162,0.21261162 0 0 0 -0.212571,0.212614 v 0.850446 c 0,0.117364 0.09514,0.212615 0.212571,0.212615 z m 0,-2.126116 h 4.252222 a 0.21261162,0.21261162 0 0 0 0.212572,-0.212614 v -0.850446 a 0.21261162,0.21261162 0 0 0 -0.212572,-0.212615 h -4.252222 a 0.21261162,0.21261162 0 0 0 -0.212571,0.212615 v 0.850446 c 0,0.117364 0.09514,0.212614 0.212571,0.212614 z"
       fill-rule="evenodd"
       id="path1-0-1-4"
       style="fill:#ffeec9;fill-opacity:1;stroke-width:0.566963" />
    <path
       d="m 17.611328,9.2604164 c -0.228424,0 -0.413411,0.1852083 -0.413411,0.4134114 v 0.1653646 c 0,0.2284236 0.185208,0.4134106 0.413411,0.4134106 h 3.803385 c 0.228204,0 0.413412,-0.185208 0.413412,-0.4134106 V 9.6738278 c 0,-0.2284236 -0.185208,-0.4134114 -0.413412,-0.4134114 z"
       id="path1-6"
       style="fill:#ac6108;fill-opacity:1;stroke-width:0.220486" />
    <path
       clip-rule="evenodd"
       d="m 17.547828,10.583333 0.119063,2.023179 a 0.66145828,0.66145828 0 0 0 0.659914,0.622654 h 2.371769 a 0.66145828,0.66145828 0 0 0 0.660356,-0.622654 l 0.119283,-2.023179 z m 1.358855,0.826822 a 0.16536457,0.16536457 0 0 1 0.165365,-0.165364 h 0.881945 a 0.1653646,0.1653646 0 0 1 0,0.330729 h -0.881945 a 0.16536457,0.16536457 0 0 1 -0.165365,-0.165365 z"
       fill-rule="evenodd"
       id="path2"
       style="fill:#ac6108;fill-opacity:1;stroke-width:0.220486" />
    <path
       clip-rule="evenodd"
       d="m 14.552083,57.948473 c 0,-0.587375 0.476249,-1.063057 1.063071,-1.063057 h 9.780129 c 0.5868,0 1.06305,0.476249 1.06305,1.063057 v 7.228796 c 0,0.586808 -0.47625,1.063058 -1.06305,1.063058 h -9.780129 a 1.0630581,1.0630581 0 0 1 -1.063071,-1.063058 z m 11.055814,2.126116 a 0.21261162,0.21261162 0 0 0 -0.212571,-0.212613 h -4.252243 a 0.21261162,0.21261162 0 0 0 -0.212572,0.212613 v 0.850447 c 0,0.117364 0.09514,0.212615 0.212572,0.212615 h 4.252243 a 0.21261162,0.21261162 0 0 0 0.212571,-0.212615 z m 0,2.126116 A 0.21261162,0.21261162 0 0 0 25.395326,61.98809 h -4.252243 a 0.21261162,0.21261162 0 0 0 -0.212572,0.212615 v 0.850446 c 0,0.117364 0.09514,0.212615 0.212572,0.212615 h 4.252243 a 0.21261162,0.21261162 0 0 0 0.212571,-0.212615 z m 0,2.126116 a 0.21261162,0.21261162 0 0 0 -0.212571,-0.212613 h -4.252243 a 0.21261162,0.21261162 0 0 0 -0.212572,0.212613 v 0.850448 c 0,0.117364 0.09514,0.212614 0.212572,0.212614 h 4.252243 a 0.21261162,0.21261162 0 0 0 0.212571,-0.212614 z m -5.740521,1.063059 a 0.21261162,0.21261162 0 0 0 0.212572,-0.212614 V 64.32682 a 0.21261162,0.21261162 0 0 0 -0.212572,-0.212615 h -4.252222 a 0.21261162,0.21261162 0 0 0 -0.212571,0.212615 v 0.850446 c 0,0.117365 0.09514,0.212614 0.212571,0.212614 z m -4.252222,-2.126116 h 4.252222 a 0.21261162,0.21261162 0 0 0 0.212572,-0.212615 v -0.850446 a 0.21261162,0.21261162 0 0 0 -0.212572,-0.212614 h -4.252222 a 0.21261162,0.21261162 0 0 0 -0.212571,0.212614 v 0.850446 c 0,0.117364 0.09514,0.212615 0.212571,0.212615 z m 0,-2.126116 h 4.252222 a 0.21261162,0.21261162 0 0 0 0.212572,-0.212614 v -0.850446 a 0.21261162,0.21261162 0 0 0 -0.212572,-0.212615 h -4.252222 a 0.21261162,0.21261162 0 0 0 -0.212571,0.212615 v 0.850446 c 0,0.117364 0.09514,0.212614 0.212571,0.212614 z"
       fill-rule="evenodd"
       id="path1-0-1-0"
       style="fill:#ffeec9;fill-opacity:1;stroke-width:0.566963" />
    <rect
       style="fill:#f1dc07;fill-opacity:1;stroke:#b5a125;stroke-width:0.264583;stroke-linejoin:round;stroke-dasharray:none;stroke-dashoffset:26;stroke-opacity:1;paint-order:markers fill stroke"
       id="rect2"
       width="39.687504"
       height="46.302082"
       x="52.916664"
       y="19.84375"
       ry="3.9687493" />
    <rect
       style="fill:#71b8e9;fill-opacity:1;stroke:#3580bb;stroke-width:0.264583;stroke-linejoin:round;stroke-dasharray:none;stroke-dashoffset:26;stroke-opacity:1;paint-order:markers fill stroke"
       id="rect3"
       width="21.166668"
       height="46.302082"
       x="29.104166"
       y="19.84375"
       ry="3.9687493" />
    <path
       clip-rule="evenodd"
       d="m 33.734375,40.750556 c 0,-0.587375 0.476249,-1.063057 1.063071,-1.063057 h 9.780129 c 0.5868,0 1.06305,0.476249 1.06305,1.063057 v 7.228796 c 0,0.586808 -0.47625,1.063058 -1.06305,1.063058 h -9.780129 a 1.0630581,1.0630581 0 0 1 -1.063071,-1.063058 z m 11.055814,2.126116 a 0.21261161,0.21261161 0 0 0 -0.212571,-0.212613 h -4.252243 a 0.21261161,0.21261161 0 0 0 -0.212572,0.212613 v 0.850447 c 0,0.117364 0.09514,0.212615 0.212572,0.212615 h 4.252243 a 0.21261161,0.21261161 0 0 0 0.212571,-0.212615 z m 0,2.126116 a 0.21261161,0.21261161 0 0 0 -0.212571,-0.212615 h -4.252243 a 0.21261161,0.21261161 0 0 0 -0.212572,0.212615 v 0.850446 c 0,0.117364 0.09514,0.212615 0.212572,0.212615 h 4.252243 a 0.21261161,0.21261161 0 0 0 0.212571,-0.212615 z m 0,2.126116 a 0.21261161,0.21261161 0 0 0 -0.212571,-0.212613 h -4.252243 a 0.21261161,0.21261161 0 0 0 -0.212572,0.212613 v 0.850448 c 0,0.117364 0.09514,0.212614 0.212572,0.212614 h 4.252243 a 0.21261161,0.21261161 0 0 0 0.212571,-0.212614 z m -5.740521,1.063059 a 0.21261161,0.21261161 0 0 0 0.212572,-0.212614 v -0.850446 a 0.21261161,0.21261161 0 0 0 -0.212572,-0.212615 h -4.252222 a 0.21261161,0.21261161 0 0 0 -0.212571,0.212615 v 0.850446 c 0,0.117365 0.09514,0.212614 0.212571,0.212614 z m -4.252222,-2.126116 h 4.252222 a 0.21261161,0.21261161 0 0 0 0.212572,-0.212615 v -0.850446 a 0.21261161,0.21261161 0 0 0 -0.212572,-0.212614 h -4.252222 a 0.21261161,0.21261161 0 0 0 -0.212571,0.212614 v 0.850446 c 0,0.117364 0.09514,0.212615 0.212571,0.212615 z m 0,-2.126116 h 4.252222 a 0.21261161,0.21261161 0 0 0 0.212572,-0.212614 v -0.850446 a 0.21261161,0.21261161 0 0 0 -0.212572,-0.212615 h -4.252222 a 0.21261161,0.21261161 0 0 0 -0.212571,0.212615 v 0.850446 c 0,0.117364 0.09514,0.212614 0.212571,0.212614 z"
       fill-rule="evenodd"
       id="path1-0-1-7"
       style="fill:#f1f9fc;fill-opacity:1;stroke-width:0.566963" />
    <path
       clip-rule="evenodd"
       d="m 33.734375,55.208144 c 0,-0.587375 0.476249,-1.063057 1.063071,-1.063057 h 9.780129 c 0.5868,0 1.06305,0.476249 1.06305,1.063057 v 7.228796 c 0,0.586808 -0.47625,1.063058 -1.06305,1.063058 H 34.797446 A 1.0630581,1.0630581 0 0 1 33.734375,62.43694 Z m 11.055814,2.126116 a 0.21261161,0.21261161 0 0 0 -0.212571,-0.212613 h -4.252243 a 0.21261161,0.21261161 0 0 0 -0.212572,0.212613 v 0.850447 c 0,0.117364 0.09514,0.212615 0.212572,0.212615 h 4.252243 a 0.21261161,0.21261161 0 0 0 0.212571,-0.212615 z m 0,2.126116 a 0.21261161,0.21261161 0 0 0 -0.212571,-0.212615 h -4.252243 a 0.21261161,0.21261161 0 0 0 -0.212572,0.212615 v 0.850446 c 0,0.117364 0.09514,0.212615 0.212572,0.212615 h 4.252243 a 0.21261161,0.21261161 0 0 0 0.212571,-0.212615 z m 0,2.126116 a 0.21261161,0.21261161 0 0 0 -0.212571,-0.212613 h -4.252243 a 0.21261161,0.21261161 0 0 0 -0.212572,0.212613 v 0.850448 c 0,0.117364 0.09514,0.212614 0.212572,0.212614 h 4.252243 a 0.21261161,0.21261161 0 0 0 0.212571,-0.212614 z m -5.740521,1.063059 a 0.21261161,0.21261161 0 0 0 0.212572,-0.212614 v -0.850446 a 0.21261161,0.21261161 0 0 0 -0.212572,-0.212615 h -4.252222 a 0.21261161,0.21261161 0 0 0 -0.212571,0.212615 v 0.850446 c 0,0.117365 0.09514,0.212614 0.212571,0.212614 z m -4.252222,-2.126116 h 4.252222 A 0.21261161,0.21261161 0 0 0 39.26224,60.31082 V 59.460374 A 0.21261161,0.21261161 0 0 0 39.049668,59.24776 h -4.252222 a 0.21261161,0.21261161 0 0 0 -0.212571,0.212614 v 0.850446 c 0,0.117364 0.09514,0.212615 0.212571,0.212615 z m 0,-2.126116 h 4.252222 a 0.21261161,0.21261161 0 0 0 0.212572,-0.212614 v -0.850446 a 0.21261161,0.21261161 0 0 0 -0.212572,-0.212615 h -4.252222 a 0.21261161,0.21261161 0 0 0 -0.212571,0.212615 v 0.850446 c 0,0.117364 0.09514,0.212614 0.212571,0.212614 z"
       fill-rule="evenodd"
       id="path1-0-1-7-4"
       style="fill:#e4f4fa;fill-opacity:1;stroke-width:0.566963" />
    <path
       clip-rule="evenodd"
       d="m 75.40625,27.426895 c 0,-0.587375 0.476249,-1.063057 1.063071,-1.063057 h 9.780129 c 0.5868,0 1.06305,0.476249 1.06305,1.063057 v 7.228796 c 0,0.586808 -0.47625,1.063058 -1.06305,1.063058 H 76.469321 A 1.0630581,1.0630581 0 0 1 75.40625,34.655691 Z m 11.055814,2.126116 A 0.21261161,0.21261161 0 0 0 86.249493,29.340398 H 81.99725 a 0.21261161,0.21261161 0 0 0 -0.212572,0.212613 v 0.850447 c 0,0.117364 0.09514,0.212615 0.212572,0.212615 h 4.252243 a 0.21261161,0.21261161 0 0 0 0.212571,-0.212615 z m 0,2.126116 A 0.21261161,0.21261161 0 0 0 86.249493,31.466512 H 81.99725 a 0.21261161,0.21261161 0 0 0 -0.212572,0.212615 v 0.850446 c 0,0.117364 0.09514,0.212615 0.212572,0.212615 h 4.252243 a 0.21261161,0.21261161 0 0 0 0.212571,-0.212615 z m 0,2.126116 A 0.21261161,0.21261161 0 0 0 86.249493,33.59263 H 81.99725 a 0.21261161,0.21261161 0 0 0 -0.212572,0.212613 v 0.850448 c 0,0.117364 0.09514,0.212614 0.212572,0.212614 h 4.252243 a 0.21261161,0.21261161 0 0 0 0.212571,-0.212614 z m -5.740521,1.063059 a 0.21261161,0.21261161 0 0 0 0.212572,-0.212614 v -0.850446 a 0.21261161,0.21261161 0 0 0 -0.212572,-0.212615 h -4.252222 a 0.21261161,0.21261161 0 0 0 -0.212571,0.212615 v 0.850446 c 0,0.117365 0.09514,0.212614 0.212571,0.212614 z m -4.252222,-2.126116 h 4.252222 a 0.21261161,0.21261161 0 0 0 0.212572,-0.212615 v -0.850446 a 0.21261161,0.21261161 0 0 0 -0.212572,-0.212614 h -4.252222 a 0.21261161,0.21261161 0 0 0 -0.212571,0.212614 v 0.850446 c 0,0.117364 0.09514,0.212615 0.212571,0.212615 z m 0,-2.126116 h 4.252222 a 0.21261161,0.21261161 0 0 0 0.212572,-0.212614 V 29.55301 A 0.21261161,0.21261161 0 0 0 80.721543,29.340395 H 76.469321 A 0.21261161,0.21261161 0 0 0 76.25675,29.55301 v 0.850446 c 0,0.117364 0.09514,0.212614 0.212571,0.212614 z"
       fill-rule="evenodd"
       id="path1-0-1-6"
       style="fill:#fffef4;fill-opacity:1;stroke-width:0.566963" />
    <path
       clip-rule="evenodd"
       d="m 75.40625,41.978978 c 0,-0.587375 0.476249,-1.063057 1.063071,-1.063057 h 9.780129 c 0.5868,0 1.06305,0.476249 1.06305,1.063057 v 7.228796 c 0,0.586808 -0.47625,1.063058 -1.06305,1.063058 H 76.469321 A 1.0630581,1.0630581 0 0 1 75.40625,49.207774 Z m 11.055814,2.126116 A 0.21261161,0.21261161 0 0 0 86.249493,43.892481 H 81.99725 a 0.21261161,0.21261161 0 0 0 -0.212572,0.212613 v 0.850447 c 0,0.117364 0.09514,0.212615 0.212572,0.212615 h 4.252243 a 0.21261161,0.21261161 0 0 0 0.212571,-0.212615 z m 0,2.126116 A 0.21261161,0.21261161 0 0 0 86.249493,46.018595 H 81.99725 a 0.21261161,0.21261161 0 0 0 -0.212572,0.212615 v 0.850446 c 0,0.117364 0.09514,0.212615 0.212572,0.212615 h 4.252243 a 0.21261161,0.21261161 0 0 0 0.212571,-0.212615 z m 0,2.126116 A 0.21261161,0.21261161 0 0 0 86.249493,48.144713 H 81.99725 a 0.21261161,0.21261161 0 0 0 -0.212572,0.212613 v 0.850448 c 0,0.117364 0.09514,0.212614 0.212572,0.212614 h 4.252243 a 0.21261161,0.21261161 0 0 0 0.212571,-0.212614 z m -5.740521,1.063059 a 0.21261161,0.21261161 0 0 0 0.212572,-0.212614 V 48.357325 A 0.21261161,0.21261161 0 0 0 80.721543,48.14471 h -4.252222 a 0.21261161,0.21261161 0 0 0 -0.212571,0.212615 v 0.850446 c 0,0.117365 0.09514,0.212614 0.212571,0.212614 z m -4.252222,-2.126116 h 4.252222 a 0.21261161,0.21261161 0 0 0 0.212572,-0.212615 v -0.850446 a 0.21261161,0.21261161 0 0 0 -0.212572,-0.212614 h -4.252222 a 0.21261161,0.21261161 0 0 0 -0.212571,0.212614 v 0.850446 c 0,0.117364 0.09514,0.212615 0.212571,0.212615 z m 0,-2.126116 h 4.252222 a 0.21261161,0.21261161 0 0 0 0.212572,-0.212614 v -0.850446 a 0.21261161,0.21261161 0 0 0 -0.212572,-0.212615 h -4.252222 a 0.21261161,0.21261161 0 0 0 -0.212571,0.212615 v 0.850446 c 0,0.117364 0.09514,0.212614 0.212571,0.212614 z"
       fill-rule="evenodd"
       id="path1-0-1-6-4"
       style="fill:#fffcda;fill-opacity:1;stroke-width:0.566963" />
    <path
       d="m 43.467262,34.395832 a 1.5119049,1.5119049 0 0 0 1.511904,-1.511906 V 30.61607 a 1.5119049,1.5119049 0 0 0 -1.511904,-1.511905 h -7.559524 a 1.5119049,1.5119049 0 0 0 -1.511905,1.511905 v 2.267856 a 1.5119049,1.5119049 0 0 0 1.511905,1.511906 z m -9.071429,-5.470071 v -2.089453 a 1.5119049,1.5119049 0 0 1 1.511905,-1.511905 h 2.710857 a 1.1339286,1.1339286 0 0 1 0.801295,0.332117 l 1.069429,1.068915 c 0.07048,0.07107 0.166857,0.110877 0.267104,0.110877 h 2.710839 a 1.5119049,1.5119049 0 0 1 1.511904,1.511904 v 0.577547 a 2.2592898,2.2592898 0 0 0 -1.511904,-0.577547 h -7.559524 a 2.2592898,2.2592898 0 0 0 -1.511905,0.577549 z"
       id="path1-7"
       style="fill:#3580bb;fill-opacity:1;stroke-width:0.503968" />
    <path
       d="m 67.279762,34.395832 a 1.5119049,1.5119049 0 0 0 1.511904,-1.511906 V 30.61607 a 1.5119049,1.5119049 0 0 0 -1.511904,-1.511905 h -7.559524 a 1.5119049,1.5119049 0 0 0 -1.511905,1.511905 v 2.267856 a 1.5119049,1.5119049 0 0 0 1.511905,1.511906 z m -9.071429,-5.470071 v -2.089453 a 1.5119049,1.5119049 0 0 1 1.511905,-1.511905 h 2.710857 a 1.1339286,1.1339286 0 0 1 0.801295,0.332117 l 1.069429,1.068915 c 0.07048,0.07107 0.166857,0.110877 0.267104,0.110877 h 2.710839 a 1.5119049,1.5119049 0 0 1 1.511904,1.511904 v 0.577547 a 2.2592898,2.2592898 0 0 0 -1.511904,-0.577547 h -7.559524 a 2.2592898,2.2592898 0 0 0 -1.511905,0.577549 z"
       id="path1-7-3"
       style="fill:#b5a125;fill-opacity:1;stroke-width:0.503968" />
    <path
       clip-rule="evenodd"
       d="m 58.208333,41.978978 c 0,-0.587375 0.476249,-1.063057 1.063071,-1.063057 h 9.780129 c 0.5868,0 1.06305,0.476249 1.06305,1.063057 v 7.228796 c 0,0.586808 -0.47625,1.063058 -1.06305,1.063058 h -9.780129 a 1.0630581,1.0630581 0 0 1 -1.063071,-1.063058 z m 11.055814,2.126116 a 0.21261161,0.21261161 0 0 0 -0.212571,-0.212613 h -4.252243 a 0.21261161,0.21261161 0 0 0 -0.212572,0.212613 v 0.850447 c 0,0.117364 0.09514,0.212615 0.212572,0.212615 h 4.252243 a 0.21261161,0.21261161 0 0 0 0.212571,-0.212615 z m 0,2.126116 a 0.21261161,0.21261161 0 0 0 -0.212571,-0.212615 h -4.252243 a 0.21261161,0.21261161 0 0 0 -0.212572,0.212615 v 0.850446 c 0,0.117364 0.09514,0.212615 0.212572,0.212615 h 4.252243 a 0.21261161,0.21261161 0 0 0 0.212571,-0.212615 z m 0,2.126116 a 0.21261161,0.21261161 0 0 0 -0.212571,-0.212613 h -4.252243 a 0.21261161,0.21261161 0 0 0 -0.212572,0.212613 v 0.850448 c 0,0.117364 0.09514,0.212614 0.212572,0.212614 h 4.252243 a 0.21261161,0.21261161 0 0 0 0.212571,-0.212614 z m -5.740521,1.063059 a 0.21261161,0.21261161 0 0 0 0.212572,-0.212614 V 48.357325 A 0.21261161,0.21261161 0 0 0 63.523626,48.14471 h -4.252222 a 0.21261161,0.21261161 0 0 0 -0.212571,0.212615 v 0.850446 c 0,0.117365 0.09514,0.212614 0.212571,0.212614 z m -4.252222,-2.126116 h 4.252222 a 0.21261161,0.21261161 0 0 0 0.212572,-0.212615 v -0.850446 a 0.21261161,0.21261161 0 0 0 -0.212572,-0.212614 h -4.252222 a 0.21261161,0.21261161 0 0 0 -0.212571,0.212614 v 0.850446 c 0,0.117364 0.09514,0.212615 0.212571,0.212615 z m 0,-2.126116 h 4.252222 a 0.21261161,0.21261161 0 0 0 0.212572,-0.212614 v -0.850446 a 0.21261161,0.21261161 0 0 0 -0.212572,-0.212615 h -4.252222 a 0.21261161,0.21261161 0 0 0 -0.212571,0.212615 v 0.850446 c 0,0.117364 0.09514,0.212614 0.212571,0.212614 z"
       fill-rule="evenodd"
       id="path1-0-1-6-43"
       style="fill:#fffcda;fill-opacity:1;stroke-width:0.566963" />
    <path
       clip-rule="evenodd"
       d="m 58.208333,55.208144 c 0,-0.587375 0.476249,-1.063057 1.063071,-1.063057 h 9.780129 c 0.5868,0 1.06305,0.476249 1.06305,1.063057 v 7.228796 c 0,0.586808 -0.47625,1.063058 -1.06305,1.063058 H 59.271404 A 1.0630581,1.0630581 0 0 1 58.208333,62.43694 Z m 11.055814,2.126116 a 0.21261161,0.21261161 0 0 0 -0.212571,-0.212613 h -4.252243 a 0.21261161,0.21261161 0 0 0 -0.212572,0.212613 v 0.850447 c 0,0.117364 0.09514,0.212615 0.212572,0.212615 h 4.252243 a 0.21261161,0.21261161 0 0 0 0.212571,-0.212615 z m 0,2.126116 a 0.21261161,0.21261161 0 0 0 -0.212571,-0.212615 h -4.252243 a 0.21261161,0.21261161 0 0 0 -0.212572,0.212615 v 0.850446 c 0,0.117364 0.09514,0.212615 0.212572,0.212615 h 4.252243 a 0.21261161,0.21261161 0 0 0 0.212571,-0.212615 z m 0,2.126116 a 0.21261161,0.21261161 0 0 0 -0.212571,-0.212613 h -4.252243 a 0.21261161,0.21261161 0 0 0 -0.212572,0.212613 v 0.850448 c 0,0.117364 0.09514,0.212614 0.212572,0.212614 h 4.252243 a 0.21261161,0.21261161 0 0 0 0.212571,-0.212614 z m -5.740521,1.063059 a 0.21261161,0.21261161 0 0 0 0.212572,-0.212614 v -0.850446 a 0.21261161,0.21261161 0 0 0 -0.212572,-0.212615 h -4.252222 a 0.21261161,0.21261161 0 0 0 -0.212571,0.212615 v 0.850446 c 0,0.117365 0.09514,0.212614 0.212571,0.212614 z m -4.252222,-2.126116 h 4.252222 A 0.21261161,0.21261161 0 0 0 63.736198,60.31082 V 59.460374 A 0.21261161,0.21261161 0 0 0 63.523626,59.24776 h -4.252222 a 0.21261161,0.21261161 0 0 0 -0.212571,0.212614 v 0.850446 c 0,0.117364 0.09514,0.212615 0.212571,0.212615 z m 0,-2.126116 h 4.252222 a 0.21261161,0.21261161 0 0 0 0.212572,-0.212614 v -0.850446 a 0.21261161,0.21261161 0 0 0 -0.212572,-0.212615 h -4.252222 a 0.21261161,0.21261161 0 0 0 -0.212571,0.212615 v 0.850446 c 0,0.117364 0.09514,0.212614 0.212571,0.212614 z"
       fill-rule="evenodd"
       id="path1-0-1-6-43-1"
       style="fill:#fffcda;fill-opacity:1;stroke-width:0.566963" />
  </g>
  <g
     id="layer2"
     style="display:none">
    <text
       xml:space="preserve"
       style="font-size:4.93889px;line-height:0.9;font-family:'Noto Sans';-inkscape-font-specification:'Noto Sans';text-align:start;writing-mode:lr-tb;direction:ltr;text-anchor:start;fill:#fa9f1c;fill-opacity:1;stroke-width:0.264583;stroke-linejoin:round;stroke-dashoffset:26;stroke-opacity:0.208511;paint-order:markers fill stroke"
       x="23.610004"
       y="13.013973"
       id="text1"
       transform="translate(-10.451041,-9.2604156)"><tspan
         id="tspan1"
         style="font-style:italic;font-size:4.93889px;fill:#fa9f1c;fill-opacity:1;stroke-width:0.264583"
         x="23.610004"
         y="13.013973">Drink Recipes.oc</tspan></text>
    <text
       xml:space="preserve"
       style="font-size:2.82222px;line-height:0.9;font-family:'Noto Sans';-inkscape-font-specification:'Noto Sans';text-align:center;writing-mode:lr-tb;direction:ltr;text-anchor:middle;fill:#ffeec9;fill-opacity:1;stroke-width:0.264583;stroke-linejoin:round;stroke-dashoffset:26;stroke-opacity:0.208511;paint-order:markers fill stroke"
       x="20.395142"
       y="21.166578"
       id="text3"
       transform="translate(-10.451041,-9.2604156)"><tspan
         id="tspan3"
         style="font-size:2.82222px;fill:#ffeec9;fill-opacity:1;stroke-width:0.264583"
         x="20.395142"
         y="21.166578">index.csv</tspan></text>
    <text
       xml:space="preserve"
       style="font-size:2.82222px;line-height:0.9;font-family:'Noto Sans';-inkscape-font-specification:'Noto Sans';text-align:center;writing-mode:lr-tb;direction:ltr;text-anchor:middle;fill:#e4f4fa;fill-opacity:1;stroke-width:0.264583;stroke-linejoin:round;stroke-dashoffset:26;stroke-opacity:0.208511;paint-order:markers fill stroke"
       x="39.577431"
       y="38.364491"
       id="text3-6"
       transform="translate(-10.451041,-9.2604156)"><tspan
         id="tspan3-3"
         style="font-size:2.82222px;fill:#e4f4fa;fill-opacity:1;stroke-width:0.264583"
         x="39.577431"
         y="38.364491">index.csv</tspan></text>
    <text
       xml:space="preserve"
       style="font-size:2.82222px;line-height:0.9;font-family:'Noto Sans';-inkscape-font-specification:'Noto Sans';text-align:center;writing-mode:lr-tb;direction:ltr;text-anchor:middle;fill:#3580bb;fill-opacity:1;stroke-width:0.264583;stroke-linejoin:round;stroke-dashoffset:26;stroke-opacity:0.208511;paint-order:markers fill stroke"
       x="39.6875"
       y="24.001488"
       id="text3-6-1"
       transform="translate(-10.451041,-9.2604156)"><tspan
         id="tspan3-3-0"
         style="font-style:normal;font-variant:normal;font-weight:500;font-stretch:normal;font-size:2.82222px;font-family:'Noto Sans';-inkscape-font-specification:'Noto Sans Medium';fill:#3580bb;fill-opacity:1;stroke-width:0.264583"
         x="39.6875"
         y="24.001488">Tea</tspan></text>
    <text
       xml:space="preserve"
       style="font-size:2.82222px;line-height:0.9;font-family:'Noto Sans';-inkscape-font-specification:'Noto Sans';text-align:center;writing-mode:lr-tb;direction:ltr;text-anchor:middle;fill:#e4f4fa;fill-opacity:1;stroke-width:0.264583;stroke-linejoin:round;stroke-dashoffset:26;stroke-opacity:0.208511;paint-order:markers fill stroke"
       x="39.687511"
       y="52.822174"
       id="text3-6-0"
       transform="translate(-10.451041,-9.2604156)"><tspan
         id="tspan3-3-5"
         style="font-size:2.82222px;fill:#e4f4fa;fill-opacity:1;stroke-width:0.264583"
         x="39.687511"
         y="52.822174">boba.csv</tspan></text>
    <text
       xml:space="preserve"
       style="font-size:2.82222px;line-height:0.9;font-family:'Noto Sans';-inkscape-font-specification:'Noto Sans';text-align:center;writing-mode:lr-tb;direction:ltr;text-anchor:middle;fill:#fffffa;fill-opacity:1;stroke-width:0.264583;stroke-linejoin:round;stroke-dashoffset:26;stroke-opacity:0.208511;paint-order:markers fill stroke"
       x="81.249306"
       y="25.040833"
       id="text3-2"
       transform="translate(-10.451041,-9.2604156)"><tspan
         id="tspan3-1"
         style="font-size:2.82222px;fill:#fffffa;fill-opacity:1;stroke-width:0.264583"
         x="81.249306"
         y="25.040833">index.csv</tspan></text>
    <text
       xml:space="preserve"
       style="font-size:2.82222px;line-height:0.9;font-family:'Noto Sans';-inkscape-font-specification:'Noto Sans';text-align:center;writing-mode:lr-tb;direction:ltr;text-anchor:middle;fill:#fffffa;fill-opacity:1;stroke-width:0.264583;stroke-linejoin:round;stroke-dashoffset:26;stroke-opacity:0.208511;paint-order:markers fill stroke"
       x="81.249306"
       y="39.592915"
       id="text3-2-3"
       transform="translate(-10.451041,-9.2604156)"><tspan
         id="tspan3-1-3"
         style="font-size:2.82222px;fill:#fffffa;fill-opacity:1;stroke-width:0.264583"
         x="81.249306"
         y="39.592915">mocha.csv</tspan></text>
    <text
       xml:space="preserve"
       style="font-size:2.82222px;line-height:0.9;font-family:'Noto Sans';-inkscape-font-specification:'Noto Sans';text-align:center;writing-mode:lr-tb;direction:ltr;text-anchor:middle;fill:#fffffa;fill-opacity:1;stroke-width:0.264583;stroke-linejoin:round;stroke-dashoffset:26;stroke-opacity:0.208511;paint-order:markers fill stroke"
       x="64.051392"
       y="39.592915"
       id="text3-2-0"
       transform="translate(-10.451041,-9.2604156)"><tspan
         id="tspan3-1-30"
         style="font-size:2.82222px;fill:#fffffa;fill-opacity:1;stroke-width:0.264583"
         x="64.051392"
         y="39.592915">latte.csv</tspan></text>
    <text
       xml:space="preserve"
       style="font-size:2.82222px;line-height:0.9;font-family:'Noto Sans';-inkscape-font-specification:'Noto Sans';text-align:center;writing-mode:lr-tb;direction:ltr;text-anchor:middle;display:inline;fill:#fffffa;fill-opacity:1;stroke-width:0.264583;stroke-linejoin:round;stroke-dashoffset:26;stroke-opacity:0.208511;paint-order:markers fill stroke"
       x="69.3741"
       y="47.585487"
       id="text3-2-0-49"><tspan
         id="tspan3-1-30-1"
         style="font-size:2.82222px;fill:#fffffa;fill-opacity:1;stroke-width:0.264583"
         x="69.3741"
         y="47.585487">machiato.csv</tspan></text>
    <text
       xml:space="preserve"
       style="font-size:2.82222px;line-height:0.9;font-family:'Noto Sans';-inkscape-font-specification:'Noto Sans';text-align:center;writing-mode:lr-tb;direction:ltr;text-anchor:middle;fill:#b5a125;fill-opacity:1;stroke-width:0.264583;stroke-linejoin:round;stroke-dashoffset:26;stroke-opacity:0.208511;paint-order:markers fill stroke"
       x="63.5"
       y="24.001488"
       id="text3-2-0-4"
       transform="translate(-10.451041,-9.2604156)"><tspan
         id="tspan3-1-30-6"
         style="font-style:normal;font-variant:normal;font-weight:500;font-stretch:normal;font-size:2.82222px;font-family:'Noto Sans';-inkscape-font-specification:'Noto Sans Medium';fill:#b5a125;fill-opacity:1;stroke-width:0.264583"
         x="63.5"
         y="24.001488">Coffee</tspan></text>
    <text
       xml:space="preserve"
       style="font-size:2.82222px;line-height:0.9;font-family:'Noto Sans';-inkscape-font-specification:'Noto Sans';text-align:center;writing-mode:lr-tb;direction:ltr;text-anchor:middle;fill:#ffeec9;fill-opacity:1;stroke-width:0.264583;stroke-linejoin:round;stroke-dashoffset:26;stroke-opacity:0.208511;paint-order:markers fill stroke"
       x="20.395142"
       y="38.364491"
       id="text3-8"
       transform="translate(-10.451041,-9.2604156)"><tspan
         id="tspan3-12"
         style="font-size:2.82222px;fill:#ffeec9;fill-opacity:1;stroke-width:0.264583"
         x="20.395142"
         y="38.364491">juice.csv</tspan></text>
    <text
       xml:space="preserve"
       style="font-size:2.82222px;line-height:0.9;font-family:'Noto Sans';-inkscape-font-specification:'Noto Sans';text-align:center;writing-mode:lr-tb;direction:ltr;text-anchor:middle;fill:#ffeec9;fill-opacity:1;stroke-width:0.264583;stroke-linejoin:round;stroke-dashoffset:26;stroke-opacity:0.208511;paint-order:markers fill stroke"
       x="20.395142"
       y="55.562412"
       id="text3-80"
       transform="translate(-10.451041,-9.2604156)"><tspan
         id="tspan3-2"
         style="font-size:2.82222px;fill:#ffeec9;fill-opacity:1;stroke-width:0.264583"
         x="20.395142"
         y="55.562412">shakes.csv</tspan></text>
  </g>
  <g
     id="layer3"
     style="display:inline">
    <path
       style="font-style:italic;font-size:4.93889px;line-height:0.9;font-family:'Noto Sans';-inkscape-font-specification:'Noto Sans';fill:#ac6108;fill-opacity:1;stroke-width:0.264583;stroke-linejoin:round;stroke-dashoffset:26;stroke-opacity:0.208511;paint-order:markers fill stroke"
       d="M 13.361458,3.7535577 14.10723,0.22719024 h 0.834672 q 0.637117,0 0.997656,0.34572229 0.360539,0.3457223 0.360539,1.06186137 0,0.6124223 -0.242005,1.0914947 -0.237067,0.4790723 -0.701323,0.7556501 -0.459317,0.271639 -1.126067,0.271639 z m 0.893939,-0.3802945 q 0.513644,0 0.864306,-0.2321279 0.350661,-0.2321278 0.5334,-0.627239 0.182739,-0.3951112 0.182739,-0.8840613 0,-0.5432779 -0.261762,-0.78034463 Q 15.317258,0.60748476 14.887575,0.60748476 H 14.467769 L 13.880041,3.3732632 Z m 2.336094,0.3802945 0.563033,-2.647245 h 0.3556 l -0.05433,0.4889501 h 0.02469 q 0.103717,-0.138289 0.217311,-0.2568223 0.113595,-0.1234723 0.256823,-0.2024945 0.143227,-0.079022 0.330905,-0.079022 0.06914,0 0.143228,0.00988 0.07902,0.00494 0.143228,0.024695 l -0.09384,0.3901723 q -0.13335,-0.029633 -0.251883,-0.029633 -0.246945,0 -0.439562,0.1629833 -0.192616,0.1629834 -0.321028,0.4148668 -0.128411,0.2518834 -0.182738,0.5136445 L 17.026105,3.753561 Z m 2.879376,-3.08680626 q -0.103716,0 -0.172861,-0.0592667 -0.06421,-0.0642056 -0.06421,-0.17286114 0,-0.12841114 0.07408,-0.22225005 0.07902,-0.0938389 0.217311,-0.0938389 0.227189,0 0.227189,0.22225005 0,0.15310559 -0.0889,0.2420056 -0.0889,0.0839611 -0.192617,0.0839611 z m -0.913694,3.08680626 0.563033,-2.647245 h 0.434622 l -0.563033,2.647245 z m 1.254475,0 0.567972,-2.6620617 h 0.385233 l -0.05433,0.4889501 h 0.0049 q 0.09384,-0.1234723 0.217311,-0.2469445 0.128411,-0.1234723 0.296333,-0.2074334 0.167922,-0.083961 0.380295,-0.083961 0.321027,0 0.498827,0.1778 0.182739,0.1728612 0.182739,0.4889501 0,0.1135945 -0.01975,0.2321279 -0.01482,0.1185333 -0.03457,0.2074333 l -0.350662,1.6051393 h -0.464255 l 0.3556,-1.6644059 q 0.02469,-0.1135945 0.03457,-0.1876779 0.01482,-0.079022 0.01482,-0.1481667 0,-0.3160889 -0.335845,-0.3160889 -0.162983,0 -0.3556,0.1135945 -0.187678,0.1135944 -0.3556,0.3704167 -0.162983,0.2568223 -0.256822,0.6914446 l -0.246945,1.1408836 z m 2.874436,0 L 23.481246,1.2969971e-6 h 0.439561 L 23.599779,1.4915461 q -0.08396,0.3951112 -0.148167,0.6124223 -0.05927,0.2123723 -0.08396,0.2815168 h 0.0099 L 24.63203,1.1063127 h 0.513645 l -1.135945,1.1359446 0.706261,1.5113004 h -0.479072 l -0.558095,-1.2396614 -0.3556,0.2815167 -0.197555,0.9581447 z m 3.798011,0 0.745773,-3.52636746 h 0.775406 q 1.086555,0 1.086555,0.89393906 0,0.3802946 -0.202494,0.6618113 -0.197556,0.2815167 -0.676628,0.4148667 l 0.582789,1.5557504 H 28.311485 L 27.807718,2.2965851 h -0.57785 l -0.306211,1.4569726 z m 1.210028,-1.8323282 q 0.493889,0 0.71614,-0.2123723 0.227188,-0.2173111 0.227188,-0.5580945 0,-0.30127233 -0.167922,-0.41980569 Q 28.301607,0.61242365 27.965762,0.61242365 H 27.590407 L 27.30889,1.9212295 Z m 2.612673,1.8817171 q -0.459317,0 -0.7112,-0.2667001 -0.246945,-0.2716389 -0.246945,-0.7309557 0,-0.316089 0.0889,-0.6223001 0.09384,-0.3111501 0.2667,-0.5630335 0.172862,-0.2568223 0.414867,-0.4099279 0.246945,-0.1531055 0.553156,-0.1531055 0.375356,0 0.563033,0.1629833 0.192617,0.1629834 0.192617,0.4543779 0,0.2568223 -0.162983,0.4691945 -0.158045,0.2123723 -0.498828,0.3407835 -0.340784,0.1234722 -0.884061,0.1234722 h -0.08396 q -0.0049,0.04445 -0.0099,0.093839 0,0.049389 0,0.0889 0,0.3012723 0.148166,0.4790724 0.148167,0.1728611 0.449439,0.1728611 0.187678,0 0.3556,-0.054328 0.167923,-0.054328 0.365478,-0.1481667 v 0.3704168 q -0.187678,0.083961 -0.370417,0.1382889 -0.1778,0.054328 -0.429683,0.054328 z M 29.896868,2.257074 q 0.296334,0 0.548217,-0.049389 0.251883,-0.054328 0.404989,-0.1728611 0.153106,-0.1234723 0.153106,-0.3259668 0,-0.1284111 -0.0889,-0.2074333 -0.08396,-0.083961 -0.266701,-0.083961 -0.237066,0 -0.459316,0.2222501 -0.217311,0.2173111 -0.325967,0.6173612 z M 32.796,3.8029466 q -0.439561,0 -0.7112,-0.2469445 -0.271639,-0.2469445 -0.271639,-0.7408335 0,-0.3556001 0.09384,-0.6716891 0.09878,-0.3210278 0.276578,-0.5630334 0.182739,-0.2420056 0.439561,-0.3802945 0.256823,-0.1432278 0.572912,-0.1432278 0.172861,0 0.345722,0.034572 0.172861,0.034572 0.31115,0.093839 l -0.123472,0.360539 q -0.09878,-0.04445 -0.237067,-0.083961 -0.13335,-0.039511 -0.291395,-0.039511 -0.281516,0 -0.493889,0.1926167 -0.212372,0.1876778 -0.330905,0.5037668 -0.118534,0.316089 -0.118534,0.6914446 0,0.3012723 0.153106,0.4691945 0.158045,0.1629834 0.429683,0.1629834 0.172862,0 0.325967,-0.049389 0.158045,-0.049389 0.31115,-0.1135945 v 0.3654779 q -0.138289,0.069145 -0.31115,0.1135945 -0.167922,0.04445 -0.370417,0.04445 z m 2.069391,-3.13619516 q -0.103717,0 -0.172862,-0.0592667 -0.06421,-0.0642056 -0.06421,-0.17286114 0,-0.12841114 0.07408,-0.22225005 0.07902,-0.0938389 0.217311,-0.0938389 0.227189,0 0.227189,0.22225005 0,0.15310559 -0.0889,0.2420056 -0.0889,0.0839611 -0.192616,0.0839611 z m -0.913695,3.08680626 0.563033,-2.647245 h 0.434623 l -0.563034,2.647245 z m 1.027286,1.1853336 0.809978,-3.8325786 h 0.3556 l -0.05927,0.493889 h 0.01976 q 0.172861,-0.2173112 0.390173,-0.3753557 0.217311,-0.1629834 0.493889,-0.1629834 0.321027,0 0.518583,0.227189 0.197556,0.2271889 0.197556,0.6766279 0,0.360539 -0.0889,0.6914446 -0.0889,0.3309056 -0.256823,0.5926668 -0.167922,0.2568223 -0.409928,0.404989 -0.237066,0.1481667 -0.5334,0.1481667 -0.2667,0 -0.429683,-0.13335 -0.162983,-0.138289 -0.246945,-0.3210279 h -0.02469 q -0.0049,0.079022 -0.0247,0.2222501 -0.01976,0.1382889 -0.03951,0.2271889 l -0.242005,1.1408836 z m 1.402645,-1.4964837 q 0.197556,0 0.360539,-0.1234722 0.162983,-0.1284112 0.276578,-0.3407834 0.118533,-0.2123723 0.1778,-0.4790724 0.0642,-0.2667 0.0642,-0.5432779 0,-0.5334001 -0.419805,-0.5334001 -0.162984,0 -0.335845,0.1234723 -0.167922,0.1185333 -0.31115,0.3259667 -0.143228,0.2074334 -0.232128,0.4741334 -0.08396,0.2667001 -0.08396,0.5630335 0,0.2370667 0.123473,0.3852334 0.123472,0.1481667 0.380294,0.1481667 z m 2.760841,0.360539 q -0.459316,0 -0.7112,-0.2667001 -0.246944,-0.2716389 -0.246944,-0.7309557 0,-0.316089 0.0889,-0.6223001 0.09384,-0.3111501 0.2667,-0.5630335 0.172861,-0.2568223 0.414867,-0.4099279 0.246944,-0.1531055 0.553155,-0.1531055 0.375356,0 0.563034,0.1629833 0.192616,0.1629834 0.192616,0.4543779 0,0.2568223 -0.162983,0.4691945 -0.158044,0.2123723 -0.498828,0.3407835 -0.340783,0.1234722 -0.884061,0.1234722 h -0.08396 q -0.0049,0.04445 -0.0099,0.093839 0,0.049389 0,0.0889 0,0.3012723 0.148167,0.4790724 0.148166,0.1728611 0.449439,0.1728611 0.187677,0 0.3556,-0.054328 0.167922,-0.054328 0.365478,-0.1481667 v 0.3704168 q -0.187678,0.083961 -0.370417,0.1382889 -0.1778,0.054328 -0.429684,0.054328 z M 38.732541,2.257074 q 0.296333,0 0.548216,-0.049389 0.251884,-0.054328 0.404989,-0.1728611 0.153106,-0.1234723 0.153106,-0.3259668 0,-0.1284111 -0.0889,-0.2074333 -0.08396,-0.083961 -0.2667,-0.083961 -0.237067,0 -0.459317,0.2222501 -0.217311,0.2173111 -0.325967,0.6173612 z m 2.444752,1.5458726 q -0.242006,0 -0.424744,-0.049389 -0.177801,-0.04445 -0.316089,-0.1185334 v -0.40005 q 0.128411,0.079022 0.321027,0.1481667 0.197556,0.064206 0.404989,0.064206 0.291395,0 0.4445,-0.1135945 0.153106,-0.1185333 0.153106,-0.3012723 0,-0.1432278 -0.09384,-0.2370667 -0.09384,-0.098778 -0.35066,-0.242006 Q 41.034065,2.3953629 40.890837,2.2274407 40.74761,2.0595184 40.74761,1.807635 q 0,-0.3358445 0.242005,-0.5432779 0.246945,-0.2074333 0.656873,-0.2074333 0.242005,0 0.4445,0.059267 0.207433,0.054328 0.3556,0.1234723 L 42.308299,1.585385 q -0.128411,-0.059267 -0.286456,-0.1086556 -0.158044,-0.054328 -0.375355,-0.054328 -0.212373,0 -0.340784,0.1037167 -0.123472,0.098778 -0.123472,0.2568223 0,0.1284111 0.08396,0.2271889 0.0889,0.093839 0.350661,0.2370667 0.167923,0.098778 0.301273,0.1975556 0.13335,0.098778 0.207433,0.227189 0.07902,0.1284111 0.07902,0.3160889 0,0.4000501 -0.281517,0.6074835 -0.276577,0.2074334 -0.745772,0.2074334 z m 1.723669,0.019756 q -0.256823,0 -0.256823,-0.2568222 0,-0.1629834 0.0889,-0.2864557 0.09384,-0.1234722 0.291395,-0.1234722 0.108655,0 0.172861,0.069144 0.06914,0.064206 0.06914,0.1926167 0,0.1531056 -0.0889,0.2815167 -0.0889,0.1234722 -0.276577,0.1234722 z m 2.133603,-0.029633 q -0.459317,0 -0.726017,-0.2716389 -0.261761,-0.2765779 -0.261761,-0.7457724 0,-0.3062112 0.08396,-0.6074835 0.08396,-0.3012723 0.246944,-0.5482168 0.167923,-0.2469445 0.414867,-0.3951112 0.251884,-0.1531056 0.57785,-0.1531056 0.464256,0 0.726017,0.2765779 0.261761,0.2716389 0.261761,0.7457723 0,0.3012723 -0.08396,0.6025446 -0.08396,0.3012723 -0.251883,0.5482168 -0.162984,0.2469445 -0.409928,0.4000501 -0.246945,0.1481667 -0.57785,0.1481667 z m 0.02469,-0.360539 q 0.237067,0 0.429684,-0.1629833 0.192616,-0.1679223 0.306211,-0.4790724 0.118533,-0.31115 0.118533,-0.7457724 0,-0.1481667 -0.05433,-0.2864556 -0.04939,-0.1432278 -0.167922,-0.2321278 -0.118533,-0.093839 -0.316089,-0.093839 -0.271639,0 -0.474133,0.1876778 -0.197556,0.1827389 -0.306211,0.493889 -0.108656,0.3062112 -0.108656,0.6766279 0,0.3062112 0.148167,0.4741335 0.153105,0.1679222 0.424744,0.1679222 z m 2.750961,0.3704168 q -0.439561,0 -0.7112,-0.2469445 -0.271639,-0.2469445 -0.271639,-0.7408335 0,-0.3556001 0.09384,-0.6716891 0.09878,-0.3210278 0.276577,-0.5630334 0.182739,-0.2420056 0.439562,-0.3802945 0.256822,-0.1432278 0.572911,-0.1432278 0.172861,0 0.345722,0.034572 0.172861,0.034572 0.31115,0.093839 l -0.123472,0.360539 q -0.09878,-0.04445 -0.237067,-0.083961 -0.13335,-0.039511 -0.291394,-0.039511 -0.281517,0 -0.493889,0.1926167 -0.212373,0.1876778 -0.330906,0.5037668 -0.118533,0.316089 -0.118533,0.6914446 0,0.3012723 0.153105,0.4691945 0.158045,0.1629834 0.429684,0.1629834 0.172861,0 0.325966,-0.049389 0.158045,-0.049389 0.311151,-0.1135945 V 3.644903 q -0.138289,0.069145 -0.311151,0.1135945 -0.167922,0.04445 -0.370416,0.04445 z"
       id="text1-9"
       aria-label="Drink Recipes.oc" />
    <path
       d="m 4.2446336,9.8261861 q 0.056444,0 0.098778,0.039511 0.045156,0.036689 0.045156,0.1185333 0,0.079023 -0.045156,0.1185336 -0.042333,0.03951 -0.098778,0.03951 -0.062089,0 -0.1044222,-0.03951 -0.042333,-0.03951 -0.042333,-0.1185336 0,-0.081844 0.042333,-0.1185333 0.042333,-0.039511 0.1044222,-0.039511 z M 4.365989,10.393452 v 1.51271 H 4.1176336 v -1.51271 z m 1.2079086,-0.02822 q 0.2709331,0 0.4092219,0.132644 0.1382888,0.129823 0.1382888,0.423333 v 0.984955 H 5.8758752 v -0.968021 q 0,-0.364067 -0.3386665,-0.364067 -0.2511775,0 -0.347133,0.141111 -0.095956,0.141111 -0.095956,0.4064 v 0.784577 H 4.8457648 v -1.51271 h 0.2003776 l 0.036689,0.206022 h 0.014111 q 0.073378,-0.118533 0.2031999,-0.174977 0.1298221,-0.05927 0.2737553,-0.05927 z m 1.5522212,1.569154 q -0.282222,0 -0.4515552,-0.194733 -0.1693332,-0.197555 -0.1693332,-0.587022 0,-0.389466 0.1693332,-0.587021 0.1721554,-0.200378 0.4543774,-0.200378 0.1749777,0 0.2850442,0.06491 0.1128889,0.06491 0.1834444,0.158044 h 0.016933 q -0.00282,-0.03669 -0.011289,-0.107244 -0.00564,-0.07338 -0.00564,-0.115711 V 9.761275 h 0.2483553 v 2.144887 H 7.6454073 l -0.036689,-0.2032 h -0.011289 q -0.067733,0.09596 -0.1806221,0.163689 -0.1128888,0.06773 -0.2906887,0.06773 z m 0.039511,-0.206022 q 0.2398887,0 0.3358442,-0.129822 0.098778,-0.132644 0.098778,-0.397933 v -0.04515 q 0,-0.282222 -0.093133,-0.4318 -0.093133,-0.1524 -0.3443108,-0.1524 -0.2003777,0 -0.3019776,0.160867 -0.098778,0.158044 -0.098778,0.426155 0,0.270933 0.098778,0.420511 0.1015999,0.149577 0.3047998,0.149577 z m 1.744131,-1.363132 q 0.1947332,0 0.333022,0.08467 0.141111,0.08467 0.2144887,0.239888 0.0762,0.1524 0.0762,0.358422 V 11.19779 H 8.4977168 q 0.00564,0.256822 0.1298221,0.392289 0.1269999,0.132644 0.3527775,0.132644 0.1439332,0 0.2539998,-0.0254 0.1128888,-0.02822 0.2314221,-0.07902 v 0.217311 q -0.1157111,0.0508 -0.2285999,0.07338 -0.1128888,0.0254 -0.2681109,0.0254 -0.2144887,0 -0.3809997,-0.08749 -0.1636887,-0.08749 -0.256822,-0.259645 -0.090311,-0.174977 -0.090311,-0.426155 0,-0.248355 0.081844,-0.426155 0.084667,-0.1778 0.2342443,-0.273755 0.1523999,-0.09596 0.3527775,-0.09596 z m -0.00282,0.2032 q -0.1777999,0 -0.282222,0.115711 -0.101602,0.112887 -0.1213576,0.316087 H 9.2738273 Q 9.2710051,10.808319 9.1835163,10.689785 9.0960274,10.56843 8.9069387,10.56843 Z M 10.21927,11.132876 9.6971592,10.393454 h 0.282222 l 0.3894658,0.570089 0.386645,-0.570089 h 0.279399 l -0.52211,0.739422 0.550333,0.773288 H 10.78089 L 10.368845,11.302207 9.9511569,11.906162 H 9.6717571 Z m 1.097841,0.620888 q 0,-0.104422 0.0508,-0.146755 0.0508,-0.04233 0.121356,-0.04233 0.07338,0 0.124177,0.04233 0.05362,0.04233 0.05362,0.146755 0,0.1016 -0.05362,0.146756 -0.0508,0.04515 -0.124177,0.04515 -0.07056,0 -0.121356,-0.04515 -0.0508,-0.04516 -0.0508,-0.146756 z m 1.39982,0.180622 q -0.200377,0 -0.358422,-0.08184 -0.155222,-0.08184 -0.245533,-0.254 -0.08749,-0.172155 -0.08749,-0.440266 0,-0.2794 0.09313,-0.454377 0.09313,-0.174978 0.251177,-0.256823 0.160867,-0.08184 0.364067,-0.08184 0.115711,0 0.222955,0.0254 0.107244,0.02258 0.174978,0.05644 l -0.0762,0.206023 q -0.06773,-0.0254 -0.158045,-0.04798 -0.09031,-0.02258 -0.169333,-0.02258 -0.445911,0 -0.445911,0.572911 0,0.273755 0.107245,0.420511 0.110066,0.143933 0.324555,0.143933 0.124178,0 0.217311,-0.0254 0.09596,-0.0254 0.174978,-0.06209 v 0.220133 q -0.0762,0.03951 -0.169333,0.05927 -0.09031,0.02258 -0.220134,0.02258 z m 1.732843,-0.44591 q 0,0.220133 -0.163689,0.333022 -0.163689,0.112888 -0.440266,0.112888 -0.158045,0 -0.273756,-0.0254 -0.112889,-0.0254 -0.200377,-0.07056 v -0.225778 q 0.09031,0.04516 0.217311,0.08467 0.129822,0.03669 0.262466,0.03669 0.189089,0 0.273755,-0.05927 0.08467,-0.06209 0.08467,-0.163689 0,-0.05644 -0.03104,-0.101599 -0.03105,-0.04516 -0.112889,-0.09031 -0.07902,-0.04516 -0.2286,-0.101599 -0.146756,-0.05645 -0.251178,-0.112889 -0.104422,-0.05645 -0.160866,-0.135467 -0.05645,-0.07902 -0.05645,-0.2032 0,-0.191911 0.155222,-0.296333 0.158045,-0.104422 0.412045,-0.104422 0.138288,0 0.256822,0.02822 0.121355,0.0254 0.225777,0.07338 l -0.08467,0.197555 q -0.09596,-0.03951 -0.200378,-0.06773 -0.104422,-0.02822 -0.214489,-0.02822 -0.1524,0 -0.234244,0.0508 -0.07902,0.04798 -0.07902,0.132644 0,0.06209 0.03669,0.107245 0.03669,0.04233 0.121355,0.08467 0.08749,0.03951 0.231422,0.09596 0.143933,0.05362 0.245533,0.110066 0.1016,0.05645 0.155223,0.138289 0.05362,0.07902 0.05362,0.200378 z m 0.699911,0.417688 -0.572911,-1.51271 h 0.265289 l 0.321733,0.891822 q 0.02258,0.06209 0.04798,0.138289 0.0254,0.0762 0.04515,0.146755 0.01976,0.06773 0.02822,0.115711 h 0.01129 q 0.01129,-0.04798 0.03105,-0.118533 0.02258,-0.07056 0.04798,-0.146756 0.02822,-0.0762 0.04798,-0.135466 l 0.321733,-0.891822 h 0.265289 l -0.575733,1.51271 z"
       id="text3-3"
       style="font-size:2.82222px;line-height:0.9;font-family:'Noto Sans';-inkscape-font-specification:'Noto Sans';text-align:center;text-anchor:middle;fill:#fff4db;fill-opacity:1;stroke-width:0.264583;stroke-linejoin:round;stroke-dashoffset:26;stroke-opacity:0.208511;paint-order:markers fill stroke"
       aria-label="index.csv" />
    <path
       d="m 23.426923,27.0241 q 0.05644,0 0.09878,0.03951 0.04516,0.03669 0.04516,0.118534 0,0.07902 -0.04516,0.118533 -0.04233,0.03951 -0.09878,0.03951 -0.06209,0 -0.104422,-0.03951 -0.04233,-0.03951 -0.04233,-0.118533 0,-0.08184 0.04233,-0.118534 0.04233,-0.03951 0.104422,-0.03951 z m 0.121355,0.567266 v 1.51271 h -0.248355 v -1.51271 z m 1.207909,-0.02822 q 0.270933,0 0.409222,0.132645 0.138288,0.129822 0.138288,0.423333 v 0.984954 h -0.245533 v -0.968021 q 0,-0.364066 -0.338666,-0.364066 -0.251178,0 -0.347133,0.141111 -0.09596,0.141111 -0.09596,0.406399 v 0.784577 H 24.02805 v -1.51271 h 0.200378 l 0.03669,0.206022 h 0.01411 q 0.07338,-0.118533 0.203199,-0.174977 0.129823,-0.05927 0.273756,-0.05927 z m 1.552221,1.569155 q -0.282222,0 -0.451555,-0.194734 -0.169333,-0.197555 -0.169333,-0.587021 0,-0.389467 0.169333,-0.587022 0.172155,-0.200378 0.454377,-0.200378 0.174978,0 0.285044,0.06491 0.112889,0.06491 0.183445,0.158045 h 0.01693 q -0.0028,-0.03669 -0.01129,-0.107245 -0.0056,-0.07338 -0.0056,-0.115711 V 26.95919 h 0.248355 v 2.144887 h -0.200378 l -0.03669,-0.203199 h -0.01129 q -0.06773,0.09596 -0.180622,0.163688 -0.112889,0.06773 -0.290689,0.06773 z m 0.03951,-0.206022 q 0.239889,0 0.335844,-0.129823 0.09878,-0.132644 0.09878,-0.397933 v -0.04515 q 0,-0.282222 -0.09313,-0.4318 -0.09313,-0.1524 -0.344311,-0.1524 -0.200378,0 -0.301978,0.160867 -0.09878,0.158044 -0.09878,0.426155 0,0.270933 0.09878,0.420511 0.1016,0.149578 0.3048,0.149578 z m 1.744131,-1.363133 q 0.194733,0 0.333022,0.08467 0.141111,0.08467 0.214489,0.239889 0.0762,0.152399 0.0762,0.358421 v 0.149578 h -1.035755 q 0.0056,0.256822 0.129822,0.392289 0.127,0.132644 0.352778,0.132644 0.143933,0 0.253999,-0.0254 0.112889,-0.02822 0.231422,-0.07902 v 0.217311 q -0.115711,0.0508 -0.228599,0.07338 -0.112889,0.0254 -0.268111,0.0254 -0.214489,0 -0.381,-0.08749 -0.163689,-0.08749 -0.256822,-0.259644 -0.09031,-0.174978 -0.09031,-0.426156 0,-0.248355 0.08184,-0.426155 0.08467,-0.1778 0.234245,-0.273755 0.152399,-0.09596 0.352777,-0.09596 z m -0.0028,0.2032 q -0.1778,0 -0.282222,0.115711 -0.1016,0.112889 -0.121356,0.316089 h 0.770466 q -0.0028,-0.191911 -0.09031,-0.310444 -0.08749,-0.121356 -0.276577,-0.121356 z m 1.312329,0.564444 -0.522111,-0.739422 h 0.282222 l 0.389467,0.570089 0.386644,-0.570089 h 0.2794 l -0.522111,0.739422 0.550333,0.773288 H 29.9632 l -0.412044,-0.603955 -0.417689,0.603955 h -0.2794 z m 1.097841,0.620889 q 0,-0.104423 0.0508,-0.146756 0.0508,-0.04233 0.121356,-0.04233 0.07338,0 0.124178,0.04233 0.05362,0.04233 0.05362,0.146756 0,0.101599 -0.05362,0.146755 -0.0508,0.04516 -0.124178,0.04516 -0.07056,0 -0.121356,-0.04516 -0.0508,-0.04516 -0.0508,-0.146755 z m 1.399821,0.180622 q -0.200378,0 -0.358422,-0.08185 -0.155223,-0.08184 -0.245534,-0.254 -0.08749,-0.172155 -0.08749,-0.440266 0,-0.2794 0.09313,-0.454377 0.09313,-0.174978 0.251177,-0.256822 0.160867,-0.08184 0.364067,-0.08184 0.115711,0 0.222955,0.0254 0.107245,0.02258 0.174978,0.05645 l -0.0762,0.206022 q -0.06773,-0.0254 -0.158044,-0.04798 -0.09031,-0.02258 -0.169334,-0.02258 -0.44591,0 -0.44591,0.572911 0,0.273755 0.107244,0.420511 0.110067,0.143933 0.324555,0.143933 0.124178,0 0.217311,-0.0254 0.09596,-0.0254 0.174978,-0.06209 v 0.220133 q -0.0762,0.03951 -0.169333,0.05927 -0.09031,0.02258 -0.220133,0.02258 z m 1.732842,-0.445911 q 0,0.220133 -0.163689,0.333022 -0.163689,0.112889 -0.440266,0.112889 -0.158045,0 -0.273756,-0.0254 -0.112888,-0.0254 -0.200377,-0.07056 v -0.225778 q 0.09031,0.04516 0.217311,0.08467 0.129822,0.03669 0.262466,0.03669 0.189089,0 0.273755,-0.05927 0.08467,-0.06209 0.08467,-0.163688 0,-0.05645 -0.03104,-0.1016 -0.03104,-0.04516 -0.112889,-0.09031 -0.07902,-0.04516 -0.2286,-0.1016 -0.146755,-0.05645 -0.251178,-0.112889 -0.104422,-0.05645 -0.160866,-0.135467 -0.05644,-0.07902 -0.05644,-0.2032 0,-0.19191 0.155222,-0.296333 0.158044,-0.104422 0.412044,-0.104422 0.138289,0 0.256822,0.02822 0.121355,0.0254 0.225777,0.07338 l -0.0847,0.197556 q -0.09596,-0.03951 -0.200378,-0.06773 -0.104422,-0.02822 -0.214489,-0.02822 -0.152399,0 -0.234244,0.0508 -0.07902,0.04798 -0.07902,0.132644 0,0.06209 0.03669,0.107245 0.03669,0.04233 0.121355,0.08467 0.08749,0.03951 0.231422,0.09596 0.143934,0.05362 0.245534,0.110066 0.101599,0.05645 0.155222,0.138289 0.05362,0.07902 0.05362,0.200378 z m 0.699911,0.417688 -0.572911,-1.51271 h 0.265289 l 0.321733,0.891822 q 0.02258,0.06209 0.04798,0.138289 0.0254,0.0762 0.04516,0.146755 0.01976,0.06773 0.02822,0.115711 h 0.01129 q 0.01129,-0.04798 0.03104,-0.118533 0.02258,-0.07056 0.04798,-0.146755 0.02822,-0.0762 0.04798,-0.135467 l 0.321733,-0.891822 h 0.265289 l -0.575733,1.51271 z"
       id="text3-6-05"
       style="font-size:2.82222px;line-height:0.9;font-family:'Noto Sans';-inkscape-font-specification:'Noto Sans';text-align:center;text-anchor:middle;fill:#f2fafd;fill-opacity:1;stroke-width:0.264583;stroke-linejoin:round;stroke-dashoffset:26;stroke-opacity:0.208511;paint-order:markers fill stroke"
       aria-label="index.csv" />
    <path
       style="font-weight:500;font-size:2.82222px;line-height:0.9;font-family:'Noto Sans';-inkscape-font-specification:'Noto Sans Medium';text-align:center;text-anchor:middle;fill:#3580bb;stroke-width:0.264583;stroke-linejoin:round;stroke-dashoffset:26;stroke-opacity:0.208511;paint-order:markers fill stroke"
       d="m 27.870505,14.741072 h -0.3048 V 12.988473 H 26.96175 v -0.262466 h 1.51271 v 0.262466 h -0.603955 z m 1.278467,-1.549399 q 0.299155,0 0.471311,0.186266 0.172155,0.183445 0.172155,0.502356 v 0.166511 h -1.021644 q 0.0056,0.231422 0.124178,0.355599 0.118533,0.124178 0.333022,0.124178 0.143933,0 0.256822,-0.0254 0.115711,-0.02822 0.234244,-0.08184 v 0.248355 q -0.115711,0.0508 -0.234244,0.0762 -0.115711,0.0254 -0.276577,0.0254 -0.220134,0 -0.389467,-0.08749 -0.166511,-0.08749 -0.262466,-0.259644 -0.09313,-0.174978 -0.09313,-0.4318 0,-0.254 0.08467,-0.4318 0.08749,-0.177799 0.239889,-0.270933 0.155222,-0.09596 0.361244,-0.09596 z m 0.0028,0.231422 q -0.163689,0 -0.259644,0.104422 -0.09596,0.104422 -0.115711,0.296333 h 0.716844 q -0.0028,-0.1778 -0.08749,-0.287866 -0.08184,-0.112889 -0.254,-0.112889 z m 1.619953,-0.2286 q 0.276577,0 0.414866,0.127 0.141111,0.124178 0.141111,0.389466 v 1.030111 h -0.214488 l -0.05927,-0.211667 h -0.01129 q -0.09878,0.124178 -0.208844,0.183445 -0.107245,0.05644 -0.299156,0.05644 -0.206022,0 -0.341488,-0.110067 -0.135467,-0.112888 -0.135467,-0.349955 0,-0.2286 0.174978,-0.349955 0.1778,-0.124178 0.541866,-0.135467 l 0.256822,-0.0085 v -0.07902 q 0,-0.172155 -0.0762,-0.239888 -0.0762,-0.07056 -0.214489,-0.07056 -0.112888,0 -0.222955,0.03669 -0.107244,0.03387 -0.2032,0.07902 l -0.09031,-0.217311 q 0.104422,-0.05362 0.245533,-0.09031 0.141111,-0.03951 0.301978,-0.03951 z m 0.05362,0.824088 q -0.259644,0.0085 -0.358422,0.08185 -0.09878,0.07338 -0.09878,0.206022 0,0.118533 0.07056,0.174977 0.07055,0.05362 0.183444,0.05362 0.174978,0 0.290689,-0.09596 0.118533,-0.09878 0.118533,-0.296333 v -0.132644 z"
       id="text3-6-1-6"
       aria-label="Tea" />
    <path
       d="m 23.895422,41.938983 q 0,0.09596 -0.0056,0.180622 -0.0028,0.08185 -0.0085,0.129823 h 0.01411 q 0.06491,-0.09596 0.177799,-0.160867 0.112889,-0.06491 0.290689,-0.06491 0.282222,0 0.451555,0.197555 0.172156,0.194734 0.172156,0.5842 0,0.389466 -0.172156,0.587022 -0.172155,0.197555 -0.451555,0.197555 -0.1778,0 -0.290689,-0.06491 -0.112888,-0.06491 -0.177799,-0.155222 h -0.01976 l -0.0508,0.191911 h -0.1778 v -2.144887 h 0.248356 z m 0.426155,0.290689 q -0.239889,0 -0.333022,0.138289 -0.09313,0.138289 -0.09313,0.428977 v 0.01129 q 0,0.2794 0.09031,0.428978 0.09313,0.146755 0.341488,0.146755 0.2032,0 0.301978,-0.149578 0.1016,-0.149577 0.1016,-0.431799 0,-0.572911 -0.409222,-0.572911 z m 2.376309,0.572911 q 0,0.375355 -0.191911,0.581377 -0.189089,0.206022 -0.513644,0.206022 -0.200378,0 -0.358422,-0.09031 -0.155223,-0.09313 -0.245534,-0.268111 -0.09031,-0.1778 -0.09031,-0.428977 0,-0.375356 0.189089,-0.578555 0.189089,-0.2032 0.513644,-0.2032 0.206022,0 0.361244,0.09313 0.158045,0.09031 0.245533,0.265289 0.09031,0.172155 0.09031,0.423333 z m -1.143,0 q 0,0.268111 0.104423,0.426155 0.107244,0.155222 0.338666,0.155222 0.2286,0 0.335844,-0.155222 0.107245,-0.158044 0.107245,-0.426155 0,-0.268111 -0.107245,-0.420511 -0.107244,-0.1524 -0.338666,-0.1524 -0.231422,0 -0.335844,0.1524 -0.104423,0.1524 -0.104423,0.420511 z m 1.783642,-0.8636 q 0,0.09596 -0.0056,0.180622 -0.0028,0.08185 -0.0085,0.129823 h 0.01411 q 0.06491,-0.09596 0.1778,-0.160867 0.112889,-0.06491 0.290689,-0.06491 0.282222,0 0.451555,0.197555 0.172155,0.194734 0.172155,0.5842 0,0.389466 -0.172155,0.587022 -0.172155,0.197555 -0.451555,0.197555 -0.1778,0 -0.290689,-0.06491 -0.112889,-0.06491 -0.1778,-0.155222 h -0.01975 l -0.0508,0.191911 h -0.1778 v -2.144887 h 0.248355 z m 0.426156,0.290689 q -0.239889,0 -0.333022,0.138289 -0.09313,0.138289 -0.09313,0.428977 v 0.01129 q 0,0.2794 0.09031,0.428978 0.09313,0.146755 0.341489,0.146755 0.2032,0 0.301977,-0.149578 0.1016,-0.149577 0.1016,-0.431799 0,-0.572911 -0.409221,-0.572911 z m 1.634064,-0.206022 q 0.276578,0 0.409222,0.121355 0.132644,0.121356 0.132644,0.386645 v 1.03011 h -0.180622 l -0.04798,-0.214489 h -0.01129 q -0.09878,0.124178 -0.208844,0.183445 -0.107244,0.05927 -0.299155,0.05927 -0.206022,0 -0.341489,-0.107244 -0.135466,-0.110067 -0.135466,-0.341489 0,-0.225777 0.1778,-0.347133 0.177799,-0.124178 0.54751,-0.135466 l 0.256822,-0.0085 v -0.09031 q 0,-0.189089 -0.08184,-0.262467 -0.08184,-0.07338 -0.231422,-0.07338 -0.118533,0 -0.225778,0.03669 -0.107244,0.03387 -0.200377,0.07902 l -0.0762,-0.186267 q 0.09878,-0.05362 0.234244,-0.09031 0.135467,-0.03951 0.282222,-0.03951 z m 0.07338,0.807155 q -0.282222,0.01129 -0.392289,0.09031 -0.107244,0.07902 -0.107244,0.222955 0,0.127 0.0762,0.186267 0.07902,0.05927 0.200377,0.05927 0.191911,0 0.318911,-0.104423 0.127,-0.107244 0.127,-0.327377 V 42.82234 Z m 0.900291,0.578555 q 0,-0.104422 0.0508,-0.146755 0.0508,-0.04233 0.121355,-0.04233 0.07338,0 0.124178,0.04233 0.05362,0.04233 0.05362,0.146755 0,0.1016 -0.05362,0.146756 -0.0508,0.04515 -0.124178,0.04515 -0.07056,0 -0.121355,-0.04515 -0.0508,-0.04516 -0.0508,-0.146756 z m 1.39982,0.180622 q -0.200378,0 -0.358422,-0.08184 -0.155222,-0.08185 -0.245533,-0.254 -0.08749,-0.172155 -0.08749,-0.440266 0,-0.2794 0.09313,-0.454378 0.09313,-0.174977 0.251178,-0.256822 0.160866,-0.08184 0.364066,-0.08184 0.115711,0 0.222955,0.0254 0.107245,0.02258 0.174978,0.05644 l -0.0762,0.206022 q -0.06773,-0.0254 -0.158044,-0.04798 -0.09031,-0.02258 -0.169334,-0.02258 -0.44591,0 -0.44591,0.57291 0,0.273756 0.107244,0.420511 0.110067,0.143933 0.324555,0.143933 0.124178,0 0.217311,-0.0254 0.09596,-0.0254 0.174978,-0.06209 v 0.220133 q -0.0762,0.03951 -0.169333,0.05927 -0.09031,0.02258 -0.220133,0.02258 z m 1.732841,-0.445911 q 0,0.220134 -0.163688,0.333022 -0.163689,0.112889 -0.440267,0.112889 -0.158044,0 -0.273755,-0.0254 -0.112889,-0.0254 -0.200378,-0.07055 v -0.225778 q 0.09031,0.04516 0.217311,0.08467 0.129822,0.03669 0.262467,0.03669 0.189089,0 0.273755,-0.05927 0.08467,-0.06209 0.08467,-0.163689 0,-0.05644 -0.03104,-0.1016 -0.03104,-0.04516 -0.112889,-0.09031 -0.07902,-0.04516 -0.228599,-0.1016 -0.146756,-0.05644 -0.251178,-0.112889 -0.104422,-0.05644 -0.160866,-0.135466 -0.05644,-0.07902 -0.05644,-0.2032 0,-0.191911 0.155222,-0.296333 0.158045,-0.104422 0.412044,-0.104422 0.138289,0 0.256822,0.02822 0.121356,0.0254 0.225778,0.07338 l -0.08467,0.197555 q -0.09596,-0.03951 -0.200377,-0.06773 -0.104422,-0.02822 -0.214489,-0.02822 -0.1524,0 -0.234244,0.0508 -0.07902,0.04798 -0.07902,0.132644 0,0.06209 0.03669,0.107244 0.03669,0.04233 0.121356,0.08467 0.08749,0.03951 0.231422,0.09595 0.143933,0.05362 0.245533,0.110067 0.1016,0.05644 0.155222,0.138289 0.05362,0.07902 0.05362,0.200377 z m 0.699911,0.417689 -0.57291,-1.51271 h 0.265288 l 0.321734,0.891822 q 0.02258,0.06209 0.04798,0.138288 0.0254,0.0762 0.04516,0.146756 0.01976,0.06773 0.02822,0.115711 h 0.01129 q 0.01129,-0.04798 0.03104,-0.118533 0.02258,-0.07056 0.04798,-0.146756 0.02822,-0.0762 0.04798,-0.135466 l 0.321733,-0.891822 h 0.265289 l -0.575733,1.51271 z"
       id="text3-6-0-0"
       style="font-size:2.82222px;line-height:0.9;font-family:'Noto Sans';-inkscape-font-specification:'Noto Sans';text-align:center;text-anchor:middle;fill:#e4f4fa;stroke-width:0.264583;stroke-linejoin:round;stroke-dashoffset:26;stroke-opacity:0.208511;paint-order:markers fill stroke"
       aria-label="boba.csv" />
    <path
       style="font-weight:500;font-size:2.82222px;line-height:0.9;font-family:'Noto Sans';-inkscape-font-specification:'Noto Sans Medium';text-align:center;text-anchor:middle;fill:#b5a125;stroke-width:0.264583;stroke-linejoin:round;stroke-dashoffset:26;stroke-opacity:0.208511;paint-order:markers fill stroke"
       d="m 49.799177,12.960251 q -0.301977,0 -0.474133,0.206022 -0.172155,0.206022 -0.172155,0.570088 0,0.358422 0.160867,0.564444 0.163688,0.206022 0.488244,0.206022 0.129822,0 0.248355,-0.0254 0.121355,-0.0254 0.239889,-0.06209 v 0.262466 q -0.118534,0.04516 -0.242711,0.06491 -0.121356,0.02258 -0.287867,0.02258 -0.310444,0 -0.519288,-0.127 -0.206022,-0.129822 -0.307622,-0.361244 -0.1016,-0.234244 -0.1016,-0.547511 0,-0.3048 0.112889,-0.539044 0.112889,-0.234244 0.327377,-0.364066 0.217311,-0.132645 0.530578,-0.132645 0.1524,0 0.299155,0.03104 0.146755,0.03104 0.268111,0.09031 l -0.112889,0.254 q -0.09596,-0.04516 -0.211666,-0.07902 -0.112889,-0.03387 -0.245534,-0.03387 z m 2.235199,1.015999 q 0,0.381 -0.194733,0.587022 -0.194733,0.206022 -0.524933,0.206022 -0.206022,0 -0.366888,-0.09313 -0.158045,-0.09313 -0.251178,-0.268111 -0.09031,-0.1778 -0.09031,-0.4318 0,-0.375355 0.191911,-0.578555 0.191911,-0.206022 0.524933,-0.206022 0.208844,0 0.366889,0.09313 0.160866,0.09031 0.251177,0.265289 0.09313,0.174977 0.09313,0.426155 z m -1.120421,0 q 0,0.256822 0.09596,0.4064 0.09878,0.146755 0.310444,0.146755 0.208844,0 0.304799,-0.146755 0.09878,-0.149578 0.09878,-0.4064 0,-0.254 -0.09878,-0.397933 -0.09596,-0.143933 -0.307621,-0.143933 -0.211667,0 -0.307622,0.143933 -0.09596,0.143933 -0.09596,0.397933 z m 2.243665,-0.527755 h -0.375355 v 1.292577 H 52.48311 v -1.292577 h -0.256822 v -0.141111 l 0.256822,-0.09313 v -0.09596 q 0,-0.290689 0.132644,-0.412044 0.135467,-0.124178 0.375355,-0.124178 0.09878,0 0.180622,0.01693 0.08185,0.01693 0.138289,0.03669 l -0.0762,0.228599 q -0.04798,-0.01411 -0.107244,-0.0254 -0.05644,-0.01411 -0.121356,-0.01411 -0.222955,0 -0.222955,0.296333 v 0.09878 h 0.375355 z m 1.004711,0 h -0.375356 v 1.292577 H 53.48782 v -1.292577 h -0.256822 v -0.141111 l 0.256822,-0.09313 v -0.09596 q 0,-0.290689 0.132644,-0.412044 0.135467,-0.124178 0.375356,-0.124178 0.09878,0 0.180622,0.01693 0.08184,0.01693 0.138288,0.03669 l -0.0762,0.228599 q -0.04798,-0.01411 -0.107244,-0.0254 -0.05644,-0.01411 -0.121355,-0.01411 -0.222956,0 -0.222956,0.296333 v 0.09878 h 0.375356 z m 0.86642,-0.256822 q 0.299155,0 0.47131,0.186266 0.172156,0.183445 0.172156,0.502356 v 0.166511 h -1.021644 q 0.0056,0.231422 0.124178,0.355599 0.118533,0.124178 0.333022,0.124178 0.143933,0 0.256822,-0.0254 0.115711,-0.02822 0.234244,-0.08184 v 0.248355 q -0.115711,0.0508 -0.234244,0.0762 -0.115711,0.0254 -0.276578,0.0254 -0.220133,0 -0.389466,-0.08749 -0.166511,-0.08749 -0.262467,-0.259644 -0.09313,-0.174978 -0.09313,-0.4318 0,-0.254 0.08467,-0.4318 0.08749,-0.177799 0.239888,-0.270933 0.155222,-0.09596 0.361245,-0.09596 z m 0.0028,0.231422 q -0.163689,0 -0.259644,0.104422 -0.09596,0.104422 -0.115711,0.296333 h 0.716843 q -0.0028,-0.1778 -0.08749,-0.287866 -0.08185,-0.112889 -0.254,-0.112889 z m 1.61713,-0.231422 q 0.299155,0 0.471311,0.186266 0.172155,0.183445 0.172155,0.502356 v 0.166511 h -1.021644 q 0.0056,0.231422 0.124178,0.355599 0.118533,0.124178 0.333022,0.124178 0.143933,0 0.256822,-0.0254 0.115711,-0.02822 0.234244,-0.08184 v 0.248355 q -0.115711,0.0508 -0.234244,0.0762 -0.115711,0.0254 -0.276578,0.0254 -0.220133,0 -0.389466,-0.08749 -0.166511,-0.08749 -0.262466,-0.259644 -0.09313,-0.174978 -0.09313,-0.4318 0,-0.254 0.08467,-0.4318 0.08749,-0.177799 0.239889,-0.270933 0.155222,-0.09596 0.361244,-0.09596 z m 0.0028,0.231422 q -0.163689,0 -0.259644,0.104422 -0.09596,0.104422 -0.115711,0.296333 h 0.716844 q -0.0028,-0.1778 -0.08749,-0.287866 -0.08184,-0.112889 -0.253999,-0.112889 z"
       id="text3-2-0-4-6"
       aria-label="Coffee" />
    <path
       d="m 4.6425661,27.182145 q 0,-0.08184 0.042333,-0.118534 0.042333,-0.03951 0.1044222,-0.03951 0.056444,0 0.098778,0.03951 0.045155,0.03669 0.045155,0.118534 0,0.07902 -0.045155,0.118533 -0.042333,0.03951 -0.098778,0.03951 -0.062089,0 -0.1044222,-0.03951 -0.042333,-0.03951 -0.042333,-0.118533 z m -0.1580443,2.599264 q -0.070555,0 -0.1241777,-0.01129 -0.053622,-0.0085 -0.093133,-0.02258 v -0.200378 q 0.042333,0.01129 0.087489,0.01975 0.045155,0.0085 0.098778,0.0085 0.090311,0 0.1495777,-0.0508 0.059267,-0.04798 0.059267,-0.186266 V 27.591366 H 4.910677 v 1.738488 q 0,0.211666 -0.1015999,0.3302 -0.1015999,0.121355 -0.3245553,0.121355 z m 2.1702856,-2.190043 v 1.51271 H 6.4516076 l -0.036689,-0.200377 h -0.011289 q -0.073378,0.118533 -0.2031999,0.174977 -0.1298221,0.05362 -0.2765776,0.05362 -0.2737553,0 -0.4120441,-0.129823 -0.1382888,-0.132644 -0.1382888,-0.42051 v -0.9906 h 0.2511776 v 0.973666 q 0,0.361245 0.3358442,0.361245 0.2511776,0 0.3471331,-0.141111 0.098778,-0.141111 0.098778,-0.4064 v -0.7874 z M 7.2615849,27.0241 q 0.056444,0 0.098778,0.03951 0.045155,0.03669 0.045155,0.118534 0,0.07902 -0.045155,0.118533 -0.042333,0.03951 -0.098778,0.03951 -0.062089,0 -0.1044221,-0.03951 -0.042333,-0.03951 -0.042333,-0.118533 0,-0.08184 0.042333,-0.118534 0.042333,-0.03951 0.1044221,-0.03951 z m 0.1213555,0.567266 v 1.51271 H 7.134585 v -1.51271 z m 1.086553,1.540933 q -0.2003776,0 -0.358422,-0.08185 -0.1552221,-0.08184 -0.2455331,-0.254 -0.087489,-0.172155 -0.087489,-0.440266 0,-0.2794 0.093133,-0.454377 0.093133,-0.174978 0.2511776,-0.256822 0.1608666,-0.08184 0.3640664,-0.08184 0.115711,0 0.2229554,0.0254 0.1072444,0.02258 0.1749776,0.05645 l -0.0762,0.206022 q -0.067733,-0.0254 -0.1580443,-0.04798 -0.090311,-0.02258 -0.1693332,-0.02258 -0.4459108,0 -0.4459108,0.572911 0,0.273755 0.1072444,0.420511 0.1100665,0.143933 0.3245553,0.143933 0.1241776,0 0.2173109,-0.0254 0.095956,-0.0254 0.1749777,-0.06209 v 0.220133 q -0.0762,0.03951 -0.1693332,0.05927 -0.090311,0.02258 -0.2201332,0.02258 z m 1.3320863,-1.569155 q 0.1947332,0 0.3330223,0.08467 0.141111,0.08467 0.214488,0.239889 0.0762,0.152399 0.0762,0.358421 v 0.149578 H 9.3895356 q 0.00564,0.256822 0.1298221,0.392289 0.1269999,0.132644 0.3527775,0.132644 0.1439328,0 0.2539998,-0.0254 0.112889,-0.02822 0.231422,-0.07902 v 0.217311 q -0.115711,0.0508 -0.2286,0.07338 -0.112889,0.0254 -0.2681107,0.0254 -0.2144887,0 -0.3809997,-0.08749 -0.1636887,-0.08749 -0.256822,-0.259644 -0.090311,-0.174978 -0.090311,-0.426156 0,-0.248355 0.081844,-0.426155 0.084667,-0.1778 0.2342443,-0.273755 0.1523999,-0.09596 0.3527775,-0.09596 z m -0.00282,0.2032 q -0.1777999,0 -0.282222,0.115711 -0.1015999,0.112889 -0.1213555,0.316089 H 10.165648 Q 10.162848,28.006233 10.075338,27.8877 9.987849,27.766344 9.7987607,27.766344 Z m 0.9736633,1.185333 q 0,-0.104423 0.0508,-0.146756 0.0508,-0.04233 0.121356,-0.04233 0.07338,0 0.124178,0.04233 0.05362,0.04233 0.05362,0.146756 0,0.101599 -0.05362,0.146755 -0.0508,0.04516 -0.124178,0.04516 -0.07056,0 -0.121356,-0.04516 -0.0508,-0.04516 -0.0508,-0.146755 z m 1.39982,0.180622 q -0.200377,0 -0.358422,-0.08185 -0.155222,-0.08184 -0.245533,-0.254 -0.08749,-0.172155 -0.08749,-0.440266 0,-0.2794 0.09313,-0.454377 0.09313,-0.174978 0.251177,-0.256822 0.160867,-0.08184 0.364067,-0.08184 0.115711,0 0.222955,0.0254 0.107245,0.02258 0.174978,0.05645 l -0.0762,0.206022 q -0.06773,-0.0254 -0.158044,-0.04798 -0.09031,-0.02258 -0.169334,-0.02258 -0.44591,0 -0.44591,0.572911 0,0.273755 0.107244,0.420511 0.110066,0.143933 0.324555,0.143933 0.124178,0 0.217311,-0.0254 0.09596,-0.0254 0.174978,-0.06209 v 0.220133 q -0.0762,0.03951 -0.169333,0.05927 -0.09031,0.02258 -0.220134,0.02258 z m 1.732842,-0.445911 q 0,0.220133 -0.163689,0.333022 -0.163688,0.112889 -0.440266,0.112889 -0.158044,0 -0.273755,-0.0254 -0.112889,-0.0254 -0.200378,-0.07056 v -0.225778 q 0.09031,0.04516 0.217311,0.08467 0.129822,0.03669 0.262467,0.03669 0.189088,0 0.273755,-0.05927 0.08467,-0.06209 0.08467,-0.163688 0,-0.05645 -0.03105,-0.1016 -0.03104,-0.04516 -0.112889,-0.09031 -0.07902,-0.04516 -0.228599,-0.1016 -0.146756,-0.05645 -0.251178,-0.112889 -0.104422,-0.05645 -0.160867,-0.135467 -0.05644,-0.07902 -0.05644,-0.2032 0,-0.19191 0.155222,-0.296333 0.158044,-0.104422 0.412044,-0.104422 0.138289,0 0.256822,0.02822 0.121356,0.0254 0.225778,0.07338 l -0.08467,0.197556 q -0.09596,-0.03951 -0.200377,-0.06773 -0.104423,-0.02822 -0.214489,-0.02822 -0.1524,0 -0.234244,0.0508 -0.07902,0.04798 -0.07902,0.132644 0,0.06209 0.03669,0.107245 0.03669,0.04233 0.121356,0.08467 0.08749,0.03951 0.231422,0.09596 0.143933,0.05362 0.245533,0.110066 0.1016,0.05645 0.155222,0.138289 0.05362,0.07902 0.05362,0.200378 z m 0.699911,0.417688 -0.57291,-1.51271 h 0.265288 l 0.321733,0.891822 q 0.02258,0.06209 0.04798,0.138289 0.0254,0.0762 0.04516,0.146755 0.01975,0.06773 0.02822,0.115711 h 0.01129 q 0.01129,-0.04798 0.03104,-0.118533 0.02258,-0.07056 0.04798,-0.146755 0.02822,-0.0762 0.04798,-0.135467 l 0.321733,-0.891822 h 0.265288 l -0.575733,1.51271 z"
       id="text3-8-8"
       style="font-size:2.82222px;line-height:0.9;font-family:'Noto Sans';-inkscape-font-specification:'Noto Sans';text-align:center;text-anchor:middle;fill:#ffeec9;stroke-width:0.264583;stroke-linejoin:round;stroke-dashoffset:26;stroke-opacity:0.208511;paint-order:markers fill stroke"
       aria-label="juice.csv" />
    <path
       d="m 4.1557289,45.88431 q 0,0.220133 -0.1636888,0.333022 -0.1636887,0.112888 -0.4402663,0.112888 -0.1580443,0 -0.2737553,-0.0254 -0.1128888,-0.0254 -0.2003777,-0.07055 v -0.225778 q 0.090311,0.04516 0.217311,0.08467 0.1298221,0.03669 0.2624664,0.03669 0.1890888,0 0.2737554,-0.05927 0.084667,-0.06209 0.084667,-0.163689 0,-0.05644 -0.031044,-0.1016 -0.031044,-0.04516 -0.1128888,-0.09031 -0.079022,-0.04516 -0.2285999,-0.1016 -0.1467554,-0.05644 -0.2511775,-0.112888 -0.1044222,-0.05644 -0.1608666,-0.135467 -0.056444,-0.07902 -0.056444,-0.2032 0,-0.191911 0.1552221,-0.296333 0.1580443,-0.104422 0.4120441,-0.104422 0.1382888,0 0.2568221,0.02822 0.1213554,0.0254 0.2257776,0.07338 l -0.084667,0.197555 q -0.095955,-0.03951 -0.2003776,-0.06773 -0.1044222,-0.02822 -0.2144888,-0.02822 -0.1523999,0 -0.2342442,0.0508 -0.079022,0.04798 -0.079022,0.132644 0,0.06209 0.036689,0.107244 0.036689,0.04233 0.1213554,0.08467 0.087489,0.03951 0.2314221,0.09596 0.1439332,0.05362 0.2455331,0.110066 0.1015999,0.05645 0.1552221,0.138289 0.053622,0.07902 0.053622,0.200378 z m 0.6152443,-1.097844 q 0,0.112889 -0.014111,0.211666 h 0.016933 q 0.073378,-0.115711 0.1975554,-0.174977 0.1269999,-0.05927 0.2737554,-0.05927 0.2765775,0 0.4148663,0.132645 0.1382888,0.129822 0.1382888,0.42051 v 0.984955 h -0.245533 v -0.968021 q 0,-0.364067 -0.3386664,-0.364067 -0.2539998,0 -0.3499553,0.143933 -0.093133,0.141111 -0.093133,0.4064 v 0.781755 H 4.5226178 v -2.144887 h 0.2483554 z m 2.0686874,-0.02258 q 0.2765776,0 0.409222,0.121356 0.1326443,0.121355 0.1326443,0.386644 v 1.03011 H 7.2009048 l -0.047978,-0.214489 h -0.011289 q -0.098778,0.124178 -0.2088443,0.183445 -0.1072444,0.05927 -0.2991553,0.05927 -0.2060221,0 -0.3414886,-0.107244 -0.1354666,-0.110067 -0.1354666,-0.341489 0,-0.225777 0.1777999,-0.347133 0.1777998,-0.124177 0.5475106,-0.135466 l 0.2568221,-0.0085 v -0.09031 q 0,-0.189089 -0.081844,-0.262466 -0.081844,-0.07338 -0.2314221,-0.07338 -0.1185332,0 -0.2257776,0.03669 -0.1072443,0.03387 -0.2003776,0.07902 l -0.0762,-0.186267 q 0.098778,-0.05362 0.2342442,-0.09031 0.1354666,-0.03951 0.282222,-0.03951 z m 0.073378,0.807155 q -0.282222,0.01129 -0.3922886,0.09031 -0.1072444,0.07902 -0.1072444,0.222956 0,0.126999 0.0762,0.186266 0.079022,0.05927 0.2003776,0.05927 0.1919109,0 0.3189109,-0.104422 Q 7.135994,45.918176 7.135994,45.698043 V 45.562576 Z M 8.095551,45.27753 q 0,0.04516 -0.00564,0.118533 -0.00282,0.07338 -0.00564,0.127 H 8.09556 q 0.016933,-0.02258 0.0508,-0.06491 0.033867,-0.04233 0.067733,-0.08467 0.036689,-0.04516 0.062089,-0.07338 L 8.7587816,44.789281 H 9.0494703 L 8.4370485,45.43557 9.0918036,46.301991 H 8.7926392 l -0.524933,-0.705555 -0.1721554,0.149578 v 0.555977 H 7.8500177 v -2.144887 h 0.2455331 z m 1.8457331,-0.516466 q 0.1947329,0 0.3330219,0.08467 0.141111,0.08467 0.214489,0.239888 0.0762,0.1524 0.0762,0.358422 v 0.149578 H 9.5292398 q 0.00564,0.256822 0.1298221,0.392288 0.1269999,0.132645 0.3527771,0.132645 0.143934,0 0.254,-0.0254 0.112889,-0.02822 0.231422,-0.07902 v 0.217311 q -0.115711,0.0508 -0.2286,0.07338 -0.112888,0.0254 -0.26811,0.0254 -0.2144892,0 -0.3810001,-0.08749 -0.1636888,-0.08749 -0.2568221,-0.259645 -0.090311,-0.174977 -0.090311,-0.426155 0,-0.248355 0.081844,-0.426155 0.084667,-0.1778 0.2342442,-0.273756 0.1523999,-0.09596 0.3527775,-0.09596 z m -0.00282,0.2032 q -0.1777998,0 -0.282222,0.115711 -0.1015999,0.112889 -0.1213554,0.316088 H 10.30535 q -0.0028,-0.19191 -0.09031,-0.310444 -0.08749,-0.121355 -0.2765773,-0.121355 z m 1.9953069,0.920044 q 0,0.220133 -0.163689,0.333022 -0.163689,0.112888 -0.440266,0.112888 -0.158045,0 -0.273756,-0.0254 -0.112888,-0.0254 -0.200377,-0.07055 V 46.00849 q 0.09031,0.04516 0.217311,0.08467 0.129822,0.03669 0.262466,0.03669 0.189089,0 0.273756,-0.05927 0.08467,-0.06209 0.08467,-0.163689 0,-0.05644 -0.03104,-0.1016 -0.03105,-0.04516 -0.112889,-0.09031 -0.07902,-0.04516 -0.2286,-0.1016 -0.146755,-0.05644 -0.251178,-0.112888 -0.104422,-0.05644 -0.160866,-0.135467 -0.05644,-0.07902 -0.05644,-0.2032 0,-0.191911 0.155222,-0.296333 0.158044,-0.104422 0.412044,-0.104422 0.138289,0 0.256822,0.02822 0.121355,0.0254 0.225777,0.07338 l -0.08467,0.197555 q -0.09596,-0.03951 -0.200378,-0.06773 -0.104422,-0.02822 -0.214489,-0.02822 -0.152399,0 -0.234244,0.0508 -0.07902,0.04798 -0.07902,0.132644 0,0.06209 0.03669,0.107244 0.03669,0.04233 0.121355,0.08467 0.08749,0.03951 0.231422,0.09596 0.143934,0.05362 0.245534,0.110066 0.101599,0.05645 0.155222,0.138289 0.05362,0.07902 0.05362,0.200378 z m 0.3302,0.265288 q 0,-0.104422 0.0508,-0.146755 0.0508,-0.04233 0.121355,-0.04233 0.07338,0 0.124178,0.04233 0.05362,0.04233 0.05362,0.146755 0,0.1016 -0.05362,0.146756 -0.0508,0.04516 -0.124178,0.04516 -0.07055,0 -0.121355,-0.04516 -0.0508,-0.04516 -0.0508,-0.146756 z m 1.399821,0.180622 q -0.200378,0 -0.358422,-0.08184 -0.155223,-0.08184 -0.245534,-0.254 -0.08749,-0.172155 -0.08749,-0.440266 0,-0.2794 0.09313,-0.454378 0.09313,-0.174977 0.251177,-0.256822 0.160867,-0.08184 0.364067,-0.08184 0.115711,0 0.222955,0.0254 0.107245,0.02258 0.174978,0.05644 l -0.0762,0.206022 q -0.06773,-0.0254 -0.158044,-0.04798 -0.09031,-0.02258 -0.169334,-0.02258 -0.44591,0 -0.44591,0.572911 0,0.273755 0.107244,0.42051 0.110067,0.143934 0.324555,0.143934 0.124178,0 0.217311,-0.0254 0.09596,-0.0254 0.174978,-0.06209 v 0.220133 q -0.0762,0.03951 -0.169333,0.05927 -0.09031,0.02258 -0.220133,0.02258 z m 1.732841,-0.44591 q 0,0.220133 -0.163689,0.333022 -0.163689,0.112888 -0.440266,0.112888 -0.158045,0 -0.273756,-0.0254 -0.112888,-0.0254 -0.200377,-0.07055 V 46.00849 q 0.09031,0.04516 0.217311,0.08467 0.129822,0.03669 0.262466,0.03669 0.189089,0 0.273756,-0.05927 0.08467,-0.06209 0.08467,-0.163689 0,-0.05644 -0.03104,-0.1016 -0.03105,-0.04516 -0.112889,-0.09031 -0.07902,-0.04516 -0.2286,-0.1016 -0.146755,-0.05644 -0.251177,-0.112888 -0.104423,-0.05644 -0.160867,-0.135467 -0.05644,-0.07902 -0.05644,-0.2032 0,-0.191911 0.155222,-0.296333 0.158044,-0.104422 0.412044,-0.104422 0.138289,0 0.256822,0.02822 0.121355,0.0254 0.225777,0.07338 l -0.08467,0.197555 q -0.09596,-0.03951 -0.200378,-0.06773 -0.104422,-0.02822 -0.214489,-0.02822 -0.152399,0 -0.234244,0.0508 -0.07902,0.04798 -0.07902,0.132644 0,0.06209 0.03669,0.107244 0.03669,0.04233 0.121355,0.08467 0.08749,0.03951 0.231422,0.09596 0.143934,0.05362 0.245534,0.110066 0.101599,0.05645 0.155222,0.138289 0.05362,0.07902 0.05362,0.200378 z m 0.699911,0.417688 -0.572911,-1.51271 h 0.265289 l 0.321733,0.891822 q 0.02258,0.06209 0.04798,0.138289 0.0254,0.0762 0.04516,0.146755 0.01976,0.06773 0.02822,0.115711 h 0.01129 q 0.01129,-0.04798 0.03105,-0.118533 0.02258,-0.07056 0.04798,-0.146756 0.02822,-0.0762 0.04798,-0.135466 l 0.321733,-0.891822 h 0.265289 l -0.575733,1.51271 z"
       id="text3-80-2"
       style="font-size:2.82222px;line-height:0.9;font-family:'Noto Sans';-inkscape-font-specification:'Noto Sans';text-align:center;text-anchor:middle;fill:#ffeec9;stroke-width:0.264583;stroke-linejoin:round;stroke-dashoffset:26;stroke-opacity:0.208511;paint-order:markers fill stroke"
       aria-label="shakes.csv" />
    <path
       d="m 75.549838,22.960856 q 0.05644,0 0.09878,0.03951 0.04515,0.03669 0.04515,0.118534 0,0.07902 -0.04515,0.118533 -0.04233,0.03951 -0.09878,0.03951 -0.06209,0 -0.104422,-0.03951 -0.04233,-0.03951 -0.04233,-0.118533 0,-0.08185 0.04233,-0.118534 0.04233,-0.03951 0.104422,-0.03951 z m 0.121355,0.567267 v 1.51271 h -0.248355 v -1.51271 z m 1.207909,-0.02822 q 0.270933,0 0.409222,0.132645 0.138289,0.129822 0.138289,0.423333 v 0.984955 H 77.18108 v -0.968022 q 0,-0.364066 -0.338667,-0.364066 -0.251177,0 -0.347133,0.141111 -0.09595,0.141111 -0.09595,0.406399 v 0.784578 h -0.248356 v -1.51271 h 0.200378 l 0.03669,0.206022 h 0.01411 q 0.07338,-0.118534 0.2032,-0.174978 0.129822,-0.05927 0.273755,-0.05927 z m 1.552221,1.569155 q -0.282222,0 -0.451555,-0.194733 -0.169333,-0.197556 -0.169333,-0.587022 0,-0.389467 0.169333,-0.587022 0.172155,-0.200378 0.454377,-0.200378 0.174978,0 0.285045,0.06491 0.112888,0.06491 0.183444,0.158045 h 0.01693 q -0.0028,-0.03669 -0.01129,-0.107245 -0.0056,-0.07338 -0.0056,-0.115711 v -0.603955 h 0.248355 v 2.144888 h -0.200377 l -0.03669,-0.2032 h -0.01129 q -0.06773,0.09596 -0.180622,0.163688 -0.112889,0.06773 -0.290689,0.06773 z m 0.03951,-0.206022 q 0.239889,0 0.335844,-0.129822 0.09878,-0.132645 0.09878,-0.397934 v -0.04516 q 0,-0.282222 -0.09313,-0.4318 -0.09313,-0.1524 -0.344311,-0.1524 -0.200378,0 -0.301977,0.160867 -0.09878,0.158044 -0.09878,0.426155 0,0.270933 0.09878,0.420511 0.101599,0.149578 0.304799,0.149578 z M 80.214965,23.4999 q 0.194733,0 0.333022,0.08467 0.141111,0.08467 0.214489,0.239889 0.0762,0.1524 0.0762,0.358422 v 0.149577 h -1.035755 q 0.0056,0.256822 0.129822,0.392289 0.127,0.132644 0.352778,0.132644 0.143933,0 0.254,-0.0254 0.112888,-0.02822 0.231422,-0.07902 v 0.217311 q -0.115711,0.0508 -0.2286,0.07338 -0.112889,0.0254 -0.268111,0.0254 -0.214489,0 -0.381,-0.08749 -0.163689,-0.08749 -0.256822,-0.259644 -0.09031,-0.174978 -0.09031,-0.426156 0,-0.248355 0.08185,-0.426155 0.08467,-0.1778 0.234244,-0.273755 0.1524,-0.09596 0.352777,-0.09596 z m -0.0028,0.2032 q -0.1778,0 -0.282222,0.115711 -0.1016,0.112889 -0.121355,0.316089 h 0.770466 q -0.0028,-0.191911 -0.09031,-0.310444 Q 80.401232,23.7031 80.212143,23.7031 Z m 1.312329,0.564444 -0.522111,-0.739421 h 0.282223 l 0.389466,0.570088 0.386644,-0.570088 h 0.2794 l -0.522111,0.739421 0.550333,0.773289 h -0.282222 l -0.412044,-0.603956 -0.417689,0.603956 h -0.279399 z m 1.097842,0.620889 q 0,-0.104423 0.0508,-0.146756 0.0508,-0.04233 0.121355,-0.04233 0.07338,0 0.124178,0.04233 0.05362,0.04233 0.05362,0.146756 0,0.1016 -0.05362,0.146755 -0.0508,0.04516 -0.124178,0.04516 -0.07056,0 -0.121355,-0.04516 -0.0508,-0.04516 -0.0508,-0.146755 z m 1.39982,0.180622 q -0.200378,0 -0.358422,-0.08184 -0.155222,-0.08184 -0.245533,-0.253999 -0.08749,-0.172156 -0.08749,-0.440267 0,-0.2794 0.09313,-0.454377 0.09313,-0.174978 0.251178,-0.256822 0.160866,-0.08185 0.364066,-0.08185 0.115711,0 0.222955,0.0254 0.107245,0.02258 0.174978,0.05645 l -0.0762,0.206022 q -0.06773,-0.0254 -0.158044,-0.04798 -0.09031,-0.02258 -0.169333,-0.02258 -0.445911,0 -0.445911,0.572911 0,0.273755 0.107244,0.420511 0.110067,0.143933 0.324556,0.143933 0.124177,0 0.217311,-0.0254 0.09596,-0.0254 0.174977,-0.06209 v 0.220133 q -0.0762,0.03951 -0.169333,0.05927 -0.09031,0.02258 -0.220133,0.02258 z m 1.732842,-0.445911 q 0,0.220133 -0.163689,0.333022 -0.163688,0.112889 -0.440266,0.112889 -0.158044,0 -0.273755,-0.0254 -0.112889,-0.0254 -0.200378,-0.07056 v -0.225777 q 0.09031,0.04516 0.217311,0.08467 0.129822,0.03669 0.262466,0.03669 0.189089,0 0.273756,-0.05927 0.08467,-0.06209 0.08467,-0.163688 0,-0.05645 -0.03104,-0.1016 -0.03104,-0.04516 -0.112889,-0.09031 -0.07902,-0.04516 -0.2286,-0.1016 -0.146755,-0.05645 -0.251177,-0.112889 -0.104422,-0.05644 -0.160867,-0.135467 -0.05644,-0.07902 -0.05644,-0.203199 0,-0.191911 0.155222,-0.296334 0.158044,-0.104422 0.412044,-0.104422 0.138289,0 0.256822,0.02822 0.121356,0.0254 0.225778,0.07338 l -0.08467,0.197556 q -0.09595,-0.03951 -0.200378,-0.06773 -0.104422,-0.02822 -0.214488,-0.02822 -0.1524,0 -0.234245,0.0508 -0.07902,0.04798 -0.07902,0.132645 0,0.06209 0.03669,0.107244 0.03669,0.04233 0.121356,0.08467 0.08749,0.03951 0.231422,0.09596 0.143933,0.05362 0.245533,0.110067 0.1016,0.05644 0.155222,0.138288 0.05362,0.07902 0.05362,0.200378 z m 0.699911,0.417689 -0.572911,-1.51271 h 0.265289 l 0.321733,0.891821 q 0.02258,0.06209 0.04798,0.138289 0.0254,0.0762 0.04515,0.146755 0.01976,0.06773 0.02822,0.115711 h 0.01129 q 0.01129,-0.04798 0.03104,-0.118533 0.02258,-0.07055 0.04798,-0.146755 0.02822,-0.0762 0.04798,-0.135467 l 0.321734,-0.891821 h 0.265288 l -0.575733,1.51271 z"
       id="text4"
       style="font-size:2.82222px;line-height:0.9;font-family:'Noto Sans';-inkscape-font-specification:'Noto Sans';text-align:center;text-anchor:middle;fill:#ffffff;fill-opacity:1;stroke-width:0.264583;stroke-linejoin:round;stroke-dashoffset:26;stroke-opacity:0.208511;paint-order:markers fill stroke"
       transform="translate(-10.451041,-9.2604156)"
       aria-label="index.csv" />
    <path
       d="m 76.186246,38.051982 q 0.256822,0 0.383821,0.132645 0.127,0.129822 0.127,0.423333 v 0.984955 h -0.245533 v -0.973666 q 0,-0.358422 -0.307622,-0.358422 -0.220133,0 -0.316088,0.127 -0.09313,0.127 -0.09313,0.36971 v 0.835378 h -0.245533 v -0.973666 q 0,-0.358422 -0.310444,-0.358422 -0.2286,0 -0.316089,0.141111 -0.08749,0.141111 -0.08749,0.406399 v 0.784578 H 74.52678 v -1.51271 h 0.200378 l 0.03669,0.206022 h 0.01411 q 0.07055,-0.118534 0.189088,-0.174978 0.121356,-0.05927 0.256823,-0.05927 0.355599,0 0.462844,0.254 h 0.01411 q 0.0762,-0.129822 0.206022,-0.191911 0.132644,-0.06209 0.2794,-0.06209 z m 2.294463,0.781755 q 0,0.375356 -0.191911,0.581378 -0.189089,0.206022 -0.513644,0.206022 -0.200378,0 -0.358422,-0.09031 -0.155222,-0.09313 -0.245533,-0.268111 -0.09031,-0.1778 -0.09031,-0.428978 0,-0.375355 0.189088,-0.578555 0.189089,-0.2032 0.513645,-0.2032 0.206022,0 0.361244,0.09313 0.158044,0.09031 0.245533,0.265288 0.09031,0.172156 0.09031,0.423333 z m -1.142999,0 q 0,0.268111 0.104422,0.426156 0.107244,0.155222 0.338666,0.155222 0.2286,0 0.335844,-0.155222 0.107245,-0.158045 0.107245,-0.426156 0,-0.268111 -0.107245,-0.42051 -0.107244,-0.1524 -0.338666,-0.1524 -0.231422,0 -0.335844,0.1524 -0.104422,0.152399 -0.104422,0.42051 z m 2.142064,0.7874 q -0.200378,0 -0.358422,-0.08184 -0.155222,-0.08184 -0.245533,-0.253999 -0.08749,-0.172156 -0.08749,-0.440267 0,-0.2794 0.09313,-0.454377 0.09313,-0.174978 0.251178,-0.256822 0.160866,-0.08184 0.364066,-0.08184 0.115711,0 0.222955,0.0254 0.107245,0.02258 0.174978,0.05644 l -0.0762,0.206022 q -0.06773,-0.0254 -0.158044,-0.04798 -0.09031,-0.02258 -0.169333,-0.02258 -0.445911,0 -0.445911,0.572911 0,0.273755 0.107244,0.420511 0.110067,0.143933 0.324555,0.143933 0.124178,0 0.217311,-0.0254 0.09596,-0.0254 0.174978,-0.06209 v 0.220133 q -0.0762,0.03951 -0.169333,0.05927 -0.09031,0.02258 -0.220133,0.02258 z m 0.996242,-1.543755 q 0,0.112889 -0.01411,0.211667 h 0.01693 q 0.07338,-0.115711 0.197555,-0.174978 0.127,-0.05927 0.273756,-0.05927 0.276577,0 0.414866,0.132644 0.138289,0.129822 0.138289,0.420511 v 0.984955 h -0.245533 v -0.968022 q 0,-0.364066 -0.338667,-0.364066 -0.254,0 -0.349955,0.143933 -0.09313,0.141111 -0.09313,0.4064 v 0.781755 H 80.22766 v -2.144888 h 0.248356 z m 2.068687,-0.02258 q 0.276577,0 0.409222,0.121355 0.132644,0.121356 0.132644,0.386644 v 1.030111 h -0.180622 l -0.04798,-0.214489 h -0.01129 q -0.09878,0.124178 -0.208844,0.183444 -0.107244,0.05927 -0.299155,0.05927 -0.206022,0 -0.341489,-0.107245 -0.135466,-0.110066 -0.135466,-0.341488 0,-0.225778 0.1778,-0.347133 0.177799,-0.124178 0.54751,-0.135467 l 0.256822,-0.0085 v -0.09031 q 0,-0.189088 -0.08184,-0.262466 -0.08184,-0.07338 -0.231422,-0.07338 -0.118533,0 -0.225778,0.03669 -0.107244,0.03387 -0.200377,0.07902 l -0.0762,-0.186266 q 0.09878,-0.05362 0.234244,-0.09031 0.135466,-0.03951 0.282222,-0.03951 z m 0.07338,0.807155 q -0.282222,0.01129 -0.392289,0.09031 -0.107244,0.07902 -0.107244,0.222955 0,0.127 0.0762,0.186267 0.07902,0.05927 0.200377,0.05927 0.191911,0 0.318911,-0.104422 0.127,-0.107244 0.127,-0.327378 v -0.135466 z m 0.900291,0.578555 q 0,-0.104422 0.0508,-0.146756 0.0508,-0.04233 0.121355,-0.04233 0.07338,0 0.124178,0.04233 0.05362,0.04233 0.05362,0.146756 0,0.1016 -0.05362,0.146755 -0.0508,0.04516 -0.124178,0.04516 -0.07056,0 -0.121355,-0.04516 -0.0508,-0.04515 -0.0508,-0.146755 z m 1.399819,0.180622 q -0.200378,0 -0.358422,-0.08184 -0.155222,-0.08184 -0.245533,-0.253999 -0.08749,-0.172156 -0.08749,-0.440267 0,-0.2794 0.09313,-0.454377 0.09313,-0.174978 0.251178,-0.256822 0.160867,-0.08184 0.364066,-0.08184 0.115711,0 0.222956,0.0254 0.107244,0.02258 0.174977,0.05644 l -0.0762,0.206022 q -0.06773,-0.0254 -0.158045,-0.04798 -0.09031,-0.02258 -0.169333,-0.02258 -0.445911,0 -0.445911,0.572911 0,0.273755 0.107245,0.420511 0.110066,0.143933 0.324555,0.143933 0.124178,0 0.217311,-0.0254 0.09596,-0.0254 0.174977,-0.06209 v 0.220133 q -0.0762,0.03951 -0.169333,0.05927 -0.09031,0.02258 -0.220133,0.02258 z m 1.732842,-0.445911 q 0,0.220133 -0.163688,0.333022 -0.163689,0.112889 -0.440267,0.112889 -0.158044,0 -0.273755,-0.0254 -0.112889,-0.0254 -0.200378,-0.07056 v -0.225777 q 0.09031,0.04515 0.217311,0.08467 0.129822,0.03669 0.262467,0.03669 0.189088,0 0.273755,-0.05927 0.08467,-0.06209 0.08467,-0.163689 0,-0.05644 -0.03105,-0.1016 -0.03104,-0.04516 -0.112889,-0.09031 -0.07902,-0.04516 -0.228599,-0.1016 -0.146756,-0.05645 -0.251178,-0.112889 -0.104422,-0.05644 -0.160866,-0.135466 -0.05645,-0.07902 -0.05645,-0.2032 0,-0.191911 0.155222,-0.296333 0.158045,-0.104423 0.412044,-0.104423 0.138289,0 0.256822,0.02822 0.121356,0.0254 0.225778,0.07338 l -0.08467,0.197556 q -0.09595,-0.03951 -0.200377,-0.06773 -0.104422,-0.02822 -0.214489,-0.02822 -0.1524,0 -0.234244,0.0508 -0.07902,0.04798 -0.07902,0.132645 0,0.06209 0.03669,0.107244 0.03669,0.04233 0.121356,0.08467 0.08749,0.03951 0.231422,0.09595 0.143933,0.05362 0.245533,0.110067 0.1016,0.05644 0.155222,0.138288 0.05362,0.07902 0.05362,0.200378 z m 0.699911,0.417689 -0.57291,-1.51271 h 0.265288 l 0.321733,0.891821 q 0.02258,0.06209 0.04798,0.138289 0.0254,0.0762 0.04516,0.146755 0.01975,0.06773 0.02822,0.115711 h 0.01129 q 0.01129,-0.04798 0.03104,-0.118533 0.02258,-0.07055 0.04798,-0.146755 0.02822,-0.0762 0.04798,-0.135467 l 0.321733,-0.891821 h 0.265289 l -0.575733,1.51271 z"
       id="text5"
       style="font-size:2.82222px;line-height:0.9;font-family:'Noto Sans';-inkscape-font-specification:'Noto Sans';text-align:center;text-anchor:middle;fill:#fffffa;stroke-width:0.264583;stroke-linejoin:round;stroke-dashoffset:26;stroke-opacity:0.208511;paint-order:markers fill stroke"
       transform="translate(-10.451041,-9.2604156)"
       aria-label="mocha.csv" />
    <path
       d="M 59.120976,39.592915 H 58.87262 v -2.144888 h 0.248356 z m 1.052686,-1.53811 q 0.276578,0 0.409222,0.121355 0.132644,0.121356 0.132644,0.386644 v 1.030111 h -0.180622 l -0.04798,-0.214489 h -0.01129 q -0.09878,0.124178 -0.208845,0.183444 -0.107244,0.05927 -0.299155,0.05927 -0.206022,0 -0.341489,-0.107245 -0.135466,-0.110066 -0.135466,-0.341488 0,-0.225778 0.1778,-0.347133 0.1778,-0.124178 0.54751,-0.135467 l 0.256822,-0.0085 v -0.09031 q 0,-0.189088 -0.08184,-0.262466 -0.08184,-0.07338 -0.231422,-0.07338 -0.118533,0 -0.225778,0.03669 -0.107244,0.03387 -0.200377,0.07902 l -0.0762,-0.186266 q 0.09878,-0.05362 0.234244,-0.09031 0.135467,-0.03951 0.282222,-0.03951 z m 0.07338,0.807155 q -0.282222,0.01129 -0.392289,0.09031 -0.107244,0.07902 -0.107244,0.222955 0,0.127 0.0762,0.186267 0.07902,0.05927 0.200377,0.05927 0.191911,0 0.318911,-0.104422 0.127,-0.107244 0.127,-0.327378 v -0.135466 z m 1.442157,0.555977 q 0.05644,0 0.115711,-0.0085 0.05927,-0.01129 0.09596,-0.02258 v 0.189088 q -0.03951,0.01976 -0.112889,0.03104 -0.07338,0.01411 -0.141111,0.01411 -0.118533,0 -0.220133,-0.03951 -0.09878,-0.04233 -0.160866,-0.143934 -0.06209,-0.101599 -0.06209,-0.285044 v -0.880532 h -0.214489 v -0.118534 l 0.217311,-0.09878 0.09878,-0.321733 h 0.146755 v 0.347133 h 0.437444 v 0.191911 H 61.45213 v 0.874888 q 0,0.138289 0.06491,0.206022 0.06773,0.06491 0.172156,0.06491 z m 1.018821,0 q 0.05644,0 0.115711,-0.0085 0.05927,-0.01129 0.09596,-0.02258 v 0.189088 q -0.03951,0.01976 -0.112889,0.03104 -0.07338,0.01411 -0.141111,0.01411 -0.118533,0 -0.220133,-0.03951 -0.09878,-0.04233 -0.160867,-0.143934 -0.06209,-0.101599 -0.06209,-0.285044 v -0.880532 h -0.214488 v -0.118534 l 0.217311,-0.09878 0.09878,-0.321733 h 0.146756 v 0.347133 h 0.437444 v 0.191911 H 62.47096 v 0.874888 q 0,0.138289 0.06491,0.206022 0.06773,0.06491 0.172155,0.06491 z m 1.097844,-1.365955 q 0.194733,0 0.333022,0.08467 0.141111,0.08467 0.214488,0.239889 0.0762,0.1524 0.0762,0.358422 V 38.88454 H 63.39382 q 0.0056,0.256822 0.129822,0.392289 0.127,0.132644 0.352777,0.132644 0.143933,0 0.254,-0.0254 0.112889,-0.02822 0.231422,-0.07902 v 0.217311 q -0.115711,0.0508 -0.2286,0.07338 -0.112889,0.0254 -0.268111,0.0254 -0.214488,0 -0.380999,-0.08749 -0.163689,-0.08749 -0.256822,-0.259644 -0.09031,-0.174978 -0.09031,-0.426156 0,-0.248355 0.08184,-0.426155 0.08467,-0.1778 0.234244,-0.273755 0.1524,-0.09596 0.352778,-0.09596 z m -0.0028,0.2032 q -0.177799,0 -0.282222,0.115711 -0.101599,0.112889 -0.121355,0.316089 h 0.770466 q -0.0028,-0.191911 -0.09031,-0.310444 -0.08749,-0.121356 -0.276579,-0.121356 z m 0.973664,1.185333 q 0,-0.104422 0.0508,-0.146756 0.0508,-0.04233 0.121356,-0.04233 0.07338,0 0.124178,0.04233 0.05362,0.04233 0.05362,0.146756 0,0.1016 -0.05362,0.146755 -0.0508,0.04516 -0.124178,0.04516 -0.07056,0 -0.121356,-0.04516 -0.0508,-0.04515 -0.0508,-0.146755 z m 1.39982,0.180622 q -0.200377,0 -0.358422,-0.08184 -0.155222,-0.08184 -0.245533,-0.253999 -0.08749,-0.172156 -0.08749,-0.440267 0,-0.2794 0.09313,-0.454377 0.09313,-0.174978 0.251177,-0.256822 0.160867,-0.08184 0.364067,-0.08184 0.115711,0 0.222955,0.0254 0.107245,0.02258 0.174978,0.05644 l -0.0762,0.206022 q -0.06773,-0.0254 -0.158044,-0.04798 -0.09031,-0.02258 -0.169334,-0.02258 -0.44591,0 -0.44591,0.572911 0,0.273755 0.107244,0.420511 0.110067,0.143933 0.324555,0.143933 0.124178,0 0.217311,-0.0254 0.09596,-0.0254 0.174978,-0.06209 v 0.220133 q -0.0762,0.03951 -0.169333,0.05927 -0.09031,0.02258 -0.220134,0.02258 z m 1.732842,-0.445911 q 0,0.220133 -0.163688,0.333022 -0.163689,0.112889 -0.440267,0.112889 -0.158044,0 -0.273755,-0.0254 -0.112889,-0.0254 -0.200378,-0.07056 V 39.2994 q 0.09031,0.04515 0.217311,0.08467 0.129822,0.03669 0.262467,0.03669 0.189088,0 0.273755,-0.05927 0.08467,-0.06209 0.08467,-0.163689 0,-0.05644 -0.03105,-0.1016 -0.03104,-0.04516 -0.112889,-0.09031 -0.07902,-0.04516 -0.228599,-0.1016 -0.146756,-0.05645 -0.251178,-0.112889 -0.104422,-0.05644 -0.160867,-0.135466 -0.05644,-0.07902 -0.05644,-0.2032 0,-0.191911 0.155222,-0.296333 0.158044,-0.104423 0.412044,-0.104423 0.138289,0 0.256822,0.02822 0.121356,0.0254 0.225778,0.07338 l -0.08467,0.197556 q -0.09596,-0.03951 -0.200377,-0.06773 -0.104423,-0.02822 -0.214489,-0.02822 -0.1524,0 -0.234244,0.0508 -0.07902,0.04798 -0.07902,0.132645 0,0.06209 0.03669,0.107244 0.03669,0.04233 0.121356,0.08467 0.08749,0.03951 0.231422,0.09595 0.143933,0.05362 0.245533,0.110067 0.1016,0.05644 0.155222,0.138288 0.05362,0.07902 0.05362,0.200378 z m 0.699911,0.417689 -0.57291,-1.51271 h 0.265288 l 0.321733,0.891821 q 0.02258,0.06209 0.04798,0.138289 0.0254,0.0762 0.04516,0.146755 0.01976,0.06773 0.02822,0.115711 h 0.01129 q 0.01129,-0.04798 0.03104,-0.118533 0.02258,-0.07055 0.04798,-0.146755 0.02822,-0.0762 0.04798,-0.135467 l 0.321733,-0.891821 h 0.265288 l -0.575733,1.51271 z"
       id="text6"
       style="font-size:2.82222px;line-height:0.9;font-family:'Noto Sans';-inkscape-font-specification:'Noto Sans';text-align:center;text-anchor:middle;fill:#fffffa;stroke-width:0.264583;stroke-linejoin:round;stroke-dashoffset:26;stroke-opacity:0.208511;paint-order:markers fill stroke"
       transform="translate(-10.451041,-9.2604156)"
       aria-label="latte.csv" />
    <path
       d="m 62.645929,46.044555 q 0.256822,0 0.383822,0.132645 0.127,0.129822 0.127,0.423333 v 0.984954 h -0.245533 v -0.973666 q 0,-0.358422 -0.307622,-0.358422 -0.220133,0 -0.316089,0.127 -0.09313,0.127 -0.09313,0.369711 v 0.835377 h -0.245533 v -0.973666 q 0,-0.358422 -0.310444,-0.358422 -0.2286,0 -0.316089,0.141111 -0.08749,0.141111 -0.08749,0.4064 v 0.784577 h -0.248355 v -1.51271 h 0.200377 l 0.03669,0.206022 h 0.01411 q 0.07056,-0.118533 0.189089,-0.174977 0.121356,-0.05927 0.256822,-0.05927 0.3556,0 0.462844,0.254 h 0.01411 q 0.0762,-0.129822 0.206022,-0.191911 0.132645,-0.06209 0.2794,-0.06209 z m 1.55222,0.0028 q 0.276577,0 0.409222,0.121356 0.132644,0.121355 0.132644,0.386644 v 1.03011 h -0.180622 l -0.04798,-0.214488 h -0.01129 q -0.09878,0.124177 -0.208844,0.183444 -0.107244,0.05927 -0.299155,0.05927 -0.206022,0 -0.341489,-0.107245 -0.135467,-0.110066 -0.135467,-0.341488 0,-0.225778 0.1778,-0.347133 0.1778,-0.124178 0.547511,-0.135467 l 0.256822,-0.0085 v -0.09031 q 0,-0.189089 -0.08184,-0.262466 -0.08185,-0.07338 -0.231422,-0.07338 -0.118534,0 -0.225778,0.03669 -0.107244,0.03387 -0.200378,0.07902 l -0.0762,-0.186266 q 0.09878,-0.05362 0.234245,-0.09031 0.135466,-0.03951 0.282222,-0.03951 z m 0.07338,0.807155 q -0.282222,0.01129 -0.392288,0.09031 -0.107245,0.07902 -0.107245,0.222956 0,0.127 0.0762,0.186266 0.07902,0.05927 0.200378,0.05927 0.191911,0 0.318911,-0.104422 0.127,-0.107245 0.127,-0.327378 v -0.135466 z m 1.543757,0.759178 q -0.200377,0 -0.358422,-0.08184 -0.155222,-0.08184 -0.245533,-0.254 -0.08749,-0.172155 -0.08749,-0.440266 0,-0.2794 0.09313,-0.454377 0.09313,-0.174978 0.251177,-0.256822 0.160867,-0.08184 0.364067,-0.08184 0.115711,0 0.222955,0.0254 0.107244,0.02258 0.174978,0.05644 l -0.0762,0.206022 q -0.06773,-0.0254 -0.158045,-0.04798 -0.09031,-0.02258 -0.169333,-0.02258 -0.445911,0 -0.445911,0.572911 0,0.273755 0.107245,0.420511 0.110066,0.143933 0.324555,0.143933 0.124178,0 0.217311,-0.0254 0.09596,-0.0254 0.174978,-0.06209 v 0.220133 q -0.0762,0.03951 -0.169334,0.05927 -0.09031,0.02258 -0.220133,0.02258 z m 0.996243,-1.543755 q 0,0.112889 -0.01411,0.211667 h 0.01693 q 0.07338,-0.115711 0.197555,-0.174978 0.127,-0.05927 0.273756,-0.05927 0.276577,0 0.414866,0.132645 0.138289,0.129822 0.138289,0.420511 v 0.984954 h -0.245533 v -0.968021 q 0,-0.364067 -0.338667,-0.364067 -0.254,0 -0.349955,0.143934 -0.09313,0.141111 -0.09313,0.406399 v 0.781755 H 66.56317 V 45.4406 h 0.248356 z m 1.622776,-0.564444 q 0.05644,0 0.09878,0.03951 0.04516,0.03669 0.04516,0.118533 0,0.07902 -0.04516,0.118534 -0.04233,0.03951 -0.09878,0.03951 -0.06209,0 -0.104422,-0.03951 -0.04233,-0.03951 -0.04233,-0.118534 0,-0.08184 0.04233,-0.118533 0.04233,-0.03951 0.104422,-0.03951 z m 0.121356,0.567266 v 1.51271 h -0.248356 v -1.51271 z m 1.052686,-0.0254 q 0.276577,0 0.409222,0.121356 0.132644,0.121355 0.132644,0.386644 v 1.03011 h -0.180622 l -0.04798,-0.214488 h -0.01129 q -0.09878,0.124177 -0.208844,0.183444 -0.107244,0.05927 -0.299155,0.05927 -0.206022,0 -0.341489,-0.107245 -0.135466,-0.110066 -0.135466,-0.341488 0,-0.225778 0.177799,-0.347133 0.1778,-0.124178 0.547511,-0.135467 l 0.256822,-0.0085 v -0.09031 q 0,-0.189089 -0.08184,-0.262466 -0.08185,-0.07338 -0.231422,-0.07338 -0.118534,0 -0.225778,0.03669 -0.107244,0.03387 -0.200378,0.07902 l -0.0762,-0.186266 q 0.09878,-0.05362 0.234244,-0.09031 0.135466,-0.03951 0.282222,-0.03951 z m 0.07338,0.807155 q -0.282222,0.01129 -0.392289,0.09031 -0.107244,0.07902 -0.107244,0.222956 0,0.127 0.0762,0.186266 0.07902,0.05927 0.200377,0.05927 0.191911,0 0.318911,-0.104422 0.127,-0.107245 0.127,-0.327378 v -0.135466 z m 1.442157,0.555978 q 0.05644,0 0.115711,-0.0085 0.05927,-0.01129 0.09595,-0.02258 v 0.189089 q -0.03951,0.01976 -0.112889,0.03104 -0.07338,0.01411 -0.141111,0.01411 -0.118533,0 -0.220133,-0.03951 -0.09878,-0.04233 -0.160866,-0.143933 -0.06209,-0.1016 -0.06209,-0.285044 v -0.880533 h -0.214489 v -0.118533 l 0.217311,-0.09878 0.09878,-0.321733 h 0.146755 v 0.347133 h 0.437444 v 0.191911 h -0.437444 v 0.874889 q 0,0.138288 0.06491,0.206022 0.06773,0.06491 0.172156,0.06491 z m 1.828799,-0.5842 q 0,0.375355 -0.191911,0.581378 -0.189089,0.206022 -0.513644,0.206022 -0.200378,0 -0.358422,-0.09031 -0.155222,-0.09313 -0.245534,-0.268111 -0.09031,-0.1778 -0.09031,-0.428978 0,-0.375355 0.189089,-0.578555 0.189089,-0.2032 0.513644,-0.2032 0.206022,0 0.361244,0.09313 0.158045,0.09031 0.245534,0.265289 0.09031,0.172156 0.09031,0.423333 z m -1.143,0 q 0,0.268111 0.104423,0.426155 0.107244,0.155223 0.338666,0.155223 0.2286,0 0.335844,-0.155223 0.107245,-0.158044 0.107245,-0.426155 0,-0.268111 -0.107245,-0.420511 -0.107244,-0.1524 -0.338666,-0.1524 -0.231422,0 -0.335844,0.1524 -0.104423,0.1524 -0.104423,0.420511 z m 1.498597,0.606777 q 0,-0.104422 0.0508,-0.146755 0.0508,-0.04233 0.121356,-0.04233 0.07338,0 0.124178,0.04233 0.05362,0.04233 0.05362,0.146755 0,0.1016 -0.05362,0.146756 -0.0508,0.04516 -0.124178,0.04516 -0.07056,0 -0.121356,-0.04516 -0.0508,-0.04516 -0.0508,-0.146756 z m 1.399821,0.180623 q -0.200378,0 -0.358422,-0.08184 -0.155222,-0.08184 -0.245533,-0.254 -0.08749,-0.172155 -0.08749,-0.440266 0,-0.2794 0.09313,-0.454377 0.09313,-0.174978 0.251178,-0.256822 0.160866,-0.08184 0.364066,-0.08184 0.115711,0 0.222956,0.0254 0.107244,0.02258 0.174977,0.05644 l -0.0762,0.206022 q -0.06773,-0.0254 -0.158044,-0.04798 -0.09031,-0.02258 -0.169333,-0.02258 -0.445911,0 -0.445911,0.572911 0,0.273755 0.107244,0.420511 0.110067,0.143933 0.324556,0.143933 0.124177,0 0.217311,-0.0254 0.09596,-0.0254 0.174977,-0.06209 v 0.220133 q -0.0762,0.03951 -0.169333,0.05927 -0.09031,0.02258 -0.220133,0.02258 z m 1.732841,-0.445911 q 0,0.220133 -0.163688,0.333022 -0.163689,0.112889 -0.440267,0.112889 -0.158044,0 -0.273755,-0.0254 -0.112889,-0.0254 -0.200378,-0.07056 V 47.29195 q 0.09031,0.04516 0.217311,0.08467 0.129822,0.03669 0.262467,0.03669 0.189088,0 0.273755,-0.05927 0.08467,-0.06209 0.08467,-0.163688 0,-0.05644 -0.03104,-0.1016 -0.03104,-0.04516 -0.112889,-0.09031 -0.07902,-0.04516 -0.228599,-0.1016 -0.146756,-0.05645 -0.251178,-0.112889 -0.104422,-0.05645 -0.160867,-0.135467 -0.05644,-0.07902 -0.05644,-0.2032 0,-0.191911 0.155222,-0.296333 0.158044,-0.104422 0.412044,-0.104422 0.138289,0 0.256822,0.02822 0.121356,0.0254 0.225778,0.07338 l -0.08467,0.197556 q -0.09596,-0.03951 -0.200377,-0.06773 -0.104422,-0.02822 -0.214489,-0.02822 -0.1524,0 -0.234244,0.0508 -0.07902,0.04798 -0.07902,0.132644 0,0.06209 0.03669,0.107245 0.03669,0.04233 0.121356,0.08467 0.08749,0.03951 0.231422,0.09596 0.143933,0.05362 0.245533,0.110066 0.1016,0.05644 0.155222,0.138289 0.05362,0.07902 0.05362,0.200378 z m 0.699911,0.417688 -0.57291,-1.51271 h 0.265288 l 0.321733,0.891822 q 0.02258,0.06209 0.04798,0.138289 0.0254,0.0762 0.04516,0.146755 0.01976,0.06773 0.02822,0.115711 h 0.01129 q 0.01129,-0.04798 0.03104,-0.118533 0.02258,-0.07056 0.04798,-0.146755 0.02822,-0.0762 0.04798,-0.135467 l 0.321733,-0.891822 h 0.265288 l -0.575732,1.51271 z"
       id="text7"
       style="font-size:2.82222px;line-height:0.9;font-family:'Noto Sans';-inkscape-font-specification:'Noto Sans';text-align:center;text-anchor:middle;fill:#fffffa;stroke-width:0.264583;stroke-linejoin:round;stroke-dashoffset:26;stroke-opacity:0.208511;paint-order:markers fill stroke"
       aria-label="machiato.csv" />
  </g>
</svg>
