<?xml version="1.0" encoding="UTF-8" standalone="no"?>
<!-- Created with Inkscape (http://www.inkscape.org/) -->

<svg
   width="343.95044mm"
   height="57.805614mm"
   viewBox="0 0 343.95045 57.805615"
   version="1.1"
   id="svg1"
   xml:space="preserve"
   inkscape:version="1.4.3 (0d15f75042, 2025-12-25)"
   sodipodi:docname="PaperPlacer Wordmark.svg"
   xmlns:inkscape="http://www.inkscape.org/namespaces/inkscape"
   xmlns:sodipodi="http://sodipodi.sourceforge.net/DTD/sodipodi-0.dtd"
   xmlns="http://www.w3.org/2000/svg"
   xmlns:svg="http://www.w3.org/2000/svg"><sodipodi:namedview
     id="namedview1"
     pagecolor="#ffffff"
     bordercolor="#000000"
     borderopacity="0.25"
     inkscape:showpageshadow="2"
     inkscape:pageopacity="0.0"
     inkscape:pagecheckerboard="0"
     inkscape:deskcolor="#d1d1d1"
     inkscape:document-units="mm"
     inkscape:zoom="0.37460368"
     inkscape:cx="635.33813"
     inkscape:cy="-158.83453"
     inkscape:window-width="1920"
     inkscape:window-height="1050"
     inkscape:window-x="0"
     inkscape:window-y="0"
     inkscape:window-maximized="1"
     inkscape:current-layer="layer1" /><defs
     id="defs1" /><g
     inkscape:label="Шар 1"
     inkscape:groupmode="layer"
     id="layer1"><g
       id="g1"
       transform="scale(0.6238486)"><path
         id="path3"
         style="display:inline;fill:#91261b;fill-opacity:1;stroke:#91261b;stroke-width:1.41732;stroke-linecap:round;stroke-linejoin:round;stroke-dashoffset:3.40157;stroke-opacity:1;paint-order:stroke markers fill"
         d="m 45.351805,45.729834 c -7.086722,4.299313 -11.381926,7.391637 -22.447754,17.072753 14.602355,12.098047 14.132294,28.286405 19.22461,45.218263 L 52.79663,94.263037 C 51.680366,94.030985 50.542914,93.701403 49.389891,93.262548 40.758504,89.97728 36.812354,82.713668 36.18286,76.795752 c -0.596672,-5.605782 1.153545,-10.11498 1.171875,-10.16211 0.0046,-0.01249 0.01483,-0.02075 0.01953,-0.0332 0.0068,-0.01797 0.0029,-0.03674 0.0098,-0.05469 z m 61.875005,3.814941 c -5.35367,-0.275963 -11.31031,2.585864 -17.212407,6.744629 3.682992,1.516639 5.54872,5.801146 4.117676,9.539551 l -2.89209,7.554687 v 4.88e-4 4.89e-4 l -4.88e-4,9.76e-4 -0.03516,0.09375 c -0.01205,0.03149 -0.04028,0.05079 -0.05273,0.08203 -0.122009,0.343079 -1.679744,4.647817 -5.712891,8.441407 -2.939494,2.764888 -7.498992,4.784179 -12.763672,4.96289 l -1.480468,1.597657 c -0.327653,0.353556 -0.675217,0.709008 -1.046875,1.058593 -3.151873,2.964665 -8.105681,5.271683 -13.882324,5.063965 L 46.655516,107.07895 C 56.533011,99.900124 66.813779,89.724565 89.211669,92.135107 93.356752,72.882526 94.730796,68.039629 107.22681,49.544775 Z m -15.986821,23.838867 0.01514,-0.04297 c 0,0 -0.0136,0.02712 -0.01367,0.02734 -0.0019,0.005 -4.58e-4,0.01055 -0.0015,0.01563 z M 68.552977,57.174658 66.053954,63.707861 c -0.0087,0.02826 -0.208488,1.013246 -0.304688,2.195312 l 3.108887,-8.124023 c -0.09989,-0.202302 -0.201651,-0.403754 -0.305176,-0.604492 z m 33.761223,7.070801 c -5.143099,9.031102 -6.454335,14.830184 -9.436027,28.679199 l -0.710938,3.300781 -3.357422,-0.361328 C 70.366005,93.879121 61.4664,100.59621 52.731688,107.23374 c 16.731165,-3.9836 23.614262,-4.4847 47.235157,-2.34179 1.584315,-10.206063 5.534615,-25.248364 13.106145,-39.585945 -2.89525,-0.693353 -6.3116,-1.214254 -10.75879,-1.060546 z M 24.613036,69.655615 C 19.763185,74.895645 16.467448,80.63184 11.879637,87.931494 26.814932,90.269279 30.730271,91.764782 36.007079,99.254736 34.906381,94.378163 33.982034,89.739998 32.721923,85.448095 30.99128,79.553574 28.741676,74.351991 24.613036,69.655615 Z m 26.858887,1.706543 -0.140626,0.365234 c -0.0094,0.03076 -0.537458,1.764937 -0.353515,3.494141 0.118507,1.114105 0.278698,1.67247 0.630859,2.173828 0.352161,0.501358 1.058335,1.193644 3.074219,1.960937 0.574691,0.218742 0.741493,0.180184 1.148437,0.294922 -2.258133,-2.607668 -3.670774,-5.461967 -4.359374,-8.289062 z"
         transform="translate(-11.171023,-16.069744)" /><path
         id="path25"
         style="baseline-shift:baseline;display:inline;overflow:visible;opacity:1;fill:#ffffff;fill-opacity:1;stroke-width:0.898224;stroke-linecap:round;stroke-dasharray:none;stroke-dashoffset:3.40157;paint-order:stroke markers fill;enable-background:accumulate;stop-color:#000000;stop-opacity:1"
         d="m 85.527229,67.35651 a 3.6894297,3.6894297 0 0 0 -4.735127,2.190503 c 0,0 -0.953941,2.445712 -2.977754,4.349311 -2.023813,1.903598 -4.380419,3.363759 -9.52952,1.403941 -5.145391,-1.958429 -6.030042,-4.697719 -6.330794,-7.525088 -0.300753,-2.82737 0.563411,-5.32076 0.563411,-5.32076 a 3.6894297,3.6894297 0 0 0 -2.191387,-4.737099 3.6894297,3.6894297 0 0 0 -4.735666,2.191929 c 0,0 -1.479661,3.889232 -0.973693,8.645619 0.505942,4.756381 3.580202,10.801368 11.043188,13.641923 7.459269,2.839062 13.743786,0.334066 17.209832,-2.926097 3.466037,-3.260165 4.849436,-7.178509 4.849436,-7.178509 A 3.6894297,3.6894297 0 0 0 85.527229,67.35651 Z M 74.777375,41.303805 c -4.748772,-1.807461 -9.176591,-0.15495 -11.462452,1.995137 -2.285862,2.150088 -3.165976,4.700259 -3.165976,4.700259 a 3.6894297,3.6894297 0 0 0 2.191925,4.735671 3.6894297,3.6894297 0 0 0 4.735128,-2.190503 c 0,0 0.452075,-1.076995 1.295714,-1.870515 0.843628,-0.793521 1.342107,-1.401701 3.78072,-0.473526 2.434894,0.926762 2.469099,1.77775 2.596431,2.974802 0.127332,1.197053 -0.232434,2.31831 -0.232434,2.31831 a 3.6894297,3.6894297 0 0 0 2.189958,4.736552 3.6894297,3.6894297 0 0 0 4.735667,-2.191928 c 0,0 0.976665,-2.51656 0.644143,-5.642624 -0.332523,-3.12606 -2.556325,-7.282744 -7.308824,-9.091635 z m 3.292113,-24.026128 c -7.291282,-2.775176 -13.461455,-0.323566 -16.854359,2.867809 -3.392904,3.191375 -4.745223,7.025685 -4.745223,7.025685 a 3.6894297,3.6894297 0 0 0 2.190505,4.73513 3.6894297,3.6894297 0 0 0 4.735128,-2.190504 c 0,0 0.92428,-2.361135 2.874961,-4.195943 1.950671,-1.834808 4.192932,-3.241546 9.174048,-1.345653 4.977405,1.894499 5.808827,4.51726 6.098828,7.243594 0.290009,2.726336 -0.543228,5.135772 -0.543228,5.135772 a 3.6894297,3.6894297 0 0 0 2.190506,4.735128 3.6894297,3.6894297 0 0 0 4.735667,-2.191929 c 0,0 1.450199,-3.804717 0.954937,-8.460084 -0.495191,-4.655345 -3.51676,-10.582389 -10.81177,-13.359005 z m 1.227647,34.042706 a 3.6894297,3.6894297 0 0 0 -4.764688,2.126929 l -7.000851,18.290989 c 0.494365,0.265143 1.088099,0.531497 1.802527,0.803423 3.647056,1.388116 4.731589,0.801745 5.890693,-0.26 l 6.199249,-16.196653 a 3.6894297,3.6894297 0 0 0 -2.12693,-4.764688 z M 45.601466,65.74776 a 3.6894297,3.6894297 0 0 0 -4.735127,2.190505 c 0,0 -1.45045,3.80462 -0.954928,8.460087 0.495191,4.655327 3.516778,10.582391 10.81177,13.359002 7.291273,2.775147 13.461464,0.32356 16.854359,-2.867811 0.30545,-0.287309 0.594148,-0.579792 0.867019,-0.874236 -1.257755,-0.220468 -2.540364,-0.567608 -3.835395,-1.06052 -1.449841,-0.55204 -2.767112,-1.228409 -3.957356,-1.998493 -1.645986,0.936816 -3.795676,1.239748 -7.303687,-0.09546 -4.977387,-1.894511 -5.808827,-4.517269 -6.098827,-7.243595 -0.290011,-2.726327 0.542679,-5.134347 0.542679,-5.134347 a 3.6894297,3.6894297 0 0 0 -2.190507,-4.735126 z m 41.582285,-2.578004 -2.928191,7.650432 m 4.247033,-11.096549 a 3.6894297,3.6894297 0 0 0 -4.764687,2.126928 l -2.928361,7.650864 a 3.6894297,3.6894297 0 0 0 2.12693,4.764687 3.6894297,3.6894297 0 0 0 4.764688,-2.126928 l 2.92836,-7.650863 a 3.6894297,3.6894297 0 0 0 -2.12693,-4.764688 z M 63.612549,49.271474 59.054084,61.181272 m 5.877543,-15.356007 a 3.6894297,3.6894297 0 0 0 -4.764689,2.126927 L 55.608383,59.86224 a 3.6894297,3.6894297 0 0 0 2.12693,4.764689 A 3.6894297,3.6894297 0 0 0 62.5,62.5 l 4.558556,-11.910047 a 3.6894297,3.6894297 0 0 0 -2.126929,-4.764688 z m 13.047006,8.940868 -9.119562,23.826481 M 59.932969,28.443071 44.331487,69.204708 M 61.252584,24.997237 a 3.6894297,3.6894297 0 0 0 -4.764688,2.126927 L 40.886513,67.885558 a 3.6894297,3.6894297 0 0 0 2.12693,4.764693 3.6894297,3.6894297 0 0 0 4.76326,-2.127477 L 63.378095,29.761381 a 3.6894297,3.6894297 0 0 0 -2.125511,-4.764144 z"
         transform="translate(-11.171023,-16.069744)" /></g><text
       xml:space="preserve"
       style="font-style:normal;font-variant:normal;font-weight:900;font-stretch:extra-condensed;font-size:57.7468px;line-height:0.9;font-family:'Noto Serif';-inkscape-font-specification:'Noto Serif Heavy Extra-Condensed';text-align:center;writing-mode:lr-tb;direction:ltr;text-anchor:middle;white-space:pre;inline-size:438.226;display:inline;fill:#e8402d;fill-opacity:0;stroke:none;stroke-width:3.60918;stroke-linecap:round;stroke-linejoin:round;stroke-dashoffset:3.40157;paint-order:stroke markers fill"
       x="224.92252"
       y="44.294113"
       id="text1"
       transform="matrix(0.86829499,0,0,0.86829499,13.345685,8.0634752)"><tspan
         x="224.92252"
         y="44.294113"
         id="tspan1">PaperPlacer</tspan></text><path
       style="font-weight:900;font-stretch:extra-condensed;font-size:57.7468px;line-height:0.9;font-family:'Noto Serif';-inkscape-font-specification:'Noto Serif Heavy Extra-Condensed';text-align:center;text-anchor:middle;white-space:pre;inline-size:438.226;display:inline;fill:#91261b;stroke-width:3.13383;stroke-linecap:round;stroke-linejoin:round;stroke-dashoffset:3.40157;paint-order:stroke markers fill"
       d="m 73.588692,46.523832 v -2.807911 h 1.654661 q 0.852402,0 1.504238,-0.501413 0.651836,-0.551553 0.651836,-2.657486 V 16.489219 q 0,-1.955509 -0.651836,-2.456922 -0.601695,-0.501412 -1.303673,-0.501412 h -1.855226 v -2.807911 h 14.039552 q 6.568504,0 9.627121,2.707628 3.058615,2.657487 3.058615,7.97246 0,3.259182 -1.353813,5.866527 -1.303672,2.607346 -4.312147,4.161725 -2.958335,1.504238 -7.922319,1.504238 h -0.902543 v 7.872176 q 0,1.955509 0.551554,2.456922 0.551554,0.451271 1.353814,0.451271 h 2.80791 v 2.807911 z M 86.324571,29.876935 q 2.757769,0 4.0113,-1.905369 1.253532,-1.955508 1.253532,-6.367939 0,-4.0113 -1.15325,-5.866527 -1.153248,-1.905368 -3.509887,-1.905368 h -1.153249 v 16.045203 z m 22.413109,17.148309 q -2.70762,0 -4.66313,-2.00565 -1.9555,-2.00565 -1.9555,-6.217516 0,-4.111583 2.30649,-6.016951 2.3065,-1.955509 6.9195,-2.156073 l 3.4096,-0.150425 v -2.707627 q 0,-5.615821 -2.15607,-5.615821 -0.95269,0 -1.55438,1.403955 -0.6017,1.353814 -0.6017,4.011301 -3.35946,0 -4.96399,-0.802261 -1.60452,-0.80226 -1.60452,-2.607344 0,-1.805086 1.30368,-2.958335 1.30367,-1.153249 3.4096,-1.704803 2.15607,-0.551554 4.71328,-0.551554 4.81356,0 7.22034,1.905368 2.40679,1.905368 2.40679,6.618646 v 12.735879 q 0,2.00565 0.55154,2.757769 0.55156,0.752119 1.95552,0.752119 h 0.15042 v 2.807911 h -9.37641 l -1.00283,-3.209041 h -0.45127 q -1.40396,2.005651 -2.60735,2.858052 -1.20339,0.852401 -3.40961,0.852401 z m 3.30933,-3.710453 q 1.25353,0 2.00565,-1.754944 0.75212,-1.754944 0.75212,-4.612996 v -3.710453 l -1.25353,0.150425 q -1.75494,0.200565 -2.45693,1.604519 -0.65183,1.353815 -0.65183,4.011301 0,2.055792 0.40113,3.20904 0.40113,1.103108 1.20339,1.103108 z m 14.94213,14.490823 v -2.80791 h 0.65184 q 0.35098,0 0.95268,-0.250706 0.65183,-0.200565 1.15325,-0.902543 0.50141,-0.651837 0.50141,-2.00565 V 26.016058 q 0,-2.356639 -0.60169,-2.958334 -0.6017,-0.601696 -1.65467,-0.601696 h -0.15042 v -2.80791 h 8.82486 l 1.00283,3.660312 h 0.20056 q 0.8524,-1.805086 2.40678,-2.958334 1.55438,-1.20339 3.96116,-1.20339 4.16172,0 6.36794,3.409605 2.20622,3.359465 2.20622,10.680087 0,7.270483 -2.20622,10.579806 -2.15607,3.309323 -6.46822,3.309323 -2.0558,0 -3.40961,-0.852402 -1.30367,-0.852401 -2.20621,-2.40678 h -0.25071 q 0.10028,1.20339 0.15043,2.607345 0.0501,1.353814 0.0501,2.958335 v 2.306497 q 0,1.403956 0.50141,2.105933 0.50142,0.701978 1.10311,0.902543 0.60169,0.250706 0.95268,0.250706 h 1.50425 v 2.80791 z m 14.59111,-14.39054 q 1.65466,0 2.35664,-2.507063 0.70197,-2.507063 0.70197,-7.621471 0,-4.913843 -0.70197,-7.621471 -0.65184,-2.707628 -2.20622,-2.707628 -2.00566,0 -2.65749,2.757769 -0.6017,2.707628 -0.6017,7.471048 0,5.21469 0.6017,7.721753 0.65183,2.507063 2.50707,2.507063 z m 26.37426,3.61017 q -5.91667,0 -8.82487,-3.61017 -2.85804,-3.660312 -2.85804,-10.178676 0,-7.069916 2.90819,-10.680087 2.95833,-3.610171 8.2733,-3.610171 4.91385,0 7.72176,3.108758 2.85805,3.058617 2.85805,9.025427 v 2.557204 h -13.53814 q 0.10028,4.963984 1.4541,7.270482 1.40395,2.256357 4.11159,2.256357 2.15607,0 3.4096,-1.253532 1.25353,-1.303672 1.9555,-3.158899 0.75213,0.200565 1.25353,0.80226 0.55156,0.601695 0.55156,1.504238 0,1.353814 -0.95268,2.757769 -0.90254,1.353814 -2.95833,2.306498 -2.00565,0.902542 -5.36512,0.902542 z m 2.05579,-16.646897 q 0.0501,-3.810735 -0.55156,-5.916669 -0.55155,-2.156073 -1.80508,-2.156073 -1.30367,0 -2.20621,2.105933 -0.85241,2.055791 -0.85241,5.966809 z m 9.97813,16.145485 v -2.807911 h 0.20057 q 1.4541,0 2.20622,-0.601695 0.75212,-0.651836 0.75212,-3.008475 V 25.865634 q 0,-2.206215 -0.65184,-2.80791 -0.6017,-0.601696 -1.95551,-0.601696 h -0.20056 v -2.80791 h 9.77754 l 0.90254,4.863702 h 0.20056 q 1.05298,-2.807911 2.60735,-4.111583 1.55438,-1.353814 4.0113,-1.353814 2.45692,0 3.50989,1.303673 1.05297,1.303673 1.05297,3.359464 0,2.456922 -1.7048,3.61017 -1.70481,1.103108 -4.51272,1.103108 0,-2.055791 -0.35099,-3.158899 -0.30084,-1.103107 -1.4541,-1.103107 -0.95268,0 -1.65465,1.253531 -0.65184,1.253531 -1.00283,3.20904 -0.35099,1.955509 -0.35099,4.011301 v 7.721753 q 0,2.206215 0.65183,2.807911 0.70199,0.551553 1.85523,0.551553 h 1.50424 v 2.807911 z m 23.96754,0 v -2.807911 h 1.65466 q 0.85241,0 1.50424,-0.501413 0.65184,-0.551553 0.65184,-2.657486 V 16.489219 q 0,-1.955509 -0.65184,-2.456922 -0.60169,-0.501412 -1.30367,-0.501412 h -1.85523 v -2.807911 h 14.03955 q 6.5685,0 9.62713,2.707628 3.05861,2.657487 3.05861,7.97246 0,3.259182 -1.35381,5.866527 -1.30368,2.607346 -4.31215,4.161725 -2.95834,1.504238 -7.92232,1.504238 h -0.90254 v 7.872176 q 0,1.955509 0.55155,2.456922 0.55156,0.451271 1.35382,0.451271 h 2.80791 v 2.807911 z m 12.73588,-16.646897 q 2.75777,0 4.0113,-1.905369 1.25353,-1.955508 1.25353,-6.367939 0,-4.0113 -1.15325,-5.866527 -1.15324,-1.905368 -3.50988,-1.905368 h -1.15325 v 16.045203 z m 14.89194,16.646897 v -2.807911 h 0.50141 q 1.15325,0 1.85522,-0.701977 0.75213,-0.752119 0.75213,-2.858052 V 14.182721 q 0,-1.303672 -0.55156,-1.905368 -0.50142,-0.651836 -1.10311,-0.852401 -0.60169,-0.200565 -0.95268,-0.200565 h -0.50141 V 8.4164767 h 11.28178 V 40.155892 q 0,2.105933 0.75212,2.858052 0.75212,0.701977 1.90537,0.701977 h 0.40113 v 2.807911 z m 23.51625,0.501412 q -2.70763,0 -4.66313,-2.00565 -1.95552,-2.00565 -1.95552,-6.217516 0,-4.111583 2.3065,-6.016951 2.3065,-1.955509 6.91949,-2.156073 l 3.40962,-0.150425 v -2.707627 q 0,-5.615821 -2.15609,-5.615821 -0.95268,0 -1.55437,1.403955 -0.6017,1.353814 -0.6017,4.011301 -3.35946,0 -4.96398,-0.802261 -1.60452,-0.80226 -1.60452,-2.607344 0,-1.805086 1.30367,-2.958335 1.30367,-1.153249 3.40961,-1.704803 2.15607,-0.551554 4.71328,-0.551554 4.81355,0 7.22034,1.905368 2.40677,1.905368 2.40677,6.618646 v 12.735879 q 0,2.00565 0.55156,2.757769 0.55155,0.752119 1.95551,0.752119 h 0.15042 v 2.807911 h -9.37641 l -1.00282,-3.209041 H 261.117 q -1.40397,2.005651 -2.60736,2.858052 -1.20338,0.852401 -3.4096,0.852401 z m 3.30932,-3.710453 q 1.25354,0 2.00565,-1.754944 0.75212,-1.754944 0.75212,-4.612996 v -3.710453 l -1.25353,0.150425 q -1.75495,0.200565 -2.45692,1.604519 -0.65184,1.353815 -0.65184,4.011301 0,2.055792 0.40113,3.20904 0.40113,1.103108 1.20339,1.103108 z m 27.32704,3.710453 q -3.30933,0 -5.81639,-1.303673 -2.45692,-1.303672 -3.86087,-4.312147 -1.35382,-3.058617 -1.35382,-8.223166 0,-5.465398 1.4541,-8.524014 1.45409,-3.108758 3.91101,-4.412431 2.50707,-1.303673 5.56568,-1.303673 3.40961,0 5.36512,0.752119 2.00564,0.752119 2.80791,1.95551 0.8524,1.20339 0.8524,2.607345 0,1.052966 -0.45127,2.105933 -0.45127,1.052966 -1.90537,1.754944 -1.40395,0.701977 -4.31215,0.701977 0,-1.805085 -0.20056,-3.309323 -0.20057,-1.504238 -0.65184,-2.40678 -0.45127,-0.952684 -1.25353,-0.952684 -0.90254,0 -1.55438,1.002825 -0.65184,0.952684 -1.05297,3.359464 -0.35098,2.35664 -0.35098,6.618646 0,5.014126 1.05296,7.57133 1.05297,2.557204 3.50989,2.557204 2.05579,0 3.45974,-1.153249 1.4541,-1.20339 2.15608,-3.008475 0.65184,0.350988 1.05297,0.902542 0.45127,0.551554 0.45127,1.353814 0,1.253532 -0.75212,2.557205 -0.70198,1.303672 -2.65749,2.206215 -1.90537,0.902542 -5.46539,0.902542 z m 23.76698,0 q -5.91667,0 -8.82486,-3.61017 -2.85805,-3.660312 -2.85805,-10.178676 0,-7.069916 2.90819,-10.680087 2.95833,-3.610171 8.27331,-3.610171 4.91384,0 7.72175,3.108758 2.85805,3.058617 2.85805,9.025427 v 2.557204 h -13.53814 q 0.10029,4.963984 1.4541,7.270482 1.40395,2.256357 4.11158,2.256357 2.15607,0 3.40961,-1.253532 1.25353,-1.303672 1.95551,-3.158899 0.75212,0.200565 1.25353,0.80226 0.55155,0.601695 0.55155,1.504238 0,1.353814 -0.95268,2.757769 -0.90254,1.353814 -2.95834,2.306498 -2.00565,0.902542 -5.36511,0.902542 z m 2.05579,-16.646897 q 0.0501,-3.810735 -0.55155,-5.916669 -0.55156,-2.156073 -1.80509,-2.156073 -1.30367,0 -2.20622,2.105933 -0.85239,2.055791 -0.85239,5.966809 z m 9.97813,16.145485 v -2.807911 h 0.20056 q 1.4541,0 2.20622,-0.601695 0.75211,-0.651836 0.75211,-3.008475 V 25.865634 q 0,-2.206215 -0.65183,-2.80791 -0.6017,-0.601696 -1.95551,-0.601696 h -0.20057 v -2.80791 h 9.77755 l 0.90254,4.863702 h 0.20057 q 1.05296,-2.807911 2.60734,-4.111583 1.55438,-1.353814 4.01131,-1.353814 2.45692,0 3.50988,1.303673 1.05297,1.303673 1.05297,3.359464 0,2.456922 -1.70481,3.61017 -1.7048,1.103108 -4.51271,1.103108 0,-2.055791 -0.35099,-3.158899 -0.30085,-1.103107 -1.45409,-1.103107 -0.95268,0 -1.65466,1.253531 -0.65184,1.253531 -1.00282,3.20904 -0.351,1.955509 -0.351,4.011301 v 7.721753 q 0,2.206215 0.65184,2.807911 0.70198,0.551553 1.85523,0.551553 h 1.50423 v 2.807911 z"
       id="text3"
       aria-label="PaperPlacer" /></g></svg>
