<?xml version="1.0" encoding="UTF-8" standalone="no"?>
<!-- Created with Inkscape (http://www.inkscape.org/) -->

<svg
   width="338.30002mm"
   height="57.805614mm"
   viewBox="0 0 338.30003 57.805615"
   version="1.1"
   id="svg1"
   xml:space="preserve"
   inkscape:version="1.4.3 (0d15f75042, 2025-12-25)"
   sodipodi:docname="PaperPlacer Wordmark.svg"
   xmlns:inkscape="http://www.inkscape.org/namespaces/inkscape"
   xmlns:sodipodi="http://sodipodi.sourceforge.net/DTD/sodipodi-0.dtd"
   xmlns="http://www.w3.org/2000/svg"
   xmlns:svg="http://www.w3.org/2000/svg"><sodipodi:namedview
     id="namedview1"
     pagecolor="#ffffff"
     bordercolor="#000000"
     borderopacity="0.25"
     inkscape:showpageshadow="2"
     inkscape:pageopacity="0.0"
     inkscape:pagecheckerboard="0"
     inkscape:deskcolor="#d1d1d1"
     inkscape:document-units="mm"
     inkscape:zoom="1.4984147"
     inkscape:cx="241.58866"
     inkscape:cy="45.047609"
     inkscape:window-width="1920"
     inkscape:window-height="1050"
     inkscape:window-x="0"
     inkscape:window-y="0"
     inkscape:window-maximized="1"
     inkscape:current-layer="layer1" /><defs
     id="defs1" /><g
     inkscape:label="Шар 1"
     inkscape:groupmode="layer"
     id="layer1"><g
       id="g1"
       transform="scale(0.6238486)"><path
         id="path3"
         style="display:inline;fill:#91261b;fill-opacity:1;stroke:#91261b;stroke-width:1.41732;stroke-linecap:round;stroke-linejoin:round;stroke-dashoffset:3.40157;stroke-opacity:1;paint-order:stroke markers fill"
         d="m 45.351805,45.729834 c -7.086722,4.299313 -11.381926,7.391637 -22.447754,17.072753 14.602355,12.098047 14.132294,28.286405 19.22461,45.218263 L 52.79663,94.263037 C 51.680366,94.030985 50.542914,93.701403 49.389891,93.262548 40.758504,89.97728 36.812354,82.713668 36.18286,76.795752 c -0.596672,-5.605782 1.153545,-10.11498 1.171875,-10.16211 0.0046,-0.01249 0.01483,-0.02075 0.01953,-0.0332 0.0068,-0.01797 0.0029,-0.03674 0.0098,-0.05469 z m 61.875005,3.814941 c -5.35367,-0.275963 -11.31031,2.585864 -17.212407,6.744629 3.682992,1.516639 5.54872,5.801146 4.117676,9.539551 l -2.89209,7.554687 v 4.88e-4 4.89e-4 l -4.88e-4,9.76e-4 -0.03516,0.09375 c -0.01205,0.03149 -0.04028,0.05079 -0.05273,0.08203 -0.122009,0.343079 -1.679744,4.647817 -5.712891,8.441407 -2.939494,2.764888 -7.498992,4.784179 -12.763672,4.96289 l -1.480468,1.597657 c -0.327653,0.353556 -0.675217,0.709008 -1.046875,1.058593 -3.151873,2.964665 -8.105681,5.271683 -13.882324,5.063965 L 46.655516,107.07895 C 56.533011,99.900124 66.813779,89.724565 89.211669,92.135107 93.356752,72.882526 94.730796,68.039629 107.22681,49.544775 Z m -15.986821,23.838867 0.01514,-0.04297 c 0,0 -0.0136,0.02712 -0.01367,0.02734 -0.0019,0.005 -4.58e-4,0.01055 -0.0015,0.01563 z M 68.552977,57.174658 66.053954,63.707861 c -0.0087,0.02826 -0.208488,1.013246 -0.304688,2.195312 l 3.108887,-8.124023 c -0.09989,-0.202302 -0.201651,-0.403754 -0.305176,-0.604492 z m 33.761223,7.070801 c -5.143099,9.031102 -6.454335,14.830184 -9.436027,28.679199 l -0.710938,3.300781 -3.357422,-0.361328 C 70.366005,93.879121 61.4664,100.59621 52.731688,107.23374 c 16.731165,-3.9836 23.614262,-4.4847 47.235157,-2.34179 1.584315,-10.206063 5.534615,-25.248364 13.106145,-39.585945 -2.89525,-0.693353 -6.3116,-1.214254 -10.75879,-1.060546 z M 24.613036,69.655615 C 19.763185,74.895645 16.467448,80.63184 11.879637,87.931494 26.814932,90.269279 30.730271,91.764782 36.007079,99.254736 34.906381,94.378163 33.982034,89.739998 32.721923,85.448095 30.99128,79.553574 28.741676,74.351991 24.613036,69.655615 Z m 26.858887,1.706543 -0.140626,0.365234 c -0.0094,0.03076 -0.537458,1.764937 -0.353515,3.494141 0.118507,1.114105 0.278698,1.67247 0.630859,2.173828 0.352161,0.501358 1.058335,1.193644 3.074219,1.960937 0.574691,0.218742 0.741493,0.180184 1.148437,0.294922 -2.258133,-2.607668 -3.670774,-5.461967 -4.359374,-8.289062 z"
         transform="translate(-11.171023,-16.069744)" /><path
         id="path25"
         style="baseline-shift:baseline;display:inline;overflow:visible;opacity:1;stroke-width:0.898224;stroke-linecap:round;stroke-dasharray:none;stroke-dashoffset:3.40157;paint-order:stroke markers fill;enable-background:accumulate;stop-color:#000000;stop-opacity:1;fill:#ffffff;fill-opacity:1"
         d="m 85.527229,67.35651 a 3.6894297,3.6894297 0 0 0 -4.735127,2.190503 c 0,0 -0.953941,2.445712 -2.977754,4.349311 -2.023813,1.903598 -4.380419,3.363759 -9.52952,1.403941 -5.145391,-1.958429 -6.030042,-4.697719 -6.330794,-7.525088 -0.300753,-2.82737 0.563411,-5.32076 0.563411,-5.32076 a 3.6894297,3.6894297 0 0 0 -2.191387,-4.737099 3.6894297,3.6894297 0 0 0 -4.735666,2.191929 c 0,0 -1.479661,3.889232 -0.973693,8.645619 0.505942,4.756381 3.580202,10.801368 11.043188,13.641923 7.459269,2.839062 13.743786,0.334066 17.209832,-2.926097 3.466037,-3.260165 4.849436,-7.178509 4.849436,-7.178509 A 3.6894297,3.6894297 0 0 0 85.527229,67.35651 Z M 74.777375,41.303805 c -4.748772,-1.807461 -9.176591,-0.15495 -11.462452,1.995137 -2.285862,2.150088 -3.165976,4.700259 -3.165976,4.700259 a 3.6894297,3.6894297 0 0 0 2.191925,4.735671 3.6894297,3.6894297 0 0 0 4.735128,-2.190503 c 0,0 0.452075,-1.076995 1.295714,-1.870515 0.843628,-0.793521 1.342107,-1.401701 3.78072,-0.473526 2.434894,0.926762 2.469099,1.77775 2.596431,2.974802 0.127332,1.197053 -0.232434,2.31831 -0.232434,2.31831 a 3.6894297,3.6894297 0 0 0 2.189958,4.736552 3.6894297,3.6894297 0 0 0 4.735667,-2.191928 c 0,0 0.976665,-2.51656 0.644143,-5.642624 -0.332523,-3.12606 -2.556325,-7.282744 -7.308824,-9.091635 z m 3.292113,-24.026128 c -7.291282,-2.775176 -13.461455,-0.323566 -16.854359,2.867809 -3.392904,3.191375 -4.745223,7.025685 -4.745223,7.025685 a 3.6894297,3.6894297 0 0 0 2.190505,4.73513 3.6894297,3.6894297 0 0 0 4.735128,-2.190504 c 0,0 0.92428,-2.361135 2.874961,-4.195943 1.950671,-1.834808 4.192932,-3.241546 9.174048,-1.345653 4.977405,1.894499 5.808827,4.51726 6.098828,7.243594 0.290009,2.726336 -0.543228,5.135772 -0.543228,5.135772 a 3.6894297,3.6894297 0 0 0 2.190506,4.735128 3.6894297,3.6894297 0 0 0 4.735667,-2.191929 c 0,0 1.450199,-3.804717 0.954937,-8.460084 -0.495191,-4.655345 -3.51676,-10.582389 -10.81177,-13.359005 z m 1.227647,34.042706 a 3.6894297,3.6894297 0 0 0 -4.764688,2.126929 l -7.000851,18.290989 c 0.494365,0.265143 1.088099,0.531497 1.802527,0.803423 3.647056,1.388116 4.731589,0.801745 5.890693,-0.26 l 6.199249,-16.196653 a 3.6894297,3.6894297 0 0 0 -2.12693,-4.764688 z M 45.601466,65.74776 a 3.6894297,3.6894297 0 0 0 -4.735127,2.190505 c 0,0 -1.45045,3.80462 -0.954928,8.460087 0.495191,4.655327 3.516778,10.582391 10.81177,13.359002 7.291273,2.775147 13.461464,0.32356 16.854359,-2.867811 0.30545,-0.287309 0.594148,-0.579792 0.867019,-0.874236 -1.257755,-0.220468 -2.540364,-0.567608 -3.835395,-1.06052 -1.449841,-0.55204 -2.767112,-1.228409 -3.957356,-1.998493 -1.645986,0.936816 -3.795676,1.239748 -7.303687,-0.09546 -4.977387,-1.894511 -5.808827,-4.517269 -6.098827,-7.243595 -0.290011,-2.726327 0.542679,-5.134347 0.542679,-5.134347 a 3.6894297,3.6894297 0 0 0 -2.190507,-4.735126 z m 41.582285,-2.578004 -2.928191,7.650432 m 4.247033,-11.096549 a 3.6894297,3.6894297 0 0 0 -4.764687,2.126928 l -2.928361,7.650864 a 3.6894297,3.6894297 0 0 0 2.12693,4.764687 3.6894297,3.6894297 0 0 0 4.764688,-2.126928 l 2.92836,-7.650863 a 3.6894297,3.6894297 0 0 0 -2.12693,-4.764688 z M 63.612549,49.271474 59.054084,61.181272 m 5.877543,-15.356007 a 3.6894297,3.6894297 0 0 0 -4.764689,2.126927 L 55.608383,59.86224 a 3.6894297,3.6894297 0 0 0 2.12693,4.764689 A 3.6894297,3.6894297 0 0 0 62.5,62.5 l 4.558556,-11.910047 a 3.6894297,3.6894297 0 0 0 -2.126929,-4.764688 z m 13.047006,8.940868 -9.119562,23.826481 M 59.932969,28.443071 44.331487,69.204708 M 61.252584,24.997237 a 3.6894297,3.6894297 0 0 0 -4.764688,2.126927 L 40.886513,67.885558 a 3.6894297,3.6894297 0 0 0 2.12693,4.764693 3.6894297,3.6894297 0 0 0 4.76326,-2.127477 L 63.378095,29.761381 a 3.6894297,3.6894297 0 0 0 -2.125511,-4.764144 z"
         transform="translate(-11.171023,-16.069744)" /></g><text
       xml:space="preserve"
       style="font-style:normal;font-variant:normal;font-weight:900;font-stretch:extra-condensed;font-size:57.7468px;line-height:0.9;font-family:'Noto Serif';-inkscape-font-specification:'Noto Serif Heavy Extra-Condensed';text-align:center;writing-mode:lr-tb;direction:ltr;text-anchor:middle;white-space:pre;inline-size:438.226;display:inline;fill:#e8402d;fill-opacity:0;stroke:none;stroke-width:3.60918;stroke-linecap:round;stroke-linejoin:round;stroke-dashoffset:3.40157;paint-order:stroke markers fill"
       x="224.92252"
       y="44.294113"
       id="text1"
       transform="matrix(0.86829499,0,0,0.86829499,7.6952693,8.0634562)"><tspan
         x="224.92252"
         y="44.294113"
         id="tspan1">PaperPlacer</tspan></text><path
       style="font-weight:900;font-stretch:extra-condensed;font-size:57.7468px;line-height:0.9;font-family:'Noto Serif';-inkscape-font-specification:'Noto Serif Heavy Extra-Condensed';text-align:center;text-anchor:middle;white-space:pre;inline-size:438.226;display:inline;fill:#91261b;stroke-width:3.60918;stroke-linecap:round;stroke-linejoin:round;stroke-dashoffset:3.40157;paint-order:stroke markers fill"
       d="m 69.380806,44.294113 v -3.233821 h 1.905644 q 0.981696,0 1.732404,-0.577468 0.750709,-0.635214 0.750709,-3.06058 V 9.7037803 q 0,-2.2521252 -0.750709,-2.8295932 -0.692961,-0.577468 -1.501417,-0.577468 H 69.380806 V 3.0628983 H 85.54991 q 7.56483,0 11.087385,3.1183272 3.522555,3.0605804 3.522555,9.1817415 0,3.753542 -1.559164,6.756375 -1.501416,3.002834 -4.966224,4.792985 -3.407062,1.732404 -9.123995,1.732404 h -1.039442 v 9.066247 q 0,2.252125 0.635215,2.829593 0.635215,0.519721 1.559163,0.519721 h 3.233821 v 3.233821 z M 84.048493,25.122176 q 3.176074,0 4.619744,-2.194379 1.44367,-2.252125 1.44367,-7.333843 0,-4.619744 -1.328177,-6.7563757 Q 87.455554,6.6431999 84.741455,6.6431999 H 83.413278 V 25.122176 Z m 25.812787,19.749405 q -3.11832,0 -5.37045,-2.309872 -2.25212,-2.309872 -2.25212,-7.160603 0,-4.735238 2.65635,-6.929616 2.65635,-2.252125 7.96906,-2.483112 l 3.92678,-0.173241 V 22.69681 q 0,-6.467641 -2.48311,-6.467641 -1.09719,0 -1.79015,1.61691 -0.69297,1.559164 -0.69297,4.619744 -3.86903,0 -5.71693,-0.923949 -1.8479,-0.923949 -1.8479,-3.002833 0,-2.078885 1.50142,-3.407062 1.50142,-1.328176 3.92678,-1.963391 2.48311,-0.635215 5.4282,-0.635215 5.54369,0 8.31554,2.194379 2.77185,2.194378 2.77185,7.622577 v 14.667687 q 0,2.309872 0.63521,3.176074 0.63522,0.866202 2.25213,0.866202 h 0.17324 v 3.233821 h -10.79865 l -1.15494,-3.695795 h -0.51972 q -1.61691,2.309872 -3.00284,3.291568 -1.38592,0.981695 -3.92678,0.981695 z m 3.81129,-4.273263 q 1.44367,0 2.30987,-2.021138 0.86621,-2.021138 0.86621,-5.312706 v -4.273263 l -1.44367,0.173241 q -2.02114,0.230987 -2.8296,1.847897 -0.75071,1.559164 -0.75071,4.619744 0,2.367619 0.46198,3.695795 0.46197,1.27043 1.38592,1.27043 z m 17.20859,16.688825 v -3.233821 h 0.75071 q 0.40422,0 1.09719,-0.288734 0.7507,-0.230987 1.32817,-1.039442 0.57747,-0.750709 0.57747,-2.309872 V 20.675672 q 0,-2.714099 -0.69296,-3.407061 -0.69296,-0.692962 -1.90565,-0.692962 h -0.17324 v -3.23382 h 10.16344 l 1.15494,4.215516 h 0.23098 q 0.9817,-2.078885 2.77185,-3.407061 1.79015,-1.385923 4.562,-1.385923 4.79298,0 7.33384,3.926782 2.54086,3.869036 2.54086,12.300068 0,8.373286 -2.54086,12.184575 -2.48311,3.811289 -7.44934,3.811289 -2.36762,0 -3.92678,-0.981696 -1.50142,-0.981695 -2.54086,-2.771846 h -0.28873 q 0.11549,1.385923 0.17324,3.002833 0.0577,1.559164 0.0577,3.407062 v 2.656352 q 0,1.616911 0.57747,2.425366 0.57747,0.808455 1.27043,1.039442 0.69296,0.288734 1.09719,0.288734 h 1.73241 v 3.233821 z m 16.80432,-16.573331 q 1.90564,0 2.7141,-2.88734 0.80845,-2.88734 0.80845,-8.777514 0,-5.659186 -0.80845,-8.777513 -0.75071,-3.118328 -2.54086,-3.118328 -2.30988,0 -3.06058,3.176074 -0.69297,3.118328 -0.69297,8.604274 0,6.005667 0.69297,8.893007 0.7507,2.88734 2.88734,2.88734 z m 30.37477,4.157769 q -6.81412,0 -10.16344,-4.157769 -3.29156,-4.215517 -3.29156,-11.722601 0,-8.142298 3.34931,-12.300068 3.40706,-4.15777 9.52822,-4.15777 5.65919,0 8.89301,3.580302 3.29157,3.522555 3.29157,10.394424 v 2.945087 h -15.59164 q 0.11549,5.716933 1.67466,8.373286 1.61691,2.598606 4.73524,2.598606 2.48311,0 3.92678,-1.44367 1.44367,-1.501417 2.25212,-3.638049 0.86621,0.230987 1.44367,0.923949 0.63522,0.692962 0.63522,1.732404 0,1.559164 -1.09719,3.176074 -1.03944,1.559164 -3.40706,2.656353 -2.30987,1.039442 -6.17891,1.039442 z m 2.36762,-19.171937 q 0.0577,-4.388757 -0.63522,-6.814123 -0.63521,-2.483112 -2.07888,-2.483112 -1.50142,0 -2.54086,2.425366 -0.9817,2.367618 -0.9817,6.871869 z m 11.49164,18.594469 v -3.233821 h 0.23099 q 1.67466,0 2.54086,-0.692961 0.8662,-0.750709 0.8662,-3.464808 V 20.502432 q 0,-2.540859 -0.75071,-3.233821 -0.69296,-0.692962 -2.25212,-0.692962 h -0.23099 v -3.23382 h 11.26062 l 1.03945,5.601439 h 0.23098 q 1.21269,-3.233821 3.00284,-4.735237 1.79015,-1.559164 4.61974,-1.559164 2.82959,0 4.04228,1.501417 1.21268,1.501417 1.21268,3.869035 0,2.829594 -1.96339,4.15777 -1.96339,1.27043 -5.19721,1.27043 0,-2.367619 -0.40423,-3.638049 -0.34648,-1.270429 -1.67466,-1.270429 -1.09719,0 -1.90564,1.44367 -0.75071,1.44367 -1.15494,3.695795 -0.40423,2.252125 -0.40423,4.619744 v 8.893007 q 0,2.540859 0.75071,3.233821 0.80846,0.635214 2.13663,0.635214 h 1.73241 v 3.233821 z m 27.60299,0 v -3.233821 h 1.90564 q 0.9817,0 1.73241,-0.577468 0.75071,-0.635214 0.75071,-3.06058 V 9.7037803 q 0,-2.2521252 -0.75071,-2.8295932 -0.69296,-0.577468 -1.50142,-0.577468 H 219.5225 V 3.0628983 h 16.1691 q 7.56483,0 11.08739,3.1183272 3.52255,3.0605804 3.52255,9.1817415 0,3.753542 -1.55916,6.756375 -1.50142,3.002834 -4.96623,4.792985 -3.40706,1.732404 -9.12399,1.732404 h -1.03944 v 9.066247 q 0,2.252125 0.63521,2.829593 0.63522,0.519721 1.55917,0.519721 h 3.23382 v 3.233821 z m 14.66769,-19.171937 q 3.17607,0 4.61974,-2.194379 1.44367,-2.252125 1.44367,-7.333843 0,-4.619744 -1.32818,-6.7563757 -1.32817,-2.1943784 -4.04227,-2.1943784 h -1.32818 V 25.122176 Z m 17.15078,19.171937 v -3.233821 h 0.57746 q 1.32818,0 2.13663,-0.808455 0.86621,-0.866202 0.86621,-3.291567 V 7.0474275 q 0,-1.5014168 -0.63522,-2.1943784 -0.57747,-0.7507084 -1.27043,-0.9816956 -0.69296,-0.2309872 -1.09719,-0.2309872 h -0.57746 V 0.40654556 H 264.334 V 36.96027 q 0,2.425365 0.8662,3.291567 0.8662,0.808455 2.19438,0.808455 h 0.46197 v 3.233821 z m 27.08325,0.577468 q -3.11833,0 -5.37045,-2.309872 -2.25213,-2.309872 -2.25213,-7.160603 0,-4.735238 2.65635,-6.929616 2.65636,-2.252125 7.96906,-2.483112 l 3.92679,-0.173241 V 22.69681 q 0,-6.467641 -2.48312,-6.467641 -1.09719,0 -1.79015,1.61691 -0.69296,1.559164 -0.69296,4.619744 -3.86903,0 -5.71693,-0.923949 -1.8479,-0.923949 -1.8479,-3.002833 0,-2.078885 1.50142,-3.407062 1.50141,-1.328176 3.92678,-1.963391 2.48311,-0.635215 5.4282,-0.635215 5.54369,0 8.31554,2.194379 2.77184,2.194378 2.77184,7.622577 v 14.667687 q 0,2.309872 0.63522,3.176074 0.63521,0.866202 2.25212,0.866202 h 0.17324 v 3.233821 h -10.79865 l -1.15493,-3.695795 h -0.51972 q -1.61692,2.309872 -3.00284,3.291568 -1.38592,0.981695 -3.92678,0.981695 z m 3.81129,-4.273263 q 1.44367,0 2.30987,-2.021138 0.8662,-2.021138 0.8662,-5.312706 v -4.273263 l -1.44367,0.173241 q -2.02114,0.230987 -2.82959,1.847897 -0.75071,1.559164 -0.75071,4.619744 0,2.367619 0.46197,3.695795 0.46198,1.27043 1.38593,1.27043 z m 31.47206,4.273263 q -3.81129,0 -6.69863,-1.501417 -2.82959,-1.501416 -4.4465,-4.966224 -1.55917,-3.522555 -1.55917,-9.470475 0,-6.294402 1.67466,-9.816956 1.67466,-3.580302 4.50425,-5.081719 2.88734,-1.501417 6.40989,-1.501417 3.92679,0 6.17891,0.866202 2.30987,0.866202 3.23382,2.252126 0.9817,1.385923 0.9817,3.002833 0,1.212683 -0.51972,2.425366 -0.51972,1.212683 -2.19438,2.021138 -1.61691,0.808455 -4.96623,0.808455 0,-2.078885 -0.23098,-3.811289 -0.23099,-1.732404 -0.75071,-2.771846 -0.51972,-1.097189 -1.44367,-1.097189 -1.03944,0 -1.79015,1.154936 -0.75071,1.097189 -1.21269,3.869035 -0.40422,2.7141 -0.40422,7.622578 0,5.77468 1.21268,8.719766 1.21268,2.945087 4.04228,2.945087 2.36761,0 3.98452,-1.328176 1.67466,-1.385923 2.48312,-3.464808 0.75071,0.404227 1.21268,1.039442 0.51972,0.635215 0.51972,1.559164 0,1.44367 -0.8662,2.945087 -0.80846,1.501416 -3.06058,2.540859 -2.19438,1.039442 -6.2944,1.039442 z m 27.37201,0 q -6.81412,0 -10.16343,-4.157769 -3.29157,-4.215517 -3.29157,-11.722601 0,-8.142298 3.34931,-12.300068 3.40706,-4.15777 9.52823,-4.15777 5.65918,0 8.893,3.580302 3.29157,3.522555 3.29157,10.394424 v 2.945087 h -15.59164 q 0.1155,5.716933 1.67466,8.373286 1.61691,2.598606 4.73524,2.598606 2.48311,0 3.92678,-1.44367 1.44367,-1.501417 2.25213,-3.638049 0.8662,0.230987 1.44367,0.923949 0.63521,0.692962 0.63521,1.732404 0,1.559164 -1.09719,3.176074 -1.03944,1.559164 -3.40706,2.656353 -2.30987,1.039442 -6.17891,1.039442 z m 2.36762,-19.171937 q 0.0577,-4.388757 -0.63521,-6.814123 -0.63522,-2.483112 -2.07889,-2.483112 -1.50141,0 -2.54086,2.425366 -0.98169,2.367618 -0.98169,6.871869 z m 11.49164,18.594469 v -3.233821 h 0.23098 q 1.67466,0 2.54086,-0.692961 0.8662,-0.750709 0.8662,-3.464808 V 20.502432 q 0,-2.540859 -0.7507,-3.233821 -0.69297,-0.692962 -2.25213,-0.692962 h -0.23099 v -3.23382 h 11.26063 l 1.03944,5.601439 h 0.23099 q 1.21268,-3.233821 3.00283,-4.735237 1.79015,-1.559164 4.61975,-1.559164 2.82959,0 4.04227,1.501417 1.21269,1.501417 1.21269,3.869035 0,2.829594 -1.9634,4.15777 -1.96339,1.27043 -5.19721,1.27043 0,-2.367619 -0.40423,-3.638049 -0.34648,-1.270429 -1.67465,-1.270429 -1.09719,0 -1.90565,1.44367 -0.75071,1.44367 -1.15493,3.695795 -0.40423,2.252125 -0.40423,4.619744 v 8.893007 q 0,2.540859 0.75071,3.233821 0.80845,0.635214 2.13663,0.635214 h 1.7324 v 3.233821 z"
       id="text3"
       transform="matrix(0.86829499,0,0,0.86829499,7.6952693,8.0634562)"
       aria-label="PaperPlacer" /></g></svg>
